<svg version="1.1" id="Layer_1" xmlns="http://www.w3.org/2000/svg" xmlns:xlink="http://www.w3.org/1999/xlink" x="0px" y="0px"
	 width="75px" height="75px" viewBox="0 0 75 75" enable-background="new 0 0 75 75" xml:space="preserve">
<g id="doveBody">
	<path d="M67.2,30.2c0,0-0.2-0.3,0-0.4"/>
	<path d="M20.8,56.5c-0.4,0-0.7,0.4-1,0c-0.2-0.5-0.2-0.8,0-1.2l2.3-1.6c0.8-0.6,1.7-1,2.3-1.7c0.2-0.3,0.6-0.5,1-0.7
		c0.3-0.199,0.8-0.199,0.6-0.8c1-0.6,1.7-1.399,2.5-2.2c0.2-0.199,0.4-0.5,0.7-0.6h0.2c0.6-1,1.4-2,2.5-2.5c0.6-0.4,0.8-0.7,1-1
		c0-0.4,0-0.6,0.2-0.8c0.2-0.4,1-0.5,0.7-1v-0.2c0-0.4,0.8-0.5,0.7-1l1.2-1.8c0.5-1,1-1.7,2-2.601c0.4-0.8,1-1.6,1.6-2.3
		c0.6-0.7,1-1.6,2-2c0.3-0.3,0.3-1,0.8-1c0.3,0,0.8,0,0.7-0.7l0.7-0.3c0.3-0.2,1,0,0.8-0.8c0.3,0,0.5-0.2,0.8-0.3c0.4-0.2,1-0.2,1-1
		l0.8-0.3c0.5-0.5,1-0.3,1-1c0.601,0,1-0.6,1.301-1c0.3,0.5-0.2,1,0,1.3l-1.5,0.7c-0.301,0.2-0.5,0.4-0.301,0.7
		c-1,0.4-1.399,1.2-2.3,1.6c-0.5,0.8-1.3,1-2,1.6c-0.7,0.4-1.3,1-2,2l-2,2.4c-0.699,0.8-1,1.7-2,2.5l-1.3,2.3c-0.2,0-0.6,0.5-0.3,1
		c-0.4,0-0.6,0.2-0.8,0.6c0,0.301,0,0.7-0.6,0.801c-0.3,0-0.3,0.3-0.2,0.6h-0.1c-0.7,0.6-1,1.5-1.8,2v0.2c-0.6,0.3-1,1-1.5,1.5
		c-0.6,0.399-0.8,1-1.5,1.3l-1.2,1c-0.8,0.8-1.4,1.5-2.3,2c-0.5,0.3-1,1-1.6,1c0,0-0.2,0.3,0,0.4c0,0.199,0.2,0,0.4,0
		c0.2,0.699-0.4,0.6-0.7,0.699c-0.3-0.399-0.7,0-1,0c-0.2,0.301-0.8,0.4-0.6,0.7c0.3,0.4,0.6,0,1,0c0,0,0,0.2,0.2,0.2
		c1-0.4,2-0.6,2.6-1c0.4-0.6,0.8-1,1.2-1c0,0,0.2,0.3,0,0.4c-0.3,0-0.4,0-0.5,0.3c-0.3,0.7-1,1-1.5,1.399c-0.5,0.5-0.7,1-1.3,1.301
		V57c-0.2,0-0.5,0-0.7,0.3c-0.3,0.2-0.8,0.601-0.8,1c0,0.2,0.7,0,1,0v0.2c1.3-0.6,2.6-1.3,3.6-2.3c0.4-0.7,1-1,1.3-2h0.4
		c0,0.4,0.2,0.6,0.3,0.7c-0.6,0.3-1,0.7-1,1.399c-0.7,0.301,0.3,1-0.2,1v0.4h0.2c0.2,0,1.8-1.3,2-1.6c0-0.2,0-0.301,0.2-0.301
		c0.3,0,0.4-0.3,0.2-0.6h0.4l5-2.8l1.2-0.5c0.4-0.2,1-0.2,0.8-0.8l7-3c0.4,0.399,0.8,0,1,0l1.3-0.7c0.4,0,1-0.2,1-0.8
		c0.7-0.301,2.2-1.5,2.4-1.301c0,0.2,0.2,0,0.4,0c0.3,0,0.399-0.199,0.3-0.5c0.5-0.3,1-0.399,1.399-0.8c0.5-0.7,1.2-1,1.801-1.5
		l0.8-1c0.8-0.3,1-1.2,1.6-1.7c0.601-0.6,0.8-1.399,1.3-2c0-0.3,0.4-0.6,0.301-1c0.699-0.3,1.199-1.2,1-2c0.6-0.2,0.5-0.7,0.699-1
		c0.2-0.4-0.199-1,0.4-1.2l0.4-0.2c0.199,0.3,0,1.5-0.2,2l-0.7,1.8c-0.3,0.4-0.3,0.7,0,1c0,0.2-4.6,6-5.3,6.5
		c-0.601,0.5-1,1-1.7,1.4c-1.2,0.699-2.6,1.199-3.7,2c-1.399,1-2.8,1.699-4.2,2c-1.5,0.399-3,1-4.399,1.699
		c-0.8,0.4-1.7,0.5-2.301,1c-0.5,0.601-1,0.801-1.6,1l-2.8,1.4c-2,0.5-3,1.7-4,3c0,0.2-0.4,0.3-0.7,0.4c-0.4,0.3-2.8,1.3-3,1
		c0-0.301-0.2-0.2-0.4-0.2c-0.4-0.2-0.5,0-0.7,0l-1.6,0.7c-1,0.3-2,0-3-0.7c-0.3-0.2-0.3-0.4,0-0.7c0.2-0.4,0.6-0.7,1-1l0.3-0.5h0.5
		c0.2,0,0.5,0,0.4-0.4c-0.3,0-0.6-0.199-0.7,0c-0.2,0-0.4,0-0.5,0.2c-0.5,0-0.8,0-1,0.3l0.2,0.301L20.8,56.5z"/>
	<path fill="#FFFFFF" d="M59.8,33c-0.6,0.2,0,0.8-0.3,1.2c-0.2,0.3,0,0.8-0.601,1v-0.3c-1-0.2-1.699-0.6-2.399-1
		c-0.5-0.5-0.601-1-1-1.3c-0.8-0.6-1.4-1.5-2.2-2.2c-0.8-0.7-1.6-1.5-2.5-2c-0.6-0.3-1-1-1.7-0.8c-0.2-0.4,0.3-0.8,0-1.2l0.4-0.4
		c0,0,0.3,0,0.399-0.3l1-2.5c0.601-0.5,0-1.2,0.4-1.7c0-0.5,0.3-1,0-1.4c0.5-1,0.5-1.6,0.6-2.3c0-1,0.601-1.6,1-2.4l0.4-0.2
		c0.5,0,0.8-0.4,1.2-0.5h0.6c0,0,0.2,0.2,0.5,0c0.601-0.2,1.2,0,1.8,0c0.7,0,1,0.7,1.7,0.6v0.4c-0.2,0.2-0.8,0-0.6,0.7v0.5l-0.2,0.2
		c-0.6,0.2-0.2,0.6,0,1c-0.6,0-0.8,0.4-0.7,1c0,0.5,0.7,0.8,0.7,1.3c-0.4,0.8-0.3,1.6,0,2c0.4,1,0,2.3,0.8,3.2
		c-0.5,1,0.8,1.8,0.2,2.8c0.6,0.6,0,1.4,0.4,2v0.3c0,1,0,1.7,0.199,2.5L59.8,33z M56.3,16c0-0.3-0.2-0.5-0.5-0.3
		c-0.4,0-0.8,0.2-0.8,1c0,0.4,0,0.8,0.399,1c0.5,0.3,1.601,0,2-0.3c0-0.2-0.399-1.3-0.6-1.5h-0.5V16z M53.3,20
		c0.2,0.4,0.3,1,1.2,0.6h0.399c0.4,0.2,0.7,0,0.801,0c0.199-0.6,0.6-0.8,1-1c0.399,0,0.5-0.6,0.5-0.8c0-0.4-0.4,0-0.601,0h-0.2
		c-0.6-0.5-1.399-0.3-2-1h-0.3c-0.8,0.4-1,1-0.5,2.3l-0.2-0.2L53.3,20z"/>
	<path d="M59.8,33c-0.3-0.8-0.2-1.6-0.2-2.5v-0.3c-0.399-0.6,0.2-1.4-0.399-2c0.6-1-0.7-1.8-0.2-2.7c-0.7-1-0.4-2.2-0.8-3.2
		c-0.301-0.3-0.4-1,0-2h0.6v0.3c0,0.2-0.3,0.5-0.2,0.8c0.5,1,0.3,2,0.7,3c-0.5,0.6,0,1,0.2,1.4c0.5,0.8,0.3,1.8,0.6,2.6
		c-0.6,0.2,0,0.5,0,1v0.3c-0.399,0.3,0,0.6,0,1c0.2,0.3,0,0.8,0.4,0.8c0.3,0.5-0.3,0.8,0,1c-0.3,0-0.3,0.4-0.3,0.7l-0.4,0.2v-0.2V33
		z"/>
	<path d="M58.8,20.2h-0.6c0-0.4-0.7-0.7-0.7-1.3c0-0.5,0-0.8,0.6-1h0.3c0.2,0,0.301,0,0.301,0.3c-0.601,0.4,0,0.4,0,0.4
		c0.6-0.2,1-0.2,1.5-0.2c0.3,0,1.199,0,1-0.8c0,0,0.199,0,0.3-0.2c0.2,0.2,0.6,0.3,0.7,0.6c0,0.4,0.3,0.8,0.399,1.2
		c-0.399-0.2-0.6-0.3-1,0H61c-1,0-1.7,0.5-2.5,1H58.8z M59.1,19.5c0.2-0.2,0.601,0,0.5-0.5c0-0.3-0.399,0-0.6,0h-0.4
		c-0.3,0-0.3,0.2-0.3,0.4c0,0.2,0,0.3,0.4,0.3l0.199-0.2H59.1z"/>
	<path d="M51.1,20.2c0.3,0.3,0,0.8,0,1.3c-0.2,0.5,0.2,1.2-0.2,1.7l-1,2.5c0,0.2-0.199,0.3-0.3,0.3c0-0.8,0.4-1.5,0.8-2.2
		c0.4-0.8,0.4-1.5,0.4-2.2c0-0.6,0-1,0.3-1.5V20.2z"/>
	<path d="M51.1,20.2c-0.3-0.4-0.2-0.7-0.2-1c0.5-1,0.7-2,1-2.8l0.801-1c0,0,0,0.2,0.199,0.2c-0.399,0.8-1,1.5-1,2.4
		C51.7,18.7,51.7,19.4,51.2,20v0.2H51.1z"/>
	<path d="M58.8,18.2c0-0.2-0.2-0.3-0.4-0.3c0-0.2-0.199-0.3,0-0.4c0.4,0,0.7,0.2,1,0c0,0,0.301,0,0.4-0.2c0,0,0.4,0,0.2-0.2
		c0-0.2-0.3,0-0.4,0c0,0,0-0.3-0.2-0.4c0.2,0,0.301,0,0.4-0.2H60c0.6,0.5,1.2,0.7,1.7,1.2c-0.301,0-0.4,0-0.601,0.2
		c-1-0.3-1.7,0.3-2.6,0.6l0.2-0.2L58.8,18.2z"/>
	<path d="M59,15.4c-0.7,0-1-0.6-1.7-0.5c-0.6,0-1.2-0.3-1.8,0c-0.3,0-0.4,0-0.5-0.2l0.5-0.3c0.8-0.2,1.6,0,2.3,0
		c0.5,0,1,0.3,1.2,0.7v0.2V15.4z M59.8,16.2c0,0.2-0.2,0.2-0.4,0.3c-0.199-0.7-0.699,0-1,0c-0.199-0.7,0.4-0.6,0.7-0.8h0.3
		c0.2,0,0.301,0.4,0.4,0.6V16.2z"/>
	<path d="M54.399,14.8C54,14.8,53.7,15.4,53.2,15.4V15l1-0.5L54.399,14.8z"/>
	<path d="M54.399,14.8v-0.3c0.301-0.2,0.601-0.6,1,0c0,0-0.3,0-0.399,0.2h-0.601V14.8z M53.1,15v0.4L52.7,15.6h-0.4
		c0-0.3,0.3-0.5,0.6-0.6H53.1z M59.399,15.6h-0.3v-0.2c-0.2,0-0.2-0.2,0-0.3c0,0,0.3,0,0.3,0.3V15.6z"/>
	<path fill="#FFFFFF" d="M35.6,40.7l1.3-2c1-0.7,1.4-1.6,2-2.4c0.8-0.6,1.499-1.5,1.999-2.399l2-2c0.801-0.5,1.601-0.8,2-1.5
		c1-0.4,1.601-1.2,2.5-1.6h0.2c1.2,0.3,2.4,0.7,3.2,1.6c0.7,0.7,1.6,1.4,2,2.4c0,0,0,0.2,0.3,0.3c0.8,0.6,1.3,1.4,2,2l2,1.4
		c0.3,0,0.8,0,1,0.601c0,0.5,0,0.8-0.2,1c-0.399,0.699-0.399,1.5-1,2c-0.5,0.5-1,1.3-1.5,1.699c-0.399,0.2-0.8,0.601-1,1
		c-0.5,0.5-1.199,0.801-1.699,1.4c-0.301,0.4-0.801,0.7-1.301,1l-3,1.7c-0.3,0.3-1.699,0.3-1.5,1l-2,0.8c-0.199-0.5-2,0.7-2.199,0.8
		c-2.7,1-6.8,3.3-10,5l-1.9,0.7c-0.4,0.2-3,2.8-3.2,3c-0.7,0.3-0.2-1.6-0.2-1.6c0.2-0.2,0.2-0.7,0.4-1c0-0.4,0.4-0.4,0.5-0.801
		c0-0.399-0.3,0-0.3-0.199c0-0.5,2-2.301,2-2.601s0-0.5-0.2-0.5l0.4-0.8c1.2-2.4,5.2-9.5,5.4-9.7V40.7z"/>
	<path fill="#FFFFFF" d="M46.8,33.8c0.6,0,1,0.5,1,1v2.4c0.5,2.3,0.6,4.4-0.5,6.3c-0.6,1-1.5,2-2.8,2.3c-0.4,0.2-1,0-1.3,0
		c-1.2,0-2.4-0.399-3.5-1c0,0-0.301,0-0.301-0.199c0-0.2-0.2-0.2-0.3-0.4c-0.4-0.5-1.2-0.7-1-1.5c0.2,0,0.301,0,0.4-0.2
		c0.199,0,0.3-0.2,0.199-0.5c0.801-0.7,1.601-1.399,1.801-2.5c0-0.3,0.2-0.3,0.3-0.399c0.5-0.4,1-0.301,1-1c0-0.601,0.3-1,1-1.4
		l1-0.5c0.5,0,0.6-0.2,0.4-0.5c0.399,0,0.399-0.6,0.5-0.8c0-0.4,0.5-0.5,1-0.7l1-0.4H46.8z M57.8,37.2c0-0.5-0.5-0.4-0.7-0.5
		c-0.8-0.3-1.3-1-2-1.4c-0.8-0.3-1.3-1.2-2-2h-0.3c-0.5-1-1.4-1.8-2.2-2.6s-2-1.3-3.2-1.7H47.2c-0.2-0.2,0-0.4,0.3-0.5
		c0.5,0,1-0.3,1.5-0.6c0.7,0,1,0.5,1.6,0.8c1,0.5,1.7,1.3,2.5,2s1.4,1.6,2.2,2.2c0.4,0.3,0.5,0.8,1,1.2c0.7,0.5,1.5,1,2.4,1v0.4
		c0,0.8-0.4,1.7-1,2v-0.3H57.8z M22.3,57.4l1-1c0.6-0.2,0.8-0.8,1.3-1.2s1.3-0.8,1.6-1.5c0-0.2,0.4-0.6,0.6-0.7c0.2,0,1-0.6,1-0.8
		c0,0,3.2-4.3,1.7-1.8c0.3-0.2,0.8-0.2,0.5-1c0.3,0,2-0.8,2.3-1c0.2,0,2,1.5,2.2,1.3c0.3,0.5-0.8,3-1.6,3.2c-0.2,0-4.2,0.7-4,1v0.7
		c0,0-0.2,0-0.3-0.2c-0.2-0.4-0.4-0.5-0.5,0v0.3c-0.7,0.5-1,1.3-1.7,1.8c-0.8,0.8-1.5,1.7-2.7,2c-0.2,0-0.5,0.2-0.6,0
		c0-0.3-1-0.399-1-0.5c0.3,0,0-0.2,0.5-0.6h-0.2H22.3z"/>
	<path fill="#FFFFFF" d="M23.3,56.8c0.5,0.301,0,0.4-0.2,0.5c0,0.301-0.5,0.301-0.4,0.601c0,0.3,0.2,0,0.4,0c1.2-0.3,2-1.2,2.7-2
		c0.7-0.5,1-1.3,1.8-1.8v-0.2c0-0.5,0.3-0.5,0.5,0c0,0,0.2,0.2,0.4,0v0.3c-0.2,0,0,0.3,0,0.5c0,0.3,0,0.4-0.3,0.4L27.9,54.5
		c0-0.2,0-0.3-0.2,0c-0.2,0.601-0.8,1-1.3,1.601c-1,1-2.2,1.699-3.6,2.199c-0.4-0.3-1,0-1-0.3c0-0.5,0.4-1,0.7-1
		c0.2-0.399,0.5-0.399,0.7-0.5L23.3,56.8z"/>
	<path d="M27,52.8L26.6,53c-0.4,0.2-0.8,0.5-1.2,1c-0.6,0.5-1.6,0.7-2.5,1v-0.3l0.7-0.4c0.3,0,1,0,0.7-0.5l1-0.5
		c0.4-0.199,0.5-0.399,0.4-0.699c0.4-0.2,1-0.301,1.3-0.601c0.4-0.6,1-0.8,1.4-1c0,0,0.3,0,0.4,0.2c-0.3,0-0.2,0.2,0,0.4
		c-0.4,0-0.6,0.199-0.8,0.399c-0.4,0-1,0-0.8,0.601V52.8H27z"/>
	<path fill="#FFFFFF" d="M28.8,49.2c0.7-0.3,1-1,1.5-1.3c0.6-0.5,1-1.2,1.5-1.5l1.6-0.8c0,0,0,0.3,0.2,0.399
		c-0.4,0.2-0.3,0.4-0.2,0.7l-1.5,0.7c-0.2,0.5-0.7,1-1.3,1.2c-0.2,0-0.2,0.3-0.2,0.5h-0.8c-0.3,0-0.5,0.3-0.6,0L28.8,49.2z"/>
	<path fill="#FFFFFF" d="M28.8,49.2c0,0.4,0.3,0.3,0.6,0.2V49.8c-0.4,0.301-1,0.4-1.3,1c-0.5,0.301-1,0.5-1.3,1
		c-0.2,0.4-1,0.5-1.3,0.7l-0.2-0.399c1-0.601,1.5-1.301,2.2-2l1.3-1V49.2z"/>
	<path fill="#FFFFFF" d="M28.4,51.7c0-0.2-0.2-0.5,0-0.6c0.3-0.601,0.6-0.801,1-1c0.2,0,0.3-0.2,0-0.5l1.4-0.4v0.3c0,0.5-0.4,1-1,1
		c-0.2,0.3-0.7,0.3-0.5,1c-0.3,0-0.6,0-1,0.2H28.4z M27.6,56.4c0,0.3,0.3,0.3,0.6,0.2l1.2-0.5c0,0-1.7,1.5-2,1.5V57.3
		c0.4-0.199-0.6-1,0.2-1V56.4z M33.6,44.2c0,0.5,0.4,0,0.6,0.3c0,0.5-0.7,0.601-0.8,1l-1.6,1v-0.3c0.7-0.6,1-1.5,1.7-2H33.6z
		 M30.2,49.2c0-0.3,0-0.6,0.2-0.6c0.6-0.301,1-0.7,1.5-1.2c0,0.399,1,0.8,0,1.3c-0.4-0.4-0.7,0-1,0.4h-0.5L30.2,49.2z M25.2,52.2
		c0,0,0,0.2,0.3,0.3c0,0.3,0,0.5-0.3,0.601c-0.4,0-0.7,0-1,0.3c-0.3,0-0.5,0.2-0.6,0v-0.2c0.8,0,1.2-0.7,1.7-1H25.2z M23.4,54.2
		l-0.8,0.5c-0.3,0-0.6,0.5-0.8,0c-0.2-0.3,0.4-0.3,0.6-0.4c0.3,0,0.7-0.399,1,0V54.2z"/>
	<path fill="#FFFFFF" d="M28.4,55c0,0.7,0,1.2-0.8,1.4C27.6,55.7,27.9,55.4,28.4,55z M30.6,49.2c0.4-0.5,0.7-1,1.3-0.5
		c0,0.4-0.6,0.4-1,0.6h-0.2L30.6,49.2z M35.3,44.5c0-0.3-0.5-0.7,0-1l0.4,0.8V45c-0.5,0-0.5-0.2-0.6-0.3L35.3,44.5z"/>
	<path d="M46.8,47.601c-0.3-0.801,0.5-0.5,0.8-0.801c0,0.601-0.5,0.7-1,0.801H46.8z"/>
	<path d="M36.6,52v-0.399l0.8-0.4C37.4,51.8,37,51.8,36.6,52z"/>
	<path fill="#FFFFFF" d="M33.4,46.7c0-0.3-0.2-0.5,0.2-0.7l0.3,0.7V47c-0.2,0-0.2-0.2-0.3-0.3H33.4z"/>
	<path d="M50.3,45h0.5c0,0.3,0,0.5-0.3,0.601h-0.4C49.899,45.3,50.3,45.2,50.3,45z"/>
	<path d="M44.5,48.2c0.3,0,0.7-0.6,1,0C45.2,48.2,44.8,48.7,44.5,48.2z"/>
	<path d="M21.8,56.4c0,0,0-0.2-0.2-0.3l0.6-0.4V56h-0.4v0.2V56.4z"/>
	<path d="M29.8,55.9c-0.2-0.3,0-0.5,0.2-0.601c0.2,0.5,0,0.7-0.3,0.801L29.8,55.9z"/>
	<path fill="#FFFFFF" d="M53.3,20.2c-0.5-1.4-0.3-2,0.6-2.3H54.5c0.5,0.6,1.3,0.4,2,0.8c0.3,0,0.7-0.3,0.7,0s0,0.8-0.5,1
		c-0.4,0-0.801,0.3-1,0.8c0,0.2-0.4,0.3-0.601,0.2c0,0-0.3-0.2-0.3,0c-1,0.4-1-0.3-1.3-0.6h-0.2V20.2z M56.3,15.9h0.5
		c0.2,0.2,0.6,1.3,0.5,1.5c-0.2,0.3-1.4,0.6-2,0.3c-0.4-0.2-0.4-0.6-0.3-1c0-0.8,0.399-1,0.8-1C56.1,15.5,56.2,15.7,56.3,15.9
		c-0.2,0.2-0.7,0-0.5,0.7h-0.4c0,0.4-0.199,0.7,0.4,0.7c0.3,0.4,0.6,0.3,0.8,0c0.3-0.2,0-0.4,0-0.6l-0.3-0.6V15.9z"/>
	<path d="M59.3,17.5c-0.2,0.2-0.5,0-0.8,0L58.2,17v-0.2c0.5,0,0.8,0,1.199-0.3c0,0,0,0.3,0.2,0.4C59.3,16.9,59.2,17.2,59.3,17.5z"/>
	<path d="M59.399,16.5l-1,0.3v-0.4c0.301,0,0.801-0.6,1,0V16.5z"/>
	<path d="M58.2,17c0,0.2,0.199,0.4,0.3,0.5c-0.3,0-0.2,0.2,0,0.4h-0.4c0-0.3-0.5-0.7,0-1L58.2,17z"/>
	<path d="M58.8,18.2c0.8-0.3,1.6-1,2.5-0.6c0.3,1-0.6,0.7-0.8,0.8c-0.601,0-1,0-1.5,0.2c-0.3,0-0.7,0-0.3-0.4H58.8z M59.1,19.5
		c-0.2,0-0.3,0-0.399,0.2c-0.5,0-0.601,0-0.601-0.3c0-0.2,0-0.3,0.3-0.3h0.4c0.3-0.3,0.6-0.6,0.7-0.3c0,0.4-0.3,0.3-0.5,0.5
		L59.1,19.5z"/>
	<path d="M59.3,17.5c0-0.3,0-0.5,0.3-0.6c0,0,0.3-0.2,0.4,0c0,0.2,0,0.3-0.2,0.4c0,0.3-0.3,0.3-0.5,0.4V17.5z"/>
	<path d="M27,52.8c-0.2-0.6,0.4-0.5,0.7-0.699c0,0.399-0.6,0.3-1,0.5h0.2L27,52.8z M29.5,49.8c0.2,0.301,0,0.5-0.2,0.601
		c-0.3,0-0.6,0.3-0.8,0.7c0-0.301-0.2-0.301-0.4-0.4c0.2-0.7,1-0.8,1.4-1V49.8z"/>
	<path d="M30.6,49.2c-0.3,0.3-0.7,0.4-1,0.6L29.4,49.4c0.3,0,0.5-0.2,0.8-0.3h0.4V49.2z"/>
	<path d="M55.8,16.6c-0.2-0.5,0.3-0.5,0.5-0.7l0.3,0.6c0,0.2,0.3,0.4,0,0.7c-0.2,0.2-0.5,0.3-0.8,0C55.8,17,56.8,16.8,55.8,16.6z"/>
	<path d="M55.8,16.6c1,0.3,0,0.4,0,0.7c-0.6,0-0.5,0-0.4-0.5h0.4V16.6z"/>
</g>
<g id="doveWingsA">
	<path fill="#FFFFFF" d="M35.3,39.2h0.3l1-0.5c0.6,0,1-0.3,1.2-0.8l0.399-0.2c0.201,0,0.4,0,0.601-0.2c0.2,0,0.399,0,0.6-0.2
		c0.601,0.5,1.2,0.4,1.7,0c0.5-0.5,1-0.8,1.601-1c0.199-0.2,0.5-0.2,0.8-0.3l1-0.4h0.399c0,0,0.301-0.2,0.2-0.4
		c0-0.3-0.2-0.3-0.3-0.2h-0.4l-1,0.4c-0.3-0.4-0.6-0.4-1,0v0.4l-3,1h-0.3c-0.3,0-0.5-0.3-0.8,0h-0.5c-0.3,0-0.4,0.5-0.6,0.801
		c-0.2,0-0.4,0-0.6,0.199l-1,0.4h-0.8c0-0.2-0.2-0.3-0.4-0.2c-0.3-0.6-0.6-0.2-1,0c-0.3,0-0.4,0.2-0.4,0.5h-0.2
		c-0.6,0.3-1.2,0.601-2,0.7l-0.2-0.7c0.2,0,0.3-0.2,0.3-0.399c0.2-0.2,0.3-0.4,0.5-0.4c0.3,0,0.4-0.3,0.3-0.6h0.4
		c0.3-0.2,0.3-0.4,0.3-0.7c0,0,0.3,0,0.3-0.2c0.6-0.5,1-1,1.2-1.8c0-0.2,0.2-0.3,0.4-0.2l0.3,0.2c0.8,0,1.7,0,2.5-0.4
		c0,0,0.4,0,0.3-0.3c0-0.3-0.3-0.2-0.5,0c-0.4,0-0.7,0-1,0.2c-0.4,0-1,0.4-1.3,0h-0.4c0,0,0-0.3-0.2-0.4c0-0.3-0.3-0.2-0.5,0h-0.2
		c0.2,0.3,0,0.5,0,0.8c0,0.2-0.2,0.4,0,0.6c-0.4,0-0.5,0.3-0.3,0.6c-0.2,0-0.3,0-0.4,0.2c-0.4,0-0.4,0.2-0.4,0.5
		c-0.2,0-0.3,0.2-0.2,0.5h-0.4c-0.4,0-0.4,0.5-0.4,0.7l-0.6,0.2c-0.4,0-0.5,0.3-0.5,0.6l-0.2,0.2c-0.3,0-0.4,0.2-0.4,0.5l-2.2,0.8
		c-0.2,0-0.2-0.2-0.3-0.4c0.2,0,0.4-0.199,0.4-0.5c0.5,0,0.6-0.3,0.5-0.6c0-0.2,0.2-0.2,0.3-0.3c0.3,0,0.4-0.2,0.4-0.5
		c0,0,0.2,0,0.3-0.2c0.4-0.2,0.5-0.7,1-1l0,0c0,0,0.2,0,0.3-0.2c0.2,0,0.4,0,0.4-0.3v-0.5c0.3,0,0.3-0.3,0.2-0.5h0.3
		c0.3-0.2,0.4-0.5,0.5-0.7c0-0.3,0.2-0.6,0.6-0.8h0.2c0-0.5-0.3-0.8-0.7-0.7c-0.3,0-0.4,0-0.6,0.2c-0.4,0-0.4,0.3,0,0.5
		c0,0.4-0.4,0.6-0.4,1c-0.2,0-0.2,0.3,0,0.5c-0.3,0-0.4,0-0.6,0.2c-0.3,0-0.3,0.2-0.2,0.5c0,0-0.3,0-0.4,0.2c-0.4,0-0.4,0.3-0.4,0.6
		h-0.3c-0.2,0-0.3,0.3-0.2,0.6L28.2,37c-0.4,0-0.6,0.3-0.7,0.7c-0.2,0-0.5,0-0.7,0.2c-0.4,0-0.5,0.399-0.7,0.7
		c-0.7,0.3-1.4,0.6-2.2,0.699c0,0,0-0.199,0.2-0.3v-0.5h0.2l0.6-0.3c0.4,0,0.5-0.3,0.4-0.6c0.3-0.2,0.7-0.301,0.8-0.7
		c0.2-0.3,0.6-0.4,0.7-0.8v-0.2c0.3,0,0.4,0,0.6-0.2c0.3,0,0.3-0.2,0.3-0.5H28c0.3,0,0.4-0.3,0.2-0.6h0.4c0.3-0.2,0.3-0.4,0.2-0.7
		h0.4c0.4-0.2,0.4-0.4,0.3-0.7c0,0,0.3,0,0.2-0.4v-0.2c0.3,0,0.4,0,0.3-0.3h-0.2c-0.3,0-0.3,0.4-0.4,0.6c-0.2,0.2-0.2,0.3,0,0.5
		l-0.7,0.4c-0.4,0-0.2,0.3-0.3,0.5h-0.3c-0.3,0-0.4,0.2-0.4,0.5l-0.5,0.3c-0.4,0-0.6,0.2-0.6,0.6c-0.5,0-1,0.2-1,0.5l-0.7,0.5
		c-0.5,0-1,0.2-1,0.8c-0.3,0-0.4,0-0.6,0.2c-0.4,0-0.7,0.2-1,0.5c0,0.2-0.4,0.3-0.7,0.2c-0.3,0-0.6,0-1,0.2c-0.2,0-0.4,0-0.4-0.301
		h0.4c0.3,0,0.5-0.399,0.6-0.699c0.4,0,0.7-0.4,1-0.601c0-0.2,0.4-0.399,0.6-0.5c0.4,0,1,0,1.2-0.5c0-0.3,0.4-0.5,0.7-0.6
		c0.3,0,0.5,0,0.4-0.4l0.7-0.3c0.4,0,0.6-0.2,0.5-0.5l0.8-0.4l1.2-1.2c0-0.2,0.2-0.3,0.5-0.3c0-0.4-0.3-0.4-0.4-0.4h-1
		c0.2,0.3,0.4,0.3,0.4,0.5c0,0.3-0.3,0.3-0.5,0.4c-0.3,0-0.5,0.3-0.5,0.7L26,33.9c-0.3,0-0.3,0.3-0.4,0.5c-0.2,0-0.4,0-0.6,0.2
		c-0.3,0-0.6,0-0.7,0.5c0,0.2-0.2,0.2-0.3,0.2c-1,0.2-1.7,0.7-2.4,1.2c-0.4,0-0.7,0.2-1,0.5c-0.3,0.3-0.8,0.5-1.3,0.601h-1.7
		c-0.3,0-0.5,0-0.8,0.199h-0.3c-0.2-0.199-0.2-0.5,0-0.8c0.2,0,0.5-0.3,0.4-0.7c1-0.2,1.8-0.8,2.6-1.3l0.7-0.3h0.2l0.7-0.2
		c0.6-0.2,1-0.4,1.4-1c0.2,0,0.4,0,0.6-0.2c0.4,0,0.7-0.3,1-0.4c0.4,0,0.5-0.3,0.7-0.6l1-0.4c0,0,0.2,0,0-0.3c0-0.2,0,0-0.3,0
		c-0.5,0-1,0.3-1.5,0.5c-0.5,0-0.8,0.2-1,0.6c0,0,0,0.2-0.2,0.2l-0.6,0.2h-0.4c-1,0.4-2,0.7-2.8,1.5c-0.2,0-0.3,0.2-0.5,0.3
		l-2.2,0.7c-0.2,0-0.4,0-0.5,0.2c-0.2,0-0.4,0-0.5,0.2h-1c-0.3,0-0.5,0-0.6-0.2c0-0.2,0-0.3,0.2-0.3c0.3,0,0.4-0.3,0.6-0.5
		c0.2-0.3,0.5-0.5,0.8-0.5c2-0.6,3.7-1.2,5.5-2c1.4-0.5,2.5-1.4,4-1.6c0.3-0.3,0.7-0.3,0.6-0.5c0-0.2-0.5,0-0.8,0l-7,2.3
		c-0.2,0-0.5,0.2-0.7,0.5l-1.4,0.7c-1,0.6-2.2,0.6-3.5,0.2c0.3,0,0.5-0.3,0.6-0.4c0.3-0.5,0.7-0.6,1-0.8h0.7c1-0.5,2.2-1,3.3-1
		l1-0.5H19c0.6,0,1-0.2,1.7-0.4l3-1l0.6-0.3c0.3,0,0.5-0.2,0.7-0.3c0.2,0,0.2-0.3,0-0.5c0,0,0-0.2-0.2-0.2s-0.2,0.2-0.2,0.3
		c0,0.3-0.3,0.3-0.4,0.4c-1.4,0.4-2.8,1-4.4,1c-0.2,0-0.5,0-0.6,0.2l-2,0.7h-0.6c-0.5-0.2-1,0-1.4,0c-0.3,0-0.5,0.4-1,0.2
		c-0.2-0.2-0.4,0.3-0.7,0.3c-1,0-1.7,0.2-2.6,0h-0.2c-0.4-0.3-0.3-0.6,0.3-1c1.2-0.2,2.2-0.5,3.3-1h0.5c0-0.2,0.2-0.2,0.3-0.3h0.3
		c0.5,0.2,1,0,1.4,0l1.5-0.6c1-0.5,2.3-0.6,3.2-1.4c-0.5,0.2-1,0-1.4,0.2c-0.3,0.2-0.7,0.2-1,0.3c-0.7-0.3-1.2,0-1.8,0.3
		c-0.3,0-0.5,0-0.7,0.3l-1,0.2c-0.6,0-1.2,0-1.8,0.3h-0.3c0,0-0.2-0.4-0.5-0.3l-1.4,0.5h-0.3c-0.5,0-1-0.2-1.4,0.2
		c0,0-0.4,0.2-0.5,0c0-0.4,0.2-0.5,0.3-0.7h0.1c1.2-0.8,2.6-1.2,4-1.6h0.8c0.6,0,1-0.3,1.7-0.5h0.4c0.5,0,1,0,1.6-0.2
		c0.5-0.2,1-0.4,1.5-0.3h1c-0.4-0.2-0.6-0.2-0.6-0.6c0-0.2-0.2-0.2-0.3,0c-0.4,0-0.8,0-1.3,0.3c-0.3-0.4-0.7-0.3-1,0h-0.8
		c0,0,0,0.2-0.2,0.2h-0.4h-0.4h-0.4c-0.4,0-0.7,0-1,0.2c-0.7,0-1.4,0.3-2,0c-0.4-0.3-0.7,0-1,0.2h-2c-0.6,0-1,0.2-1.5-0.3l0,0
		c0.8-0.4,1.7-0.5,2.6-0.6c1.2-0.3,2.5-0.7,3.8-0.8c0.6,0,1.2,0,1.7-0.3c0.5,0.2,0.8,0,1.2,0c1-0.4,2-0.5,3-0.6c1,0,2.3-0.2,3.4,0
		c0.4,0,0.7-0.2,1-0.5c0-0.4,0.3-0.3,0.5,0c0.6,0.2,0.6,0.2,1-0.2c0.4-0.3,0.7-0.2,1,0c0,0.3,0.4,0.3,0.6,0c0.2-0.3,0.5-0.2,0.8,0
		c0,0,0.3,0.2,0.4,0c0.6-0.3,1,0,1.6,0c0.5,0,1.2,0.3,1.8,0c0.4,0.4,0.8,0,1,0c0.3,0.4,0.5,0,0.7,0h1.7c0.4,0,1,0.4,1.3,0
		c0.2,0.5,0.5,0,0.8,0.2h0.7c0,0.3,0.3,0,0.4,0c0.299,0,0.699-0.4,0.999-0.2h0.7c0,0.3,0.3,0.4,0.601,0.3c0,0.5,0.3,0.5,0.6,0.4
		c0,0.3,0,0.3,0.4,0.3v0.3c0.199,0.3,0.399,0.4,0.699,0.4c0.2,0,0.2,0.3,0.4,0.3c0.3,0.4,0.4,1,0.5,1.4c0,0.6,0,1,0.5,1.5v0.6
		c0,0.5,0.2,0.8,0.6,1h0.2c0,0.4,0.2,0.5,0.601,0.4c0,0.2,0,0.3,0.199,0.4c0,0.4,0.2,0.4,0.5,0.3c0,0.4,0.2,0.5,0.5,0.4
		c0.2,0,0.601,0,0.4-0.4c0-0.3-0.3,0-0.5,0c-0.2-0.4-0.4-0.4-0.7-0.4c0-0.2,0-0.4,0.3-0.4l0.4-0.2l1.3-0.4c0,0.4,0.601,0.3,1,0.6
		v-0.4c-0.399,0-0.6-0.4-1-0.3c0-0.2-0.2-0.3-0.399-0.2h-0.2c0.399-0.8,1-1,2-1c-0.5-0.3-0.5-0.3,0-0.6c0.2-0.2,0.3-0.3,0.3-0.6
		c0.2,0-4.7,1.8-3.4,5.5c0.4,0.8,1.4,0.5,1.4,0.8c-0.3,0,1.3,1.6,1,1.8c0,0.2,1-2-2.2,0.8c-0.2,0.3-2.399,3-2.7,3.2
		c-0.3,0.4-1.699,0-2.199,0.5l-0.5,0.4l-0.7,0.6l-0.601,0.8c0,0.2-0.8,0.2-0.999,0.301c-2,1.699-3.5-2.4-3.5-2.4H35.3z M46.3,35
		l0.4-0.2v-0.3c0,0,0-0.2-0.301,0c-0.3,0-0.6,0-1,0.2V35c0,0.2,0.2,0,0.301,0H46.1H46.3z"/>
	<path d="M34.2,39l-0.5,0.2c-1,0.4-2,1-3,1c0,0-0.2-0.3-0.5-0.3c0,0-0.2,0,0,0.3h-0.4c-0.4-0.3-0.8,0-1.2,0c-0.6,0.4-1.2,0.5-2,0.5
		l-1-0.4h-1.2c-0.7,0.2-1.2,0-1.5-0.6c0-0.4-0.4-0.5-0.7-0.3c-0.6,0.3-1,0.5-1.7,0.6c-0.8,0-1.2-0.2-1.5-1c0-0.2,0-0.2-0.3,0
		c-0.8,0-1.6,0-2.4-0.3c-1-0.4-0.8-0.4-0.7-1.4c0-0.399-0.2-0.399-0.3-0.3c-0.6,0.2-1.2,0-1.7,0s-1-0.6-1-1c0-0.4,0-0.5,0.2-0.6l0,0
		c0-0.3-0.2-0.3-0.3-0.2c-0.6,0-1.5-0.4-1.6-1.2c0-0.2,0.2-0.3,0.3-0.5c0.2,0,0.3,0,0.2-0.2h-0.3c-0.8-0.2-1.5-0.5-2-1.3
		c0-0.3,0-0.6,0.3-0.8c0.2,0,0.3-0.2,0.2-0.5c0-0.2-0.2,0-0.4,0c-0.5,0-1-0.4-1-1c-0.2-0.4,0-0.6,0.3-1l1-0.5c0,0,0.3,0,0.3-0.2
		l-0.4-0.2h-1c-0.4,0-1.4-0.5-1.6-1c-0.2-0.6,0.4-1.5,1-1.5c0.8,0,1.5,0,2.2-0.4c0.8-0.2,1.7-0.5,2.6-0.4c0.5,0,1-0.3,1.3-0.4
		c0.6-0.2,1-0.3,1.4-0.2h0.2c1.6-0.7,3.3-0.7,5-1l2.8-0.2c0.3,0,0.4-0.2,0.3-0.5v-0.4c0-0.3-0.2-0.4-0.4-0.5
		c-0.6-0.2-0.7-0.7-0.8-1.3c0,0,0-0.2,0.2-0.3c0.5-0.4,1-0.6,1.5-0.6h4.6c1,0,2,0,3,0.2h0.8c0.6,0,1.3,0.2,2,0
		c0.3,0,0.5,0.2,0.7,0.3c0.4,0.3,0.8,0.3,1.2,0.3c0.6,0,1,0.4,1.7,0.2H38.4c0.399,0.4,0.699,0.5,1.199,0.4h0.7
		c0.4,0.3,1,0.3,1.4,0.5c0.5,0.3,1,0.4,1.6,0.5c0.2,0,0.3,0,0.4,0.2c0.399,0.2,0.6,0.3,1,0.2H45.1l1.2,0.6c0.6,0,1,0.5,1.4,1
		c0.5,0.7,0.8,1.5,0.8,2.4c0,0.3,0,0.6-0.2,0.8c0,0.2-0.2,0.4,0,0.6h0.4c0.3,0,0.5,0,0.6-0.4c0-0.2,0.4-0.4,0.7-0.4
		c0,0.4,0,0.5-0.2,0.7c-0.5,0.3-0.5,0.3,0,0.6c-1,0-1.6,0.2-2,1c-0.2,0-0.4,0-0.5,0.2c-0.3,0-0.4,0.2-0.3,0.5c-0.2,0-0.3,0-0.4,0.2
		c-0.3,0-0.399,0.2-0.3,0.4l-0.4,0.2L45.7,29.9c0-0.4-0.2-0.4-0.601-0.3l-0.2-0.6l0.2-0.2c0.2,0.4,0.5,0.4,0.8,0.2
		c0.301-0.2,0.601-0.3,0.801-0.6c0.199-0.2,0.6-0.3,0.5-0.6c0-0.5-0.2-1,0.199-1.4c0.5-0.6,0-1.3-0.199-2c0-0.2-0.2-0.4-0.5-0.3
		c-0.2,0-0.301,0-0.4-0.3c0-0.2,0-0.4-0.3-0.3l-0.7-0.4c0-0.3-0.3-0.3-0.5-0.2h-0.6l-3-1h-0.5c0-0.4-0.301-0.3-0.5-0.3
		c0-0.2-0.301-0.2-0.601,0c-0.2,0-0.3,0-0.5-0.2c-0.199,0-0.6-0.3-1-0.3h-0.8c-0.5-0.5-1-0.4-1.7-0.5l-2.5-0.3h-2.3
		c-0.6-0.2-1.2-0.2-1.8-0.2h-4.2h-0.2c0-0.2-0.4-0.2-0.6-0.2c-0.2,0-0.4,0-0.5,0.2v0.6c0.2,0.3,0.4,0.2,0.6,0c0.3,0.2,0.4,0,0.6,0.2
		c0.3,0.2,0.6,0.5,1,0.4c0.2,0,0.3,0.2,0.2,0.4c0,0.2-0.3,0.3-0.5,0.3c-0.2,0-0.2,0.3-0.2,0.5c0.2,0.2,0.3,0.3,0.5,0.2
		c0.7-0.2,1.4,0,2.2,0c1-0.2,1.8,0,2.8-0.2h5.1c1,0,1.8,0.3,2.7,0h0.199c0.5,0.2,1.001,0.2,1.601,0.3c0.6,0,1.2,0.2,1.8,0.5
		c0.3,0,0.7,0,0.7,0.5c0,0.4,0.2,0.5,0.5,0.4c0,0,0,0.2,0.2,0.3c0,0.4,0.3,0.7,0,1c-0.2,0-0.2-0.2-0.3-0.3c0-0.4,0-0.5-0.5-0.4v-0.3
		c0-0.4-0.301-0.5-0.601-0.3c-0.2-0.3-0.399-0.4-0.7-0.3c0-0.3-0.3-0.3-0.6,0c-0.2,0-0.4,0-0.6-0.2c-0.301-0.2-0.7,0-1.001,0
		c0,0,0-0.2-0.399-0.2c0,0-0.2,0,0,0.3H38c-0.3-0.4-0.6-0.5-0.8,0c-0.5,0.2-1,0-1.3,0h-2.1c0-0.3-0.2-0.4-0.4-0.4
		c-0.3-0.2-0.3,0-0.3,0.2c-0.3,0-0.7,0.4-1,0c-0.7,0.3-1.4,0-2,0c-0.5,0-1-0.3-1.5,0c0,0.2-0.3,0-0.4,0c-0.3-0.3-0.6-0.3-0.8,0
		c-0.2,0.3-0.5,0.3-0.7,0c-0.3-0.3-0.6-0.3-1,0c-0.4,0.4-0.4,0.4-1,0c0,0-0.3-0.2-0.5,0c-0.2,0.4-0.5,0.5-1,0.5h-3.4
		c-1,0.2-2,0.3-2.8,0.6c-0.4-0.5-1-0.4-1,0c-0.6,0.4-1.3,0.3-1.8,0.4c-1.3,0-2.6,0.5-4,0.8c-0.7,0-1.6,0.2-2.4,0.5
		c0,0-0.4,0-0.3,0.3c0,0.3,0.2,0,0.4,0c0.5,0.5,1,0.3,1.5,0.3h1.2c0.3,0.2,0.6,0.2,0.8,0l0.6,0.3c0.3,0,0.5,0,0.5-0.3
		c0.7,0.2,1.4,0,2,0c0.2,0,0.5-0.2,0.5,0c0,0.2-0.2,0.3-0.3,0.4l-0.9-0.2c-1.4,0.3-2.8,0.7-4,1.4H9.6c0,0.3-0.4,0.4-0.3,0.7
		c0,0.4,0.4,0.2,0.6,0.2c0.2,0.2,0.3,0.3,0.5,0.2c0.4,0,0.7,0,1-0.2c0,0,0.2,0,0.3-0.2c0.7,0.3,1.3,0,2-0.2h0.1
		c0.2,0.5-0.3,0.5-0.6,0.6H13c-0.8,0.3-1.7,0.5-2,1.2c-0.7,0.3-0.8,0.6-0.4,1h2.7c0.3,0,0.5-0.6,0.8-0.4c0.4,0.2,0.6,0,1,0
		c0,0.2,0,0.3-0.3,0.4l-1,0.3c-0.2,0.2-0.3,0.3-0.3,0.5c-0.4,0.2-0.8,0.3-1,0.8c-0.2,0-0.4,0.2-0.6,0.4c1.4,0.4,2.5,0.4,3.6-0.2
		c0,0,0,0.2,0.2,0.3c0,0,0,0.3-0.2,0.4c-0.3,0-0.6,0.2-0.8,0.5c-0.2,0.2-0.3,0.4-0.6,0.5c-0.2,0-0.3,0-0.2,0.3
		c0,0.2,0.2,0.3,0.4,0.3h1c0.3,0,0.5,0,0.6-0.3l0.5-0.2l0.2,0.2c0.3,0,0.4,0.3,0.3,0.6c-0.4,0-0.2,0.4-0.4,0.601c0,0-0.2,0-0.3,0.2
		c-0.2,0.199,0,0.5,0,0.8h0.7c0.3,0.3,0.4,0.3,0.8-0.2h1.7l1.4-0.7c0-0.3,0.4-0.399,0.8-0.5l1.2-0.3c0-0.2,0.2-0.3,0.4-0.2L23,36.4
		c-0.2,0-0.5,0.3-0.6,0.5c-0.3,0.2-0.6,0.5-1,0.6c-0.3,0-0.5,0-0.8,0.2c-0.3,0-0.4,0.3-0.2,0.6c-0.2,0.2-0.6,0.2-0.3,0.5
		c0.2,0.2,0.6,0.4,1,0.2l2.4-0.8c0.3,0,0.6-0.4,0.7,0v0.2c-0.6,0-0.5,0.3-0.6,0.6c0,0-0.2,0.2,0,0.3c0,0.2,0.2,0,0.3,0
		c1,0,1.6-0.3,2.3-0.6c0.2,0,0.4,0,0.7-0.2c0.2,0.3-0.3,0.3-0.2,0.5c-0.3,0-0.4,0.2-0.3,0.5c0,0.3,0.3,0.5,0.6,0.3h0.2
		c0.5,0.4,1.7,0,2-0.699h0.2l0.6-0.2v0.3c0,0.3,0.3,0.4,0.7,0.2h0.5c0.6,0.3,1.6,0,2-0.8h0.2L34,38.3c0.2,0,0.5,0,0.8-0.199h0.5
		c0,0.199,0.2,0.199,0.4,0.199c0.2,0.2,0.5,0.301,1,0c0,0.4,0,0.4-0.3,0.5c-0.2,0-0.5,0-0.6,0.4c0,0-1.2,0-1.4-0.2H34.2z"/>
	<path d="M30.2,40.2v-0.3c0.4,0,0.5,0.2,0.6,0.3C30.6,40.2,30.4,40.601,30.2,40.2z"/>
	<path d="M50.2,25.7c0,0.2,0,0.4-0.301,0.6c0-0.2,0-0.4,0.4-0.5L50.2,25.7z M15.4,34.4c0,0,0-0.3,0.2-0.4c0.4-0.3,1-0.4,1.6-0.6
		l1-0.6h-0.8c0,0.2-0.3,0.3-0.5,0.2c0.3-0.3,0.6-0.4,1-0.5l6.8-2.3c0.3,0,0.7-0.2,0.8,0c0,0.3-0.3,0.3-0.5,0.5
		c-1.5,0.3-2.6,1.2-4,1.7c-1.7,0.8-3.5,1.4-5.4,2H15.4z"/>
	<path d="M13.5,32.7c0-0.2,0-0.3,0.3-0.4c0.3,0,0.6-0.2,1-0.4c0.2,0,0.3-0.2,0.2-0.5c0.4,0,1-0.2,1.4,0h0.5l2.2-0.8
		c0.2,0.3,0,0.4-0.2,0.6c0,0-0.3,0-0.4,0.2l-1,0.4c-1,0-2.2,0.6-3.3,1h-0.6L13.5,32.7z M15.9,31.7h0.2l2-0.7l-2,0.6L15.9,31.7z
		 M24.2,38.2c0-0.4-0.4,0-0.7,0v-0.5l0.5-0.2c0.2,0,0.3,0,0.5-0.2c0.2,0,0.6,0,0.6-0.5c0.3-0.199,0.5-0.3,0.6-0.6
		c0-0.4,0.5-0.5,1-0.6h0.4l0.2,0.2L26.8,36c-0.2,0.5-0.6,0.601-0.8,1c0,0.3-0.5,0.4-0.8,0.601c-0.3,0-0.4,0.199-0.4,0.5h-0.6V38.2z"
		/>
	<path d="M23,36.4c0-0.2,0.3-0.2,0.2-0.4h-0.4c-0.5,0.2-0.8,0.5-1.2,0.4c0.7-0.5,1.5-1,2.4-1.3c0,0,0.2,0,0.3-0.3
		c0-0.4,0.4-0.4,0.7-0.5c0,0,0,0.3,0.2,0.4c0,0.3,0,0.5-0.3,0.5c-0.2,0.2-0.5,0.4-0.6,0.7C24,36.3,23.5,36.3,23.1,36.4H23z"/>
	<path d="M39.5,36.8l2.8-1h0.3v0.3c-0.399,0.2-1,0.5-1.5,1c-0.5,0.399-1,0.5-1.7,0c0.301,0,0.4-0.2,0-0.4L39.5,36.8z"/>
	<path d="M16.8,26h0.7c0,0,0.2,0.2,0.5,0h0.5c0.5-0.3,1-0.4,1.4-0.5h0.4c0,0.5,0.2,0.5,0.6,0.6h-1c-0.4,0-1,0-1.4,0.3
		c-0.5,0.2-1,0.3-1.7,0c0,0,0.2-0.2,0-0.5V26z"/>
	<path d="M18.4,31.2c0-0.2,0.3-0.2,0.4-0.2c0.3-0.2,0.4-0.3,0.2-0.6l0.6-0.2c1.6,0,3-0.6,4.4-1v0.3l-0.6,0.2c0-0.2,0-0.2-0.3,0
		l-2.5,0.7c0,0-0.2,0.2,0,0.4l-1.8,0.4H18.4z M22.4,33.4c-0.3,0.6-0.8,0.8-1.4,1c-0.2,0-0.5,0-0.7,0.2c0-0.2,0.2-0.2,0-0.3H20
		c0,0-0.3,0-0.4,0.3H19c0.8-0.8,1.8-1,2.8-1.4l0.4-0.2c0,0.3-0.4,0-0.5,0.5c0,0,0.4-0.2,0.6,0L22.4,33.4z"/>
	<path d="M17.3,28.2c0.6-0.2,1-0.6,1.8-0.3c0,0.3-0.4,0.3-0.6,0.4c-0.2,0.2-0.6,0.2-0.8,0.5h0.5l-1.5,0.6c-0.5,0.3-1,0.4-1.4,0.2
		c0.2-0.2,0.5,0,0.7-0.4c0.2,0,0.4,0,0.6-0.2c0,0,0.3,0,0.5-0.2c0.3,0,0.2-0.2,0-0.4L17.3,28.2z"/>
	<path d="M43.2,24.9c0.3-0.3,0-0.6,0-1c0.199,0,0.399,0.2,0.5,0.4c0.199,0.7,0.6,1.3,0.399,2v1c0,0.2,0.2,0.4,0,0.5
		c-0.3-0.4-0.5-1-0.5-1.4c-0.2-0.4-0.3-1-0.6-1.3L43.2,24.9z"/>
	<path d="M16.8,36.2c0-0.2,0-0.4-0.3-0.5l-0.2-0.2l2.2-0.7c0,0.4-0.5,0.2-0.7,0.5L19,35c0,0,0.3-0.2,0.4,0c-0.8,0.5-1.6,1-2.5,1.3
		L16.8,36.2z"/>
	<path d="M33.2,34.2v-0.7c-0.2,0,0,0,0,0c0.3-0.2,0.6-0.3,0.7,0c0.2,0,0.3,0.3,0.3,0.5v0.2c0,0-0.2,0-0.3,0.2c0,0.8-0.6,1.3-1.2,2
		V36c0.2,0,0.3-0.3,0.2-0.6c0.3,0,0.4-0.3,0.2-0.6c0.5,0,0.5,0,0.2-0.5L33.2,34.2z"/>
	<path d="M18.3,28.8c-0.2-0.2-0.4,0-0.6,0c0-0.4,0.5-0.4,0.7-0.5c0.2,0,0.5,0,0.6-0.3c0.3,0,0.7,0,1-0.3c0.4-0.2,1,0,1.4-0.2
		c-1,0.8-2.2,1-3.2,1.4L18.3,28.8z"/>
	<path d="M28.8,32.2c-0.3,0-0.4,0-0.5,0.2l-1.2,1.2c0,0,0-0.3-0.3-0.3c0-0.3,0.2-0.5,0.5-0.6c0.2,0,0.4,0,0.5-0.3c0,0-0.2,0-0.4-0.3
		h1c0,0,0.3,0,0.4,0.2V32.2z"/>
	<path d="M13.8,27.2l0.7-0.3l0.3-0.3c0-0.2-0.3,0-0.4-0.2c0.3,0,0.6-0.3,1-0.3h0.4c0,0.4-0.3,0.3-0.2,0.6c0.2,0,0.4-0.3,0.7,0
		c-0.6,0-1,0.4-1.7,0.5H13.8z"/>
	<path d="M10.8,30.8c0.5-0.7,1.4-1,2.2-1l0.2-0.2c0.3,0.3,0.6,0,1,0c-1.4,0.6-2.4,1.1-3.4,1.3V30.8z"/>
	<path d="M23.5,37.7v0.4L21.1,38.8c-0.4,0.2-0.8,0-1-0.199c-0.3-0.301,0-0.301,0.3-0.4c0,0.4,0.2,0.5,0.5,0.4c0.4-0.2,0.7-0.2,1-0.2
		c0.3,0,0.6,0,0.8-0.2c0.2-0.3,0.5-0.4,1-0.5H23.5z"/>
	<path d="M30.5,39.4c-0.4,0.2-0.6,0-0.6-0.3v-0.5c0,0,0-0.2-0.2-0.301c0,0,0.2,0,0.3-0.199c0.5,0,0.6-0.2,0.6-0.601
		c0.2,0,0.4,0,0.5-0.2c0.4,0,0.4,0.2,0.5,0.4c-0.2,0-0.3,0-0.4,0.3c0,0,0,0.2-0.2,0.3c-0.4,0-0.5,0.301-0.3,0.7l0.2,0.2L30.5,39.4z
		 M14.1,29.7c-0.3,0-0.6,0.2-1,0c0.4-0.2,1-0.2,0.7-0.7c0.6-0.3,1.2-0.4,2-0.3c-0.3,0.4-0.7,0.3-1,0.5c-0.2,0-0.2,0.2,0,0.4h-0.7
		V29.7z"/>
	<path d="M34.2,34.2V34h0.3c0.4,0.3,1,0,1.3,0l1-0.4c0.2,0,0.4-0.2,0.5,0c0,0.3-0.2,0.3-0.4,0.4c-0.6,0.4-1.5,0.4-2.3,0.4
		c-0.2,0-0.3,0-0.3-0.2H34.2z"/>
	<path d="M35.6,39.2c0-0.5,0.4-0.4,0.6-0.5c0.2,0,0.4,0,0.2-0.4l0.2-0.399c0.2,0,0.4,0,0.6-0.2c0.3,0,0.6-0.2,0.8-0.3
		c0,0.2,0,0.399,0.199,0.5c-0.199,0-0.299,0-0.399,0.2c-0.5,0-1,0.3-1,0.8c-0.5,0-0.8,0.2-1.2,0.399V39.2z"/>
	<path d="M32.2,33.2c-0.4,0.2-0.5,0.5-0.6,0.8c0,0.2-0.2,0.5-0.5,0.6c0-0.2,0-0.3-0.2-0.4c0-0.4,0.4-0.6,0.3-1
		C31.6,33.2,32,32.8,32.2,33.2z"/>
	<path d="M16.8,33h0.6l0.7-0.2c-0.3,0.3-0.6,0.4-1,0.6L15.6,34c0,0,0-0.2-0.2-0.3l1.5-0.7H16.8z"/>
	<path d="M20.5,30.8v-0.4l2.6-0.8h0.3c-1,0.5-2,1-3,1.2H20.5z"/>
	<path d="M24,32l1.5-0.6h0.4c0.2,0.3,0,0.4,0,0.4c-0.5,0-0.8,0.3-1,0.4c-0.4,0-0.8,0.4-0.8-0.2H24z"/>
	<path d="M26.6,38.9c0-0.2,0.4-0.2,0.2-0.5v-0.5c0.2,0,0.5,0,0.7-0.2c0.2,0,0.5-0.2,0.6,0.2c0,0-0.3,0-0.4,0.2
		c-0.4,0-0.5,0.199-0.5,0.399l-0.7,0.3L26.6,38.9z"/>
	<path d="M32.2,33.2c-0.3-0.4-0.7,0-1,0c-0.4-0.2-0.4-0.4,0-0.5l0.6-0.2c0.3,0,0.7,0.2,0.6,0.6h-0.2V33.2z"/>
	<path d="M29.3,33.2v-0.4c0.2-0.2,0.2-0.5,0.6-0.6h0.5c0,0.4,0,0.4-0.2,0.4v0.2c0,0.3-0.2,0.4-0.4,0.4s-0.4,0-0.5,0.2V33.2z
		 M13.5,29c-0.6,0.3-1.2,0.5-2,0.2l1.5-0.5C13.3,28.7,13.4,28.9,13.5,29z"/>
	<path d="M29.1,39c-0.4,0.7-1.6,1-2,0.7L29.1,39z"/>
	<path d="M29.8,36v0.3c-0.5,0.301-0.6,0.801-1,1c0,0,0-0.3-0.2-0.399c0-0.3,0-0.5,0.3-0.5h0.4l0.6-0.2L29.8,36z"/>
	<path d="M32.8,38.601c-0.2,0.699-1.2,1-1.8,0.699c0.6,0,1.2-0.399,2-0.6L32.8,38.601z"/>
	<path fill="#CBFEFE" d="M44.3,27.7v-0.5c0-0.3-0.2-0.6,0-1c0.2,0.8,0.3,1.6,0.7,2.2l-0.2,0.2l-0.4-0.3v-0.5L44.3,27.7z"/>
	<path d="M24,32c0,0.6,0.4,0.2,0.7,0.2c-0.3,0.3-0.4,0.6-0.8,0.6c0-0.3-0.2-0.3-0.5-0.3h-0.5c0.2-0.3,0.5-0.5,1-0.5H24z"/>
	<path d="M27.2,35.5h-0.4c0-0.3,0-0.4,0.5-0.5c0.2,0,0.4-0.2,0.5-0.3l0.3,0.5h-0.3L27.2,35.5z"/>
	<path d="M46.2,35h-0.4c0,0-0.3,0.2-0.3,0v-0.3c0.399,0,0.7-0.2,1-0.3h0.399v0.4h-0.6V35H46.2z"/>
	<path fill="#5F5857" d="M14.8,29.6c-0.2-0.2-0.2-0.3,0-0.4c0.3-0.2,0.7,0,1-0.5c0.2,0,0.5,0,0.8-0.2v0.3L16.1,29
		c-0.4,0-0.8,0-1,0.4c0,0-0.3,0-0.4,0.2H14.8z"/>
	<path d="M46.8,29.2c0-0.3,0-0.5,0.3-0.5c0.2,0,0.3-0.2,0.5-0.3c0.3,0,0.4,0,0.5,0.3L46.8,29.2z M28.1,37.9c0-0.4-0.4-0.3-0.6-0.2
		c0-0.4,0.3-0.7,0.7-0.7l0.3,0.4C28.5,37.7,28.5,37.9,28.1,37.9z"/>
	<path d="M24.1,29.5v-0.3c0,0,0.3,0,0.3-0.4c0,0,0-0.3,0.2-0.3c0.2,0,0.3,0,0.3,0.2c0.2,0.2,0.2,0.4,0,0.5c-0.2,0-0.4,0.3-0.7,0.3
		H24.1z M30.8,34.7c0,0.2,0,0.4-0.2,0.5v0.3c0,0.2-0.3,0.3-0.5,0.3v-0.4c-0.2-0.3-0.2-0.4,0-0.5c0.3,0,0.4,0,0.6-0.2H30.8z"/>
	<path fill="#5F5857" d="M19.4,34.9c0-0.2-0.3,0-0.4,0c-0.4,0-0.8,0.2-1.2,0.4c0.2-0.2,0.7,0,0.7-0.4c0.2,0,0.3-0.2,0.5-0.3h0.6
		c0,0,0.4-0.2,0.5,0L19.4,35V34.9z"/>
	<path d="M23,32.6h0.5c0.3,0,0.5,0,0.5,0.2c-0.3,0-0.6,0.3-1,0.4c0-0.2,0-0.3-0.2-0.4C22.8,32.8,23,32.8,23,32.6z"/>
	<path d="M11.3,29.2c-0.3,0.3-0.6,0.4-1,0.4c-0.2,0-0.3,0-0.4-0.2c0.6-0.4,1-0.2,1.5,0L11.3,29.2z"/>
	<path d="M43.399,35.4c0.4,0,0.7-0.2,1-0.3c0,0,0,0.2,0.2,0.3l-1,0.4C43.6,35.6,43.6,35.5,43.399,35.4z"/>
	<path fill="#5F5857" d="M16.3,26.7c-0.3-0.2-0.5,0-0.7,0c0-0.2,0.3,0,0.2-0.4h0.4c0.2,0,0.4,0.2,0.4,0l0.3-0.2c0.2,0.3,0,0.4,0,0.6
		h-0.5H16.3z"/>
	<path d="M38.199,37.7c0,0,0-0.3-0.199-0.4c0.4,0,0.5,0,0.3-0.399c0.3-0.3,0.5,0,0.8,0c-0.3,0.3-0.8,0.3-0.3,0.7
		c-0.2,0-0.399,0-0.601,0.199V37.7z"/>
	<path d="M42.6,35.8h-0.3c0,0,0-0.3,0.2-0.4c0.3-0.4,0.6-0.4,1,0l-1,0.4H42.6z"/>
	<path d="M38.8,37.5c-0.5-0.399,0-0.399,0.3-0.6h0.4c0.3,0,0.2,0.3,0,0.399l-0.7,0.301V37.5z"/>
	<path fill="#5F5857" d="M22.8,32.8l0.2,0.4c-0.2,0-0.4,0-0.6,0.2h-0.6c0-0.3,0.3,0,0.4-0.4C22.4,33,22.6,33,22.8,32.8z"/>
	<path d="M30.8,39.2H31l-0.5,0.2l-0.2-0.2c-0.2-0.4,0-0.6,0.3-0.7c0,0.3,0.2,0.5,0.3,0.7H30.8z"/>
	<path d="M28.1,35.2c0-0.2-0.2-0.4-0.3-0.5c0-0.3,0-0.5,0.4-0.5v0.4c0.3,0.3,0.2,0.5,0,0.6H28.1z"/>
	<path d="M26.8,33.2c0.2,0,0.2,0.3,0.3,0.4L26.3,34c-0.2,0-0.2-0.3-0.3-0.4c0.3,0,0.6-0.2,0.8-0.3V33.2z"/>
	<path d="M48.1,28.8c0.4-0.2,0.601,0.2,1,0.2v0.5c-0.399-0.3-1-0.2-1-0.6V28.8z"/>
	<path d="M26,33.6c0,0,0,0.3,0.3,0.4c0,0.3,0,0.5-0.4,0.5c0,0,0-0.3-0.2-0.4c0-0.3,0-0.6,0.4-0.6L26,33.6z"/>
	<path d="M31.3,37.8c0-0.199,0-0.399-0.4-0.399c0.2-0.2,0.2-0.5,0.6-0.601c0,0.2,0,0.301,0.2,0.4c0,0.3,0,0.5-0.3,0.6H31.3z"/>
	<path d="M23.8,39.2c0,0,0,0.2-0.3,0l0,0c0.2-0.3,0-0.7,0.6-0.6v0.5c-0.3,0-0.2,0.3-0.2,0.399L23.8,39.2z"/>
	<path d="M25.1,36.7c0,0.4-0.4,0.5-0.6,0.6L24,37.601c0-0.601,0.6-0.7,1-0.801L25.1,36.7z"/>
	<path d="M36.8,38.7c0-0.5,0.5-0.7,1-0.8C37.6,38.4,37.2,38.601,36.8,38.7z"/>
	<path d="M34.6,38c-0.3,0-0.6,0.2-0.8,0.3c0,0,0-0.199-0.2-0.3C34,38,34.3,37.5,34.6,38z"/>
	<path d="M32.5,36v0.3c0,0.301,0,0.2-0.2,0.301c-0.2,0-0.3,0-0.5,0.199c0-0.3,0-0.5,0.2-0.6L32.5,36z"/>
	<path d="M25.6,34.2c0.2,0,0.2,0.2,0.3,0.3l-0.6,0.3c-0.2,0-0.2-0.3-0.2-0.4l0.6-0.3L25.6,34.2z"/>
	<path d="M42.6,35.8l0.8-0.3l0.2,0.4l-1,0.2v-0.4V35.8z"/>
	<path d="M12.3,26.5c0,0.3-0.2,0.3-0.4,0.3c0,0-0.3,0-0.5-0.2c0.4-0.2,0.7-0.5,1,0L12.3,26.5z"/>
	<path d="M16.5,37.7c0,0-0.3,0.2-0.4,0c0-0.2-0.2-0.5,0-0.7l0.3-0.2v1L16.5,37.7z"/>
	<path d="M18.5,25.9c-0.2,0-0.4,0-0.5,0.2c-0.3,0-0.4,0-0.5-0.3c0.3-0.3,0.7-0.4,1,0V25.9z"/>
	<path d="M36.6,37.8l-0.2,0.5c-0.4,0.301-0.7,0.2-1,0c0.4,0,0.8-0.199,1.2-0.399V37.8z"/>
	<path d="M26.8,39.7c-0.2,0.2-0.4,0-0.5-0.3c0-0.3,0-0.4,0.3-0.5V39.3l0.3,0.5L26.8,39.7z"/>
	<path d="M44.6,35.5c0,0,0-0.3-0.2-0.4l0.5-0.2h0.4c0,0.3,0,0.4-0.2,0.4H44.7L44.6,35.5z"/>
	<path d="M16.8,28.8c0,0,0-0.2-0.2-0.3c0.2-0.2,0.4-0.2,0.7-0.3c0.2,0.2,0.3,0.3,0,0.4c-0.2,0-0.4,0.3-0.6,0.2H16.8z"/>
	<path d="M15.8,24.2c0.3-0.4,0.8-0.5,1.2,0c-0.4,0-0.7,0.2-1,0H15.8z"/>
	<path d="M29,33.9c0,0.3,0,0.5-0.3,0.5c0,0,0-0.3-0.3-0.3c0-0.3,0-0.6,0.2-0.6c0,0,0,0.3,0.2,0.3L29,33.9z"/>
	<path d="M44.399,28.2c0,0.2,0.2,0.3,0.4,0.4v0.5c-0.3-0.2-0.6-0.5-0.6-1h0.199V28.2z"/>
	<path d="M38,37.2l-0.8,0.4c0.2-0.301,0.3-0.7,0.7-0.7c0.2,0,0.2,0.3,0.2,0.399L38,37.2z M29,33.9c-0.2,0-0.2-0.2-0.3-0.3l0.5-0.3
		v0.6h-0.3H29z"/>
	<path d="M20.6,37.7c0.3,0,0.5,0,0.8-0.2c0,0.3-0.3,0.601-0.6,0.601c0-0.2,0-0.301-0.2-0.5V37.7z"/>
	<path d="M26.8,37.9v0.5c-0.3,0-0.5,0-0.7,0.2C26.3,38.3,26.4,38,26.8,37.9z"/>
	<path d="M36.8,23.2c0.2-0.5,0.5-0.4,0.8,0C37.3,23.2,37,23.5,36.8,23.2z"/>
	<path d="M33.1,23c0-0.2,0-0.4,0.3-0.2c0.2,0,0.3,0,0.3,0.3c-0.3-0.2-0.5,0.2-0.7-0.2L33.1,23z"/>
	<path d="M46.8,30.2c0,0,0.3-0.3,0.4,0c0.199,0.3-0.2,0.3-0.4,0.4V30.2z"/>
	<path d="M45,29.2c0.399,0,0.6,0,0.6,0.4c-0.399,0-0.5,0-0.6-0.3V29.2z"/>
	<path d="M46.1,29.9c0.3,0,0.5,0,0.601,0.2h-0.5c0,0,0-0.2-0.2-0.3L46.1,29.9z"/>
	<path d="M17.6,37.601c-0.4,0.5-0.5,0.5-0.8,0C17.1,37.4,17.3,37.601,17.6,37.601z"/>
	<path d="M26.8,39.2c0,0-0.2,0-0.2-0.3c0.2,0,0.4,0,0.6-0.2c0,0.3-0.2,0.5-0.5,0.6L26.8,39.2z"/>
	<path d="M33.6,37.9c0,0,0,0.3,0.2,0.399l-0.6,0.301c0-0.301,0-0.601,0.4-0.601V37.9z M29.6,38.4c0,0,0,0.2,0.2,0.3l-0.6,0.2
		C29.2,38.601,29.2,38.4,29.6,38.4z"/>
	<path d="M20.1,34.6c0-0.3-0.4,0-0.5,0c0-0.3,0.3-0.3,0.4-0.4h0.4c0,0.2-0.2,0.2,0,0.4H20.1z"/>
	<path d="M30.4,37.601c0,0.399,0,0.6-0.5,0.6c0-0.3,0.2-0.6,0.6-0.6H30.4z M29.8,36c-0.2,0-0.4,0-0.6,0.2c0-0.3,0-0.6,0.4-0.6V36
		H29.8z"/>
	<path d="M31.6,37.2l-0.2-0.4h0.4l0.2,0.301h-0.4V37.2z"/>
	<path d="M28.5,34.2c0.2,0,0.2,0,0.2,0.3h-0.5v-0.3h0.2H28.5z"/>
	<path d="M38.3,23.2c0-0.3,0-0.3,0.2-0.4c0.199,0,0.199,0.2,0.199,0.3c-0.199,0-0.399,0.3-0.5,0L38.3,23.2z"/>
	<path d="M29.8,36l-0.2-0.4c0,0,0.3,0,0.4-0.2v0.4L29.7,36H29.8z"/>
	<path d="M38,37.2v-0.3h0.3c0.2,0.2,0,0.3-0.3,0.399V37.2z"/>
	<path d="M30.8,34.2c0.2,0,0.2,0.2,0.3,0.4h-0.3C30.6,34.6,30.6,34.3,30.8,34.2z"/>
	<path d="M16.4,36.9c0.2-0.3,0-0.601,0.4-0.601c0.2,0.4,0,0.601-0.4,0.7V36.9z"/>
	<path d="M41.1,23.2c0.3,0,0.5,0,0.601,0.4c-0.4,0-0.601,0-0.7-0.3L41.1,23.2z"/>
	<path d="M15.1,29.4c0.2-0.3,0.6-0.4,1-0.4c-0.2,0.3-0.5,0.2-0.7,0.3c0,0.2-0.2,0.2-0.3,0.2V29.4z"/>
	<path d="M28.5,37.4L28.2,37l0.4-0.2c0,0,0,0.301,0.2,0.4C28.8,37.2,28.6,37.2,28.5,37.4z"/>
	<path d="M20.6,37.7c0,0.2,0,0.3,0.2,0.4h-0.4c-0.2-0.2,0-0.4,0.2-0.5V37.7z"/>
	<path d="M32.5,36H32c0-0.2,0-0.4,0.4-0.4V36H32.5z"/>
	<path d="M24.8,38.2c0-0.4,0-0.6,0.4-0.6c0,0.3,0,0.5-0.4,0.5V38.2z"/>
	<path d="M42.3,24.2c0.4,0,0.6,0,0.6,0.4c-0.199,0-0.399,0-0.5-0.4H42.3z"/>
	<path d="M27.3,38.601c0-0.2,0-0.5,0.4-0.5c0,0.199,0,0.399-0.5,0.399L27.3,38.601z"/>
	<path d="M31.8,37.2v-0.5c0.2,0,0.3,0,0.5-0.2c0,0.3,0,0.5-0.4,0.601L31.8,37.2z"/>
	<path d="M32.5,36v-0.4l0.3-0.2C32.8,35.7,32.8,35.9,32.5,36z"/>
	<path d="M46.3,30.2h0.4v0.4c-0.301,0-0.4,0-0.5-0.3L46.3,30.2z"/>
	<path d="M40.5,23.2c0.3-0.3,0.5-0.3,0.6,0C40.8,23.4,40.6,23.2,40.5,23.2z"/>
	<path d="M41.8,23.6c0.2-0.2,0.4,0,0.4,0.3c-0.301,0-0.5,0-0.5-0.3H41.8z"/>
	<path d="M33.2,34.2c0.3,0.5,0.3,0.5-0.2,0.6c0-0.2,0-0.4,0.2-0.5V34.2z"/>
	<path d="M29.4,33.8v-0.4c0,0,0.2,0,0.3-0.2c0,0.3,0,0.5-0.4,0.6H29.4z M46.1,29.9c0,0,0,0.3,0.2,0.4c-0.3,0.2-0.5,0.2-0.5-0.2h0.3
		V29.9z"/>
	<path d="M27.2,35.5c0.2,0,0.3,0,0.5-0.2c0,0.4,0,0.6-0.4,0.6c0,0,0-0.2-0.2-0.3L27.2,35.5z"/>
	<path d="M33,34.8c0.2,0.3,0,0.5-0.2,0.6C32.6,35.1,32.8,34.9,33,34.8z"/>
	<path d="M7.8,26.2c0,0-0.3,0.3-0.3,0C7.5,26,7.7,26,7.8,26v0.3V26.2z"/>
	<path d="M16.6,26.2c0,0.2-0.2,0-0.4,0H16.6z"/>
	<path d="M15.8,35.7c0,0.3-0.3,0.4-0.5,0.2L15.8,35.7z M47.8,28.5h-0.2H47.8z"/>
	<path d="M28.8,32.2"/>
	<path fill="#FFFFFF" d="M44.8,28.6l-0.4-0.5v-1c-0.199-0.2,0-0.7-0.199-1c0.199-0.7-0.2-1.3-0.5-2L43.1,23.8c0,0,0-0.2-0.2-0.3
		c0-0.4-0.199-0.5-0.5-0.4c0-0.4-0.399-0.4-0.699-0.5c-0.601-0.3-1.2-0.4-1.801-0.4H38.4c0-0.2-0.201-0.2-0.301-0.2
		c-1,0.3-1.8,0-2.7,0h-8.1c-0.8,0.2-1.5,0-2.2,0.2c-0.2,0-0.3,0-0.4-0.2c0-0.2,0-0.4,0.4-0.5c0,0,0.3,0,0.4-0.3c0-0.2,0-0.4-0.2-0.4
		c-0.4,0-0.7-0.2-1-0.4h-0.5c0-0.6,0.4-0.5,0.6-0.7h6.2c0.6,0,1,0.3,1.7,0l0.6,0.2l2.5,0.3c0.6,0,1.2,0,1.7,0.4h0.8
		c0.4,0,0.799,0.3,1,0.4h0.6c0,0.4,0.3,0.5,0.6,0.3c0.2,0,0.4,0,0.5,0.3c0,0.2,0.2,0,0.4,0.2c1,0.3,2.2,0.5,3.2,1
		c0.199,0,0.399-0.2,0.6,0c0,0.2,0.2,0.3,0.5,0c0.3,0.2,0.5,0.4,0.8,0.4c0.3-0.2,0.4,0,0.4,0.2c0,0.2,0.2,0.3,0.399,0.3
		c0.301,0,0.4,0,0.5,0.3c0.301,0.7,0.7,1.4,0.2,2c-0.399,0.5-0.3,1-0.2,1.4c0,0.3-0.3,0.4-0.5,0.6c-0.199,0.3-0.5,0.4-0.8,0.6
		c-0.3,0.2-0.8,0.4-1,0H44.8z"/>
	<path d="M24.4,19.7c-0.2,0.2-0.6,0-0.5,0.6c0,0.2-0.2,0.3-0.4,0v-0.5c0-0.2,0.2-0.2,0.4-0.2c0.2,0,0.5,0,0.6,0.2L24.4,19.7z"/>
	<path d="M42.5,23.2c0.3,0,0.5,0,0.5,0.4C42.7,23.6,42.5,23.6,42.5,23.2z M45.1,22.8c-0.3,0.2-0.5,0-0.5-0.2
		C44.8,22.6,45,22.6,45.1,22.8z"/>
	<path d="M40,21.2c-0.3,0.3-0.5,0.2-0.601,0C39.7,21,39.899,21,40,21.2z"/>
	<path d="M35.3,39.2"/>
	<path fill="#5F5857" d="M15.8,31.6l2.2-0.7l-2,0.8L15.8,31.6z"/>
</g>
</svg>
