<?xml version="1.0" encoding="utf-8"?>
<!-- Generator: Adobe Illustrator 16.0.0, SVG Export Plug-In . SVG Version: 6.00 Build 0)  -->
<!DOCTYPE svg PUBLIC "-//W3C//DTD SVG 1.1//EN" "http://www.w3.org/Graphics/SVG/1.1/DTD/svg11.dtd">
<svg version="1.1" id="Layer_1" xmlns="http://www.w3.org/2000/svg" xmlns:xlink="http://www.w3.org/1999/xlink" x="0px" y="0px"
	 width="60px" height="50px" viewBox="0.625 10.625 60 50" enable-background="new 0.625 10.625 60 50" xml:space="preserve">
<g id="doveBody">
	<path d="M63.45,30.325c0,0-0.2-0.3,0-0.4"/>
	<path d="M17.05,56.625c-0.4,0-0.7,0.4-1,0c-0.2-0.5-0.2-0.8,0-1.2l2.3-1.6c0.8-0.601,1.7-1,2.3-1.7c0.2-0.3,0.6-0.5,1-0.7
		c0.3-0.198,0.8-0.198,0.6-0.8c1-0.6,1.7-1.398,2.5-2.2c0.2-0.198,0.4-0.5,0.7-0.6h0.2c0.6-1,1.4-2,2.5-2.5c0.6-0.4,0.8-0.7,1-1
		c0-0.4,0-0.601,0.2-0.8c0.2-0.4,1-0.5,0.7-1v-0.2c0-0.4,0.8-0.5,0.7-1l1.2-1.8c0.5-1,1-1.7,2-2.602c0.399-0.8,1-1.6,1.6-2.3
		c0.601-0.7,1-1.6,2-2c0.3-0.3,0.3-1,0.8-1c0.301,0,0.801,0,0.7-0.7l0.7-0.3c0.3-0.2,1,0,0.8-0.8c0.3,0,0.5-0.2,0.8-0.3
		c0.4-0.2,1-0.2,1-1l0.801-0.3c0.5-0.5,1-0.3,1-1c0.601,0,1-0.6,1.301-1c0.3,0.5-0.2,1,0,1.3l-1.5,0.7c-0.301,0.2-0.5,0.4-0.301,0.7
		c-1,0.4-1.399,1.2-2.301,1.6c-0.5,0.8-1.3,1-2,1.6c-0.699,0.4-1.3,1-2,2l-2,2.4c-0.699,0.8-1,1.701-2,2.5l-1.3,2.301
		c-0.2,0-0.6,0.5-0.3,1c-0.4,0-0.6,0.199-0.8,0.6c0,0.301,0,0.7-0.6,0.801c-0.3,0-0.3,0.301-0.2,0.601h-0.1c-0.7,0.6-1,1.5-1.8,2
		v0.2c-0.6,0.3-1,1-1.5,1.5c-0.6,0.398-0.8,1-1.5,1.3l-1.2,1c-0.8,0.8-1.4,1.5-2.3,2c-0.5,0.3-1,1-1.6,1c0,0-0.2,0.3,0,0.399
		c0,0.199,0.2,0,0.4,0c0.2,0.699-0.4,0.601-0.7,0.699c-0.3-0.398-0.7,0-1,0c-0.2,0.301-0.8,0.4-0.6,0.7c0.3,0.399,0.6,0,1,0
		c0,0,0,0.2,0.2,0.2c1-0.4,2-0.6,2.6-1c0.4-0.6,0.8-1,1.2-1c0,0,0.2,0.3,0,0.4c-0.3,0-0.4,0-0.5,0.299c-0.3,0.701-1,1-1.5,1.399
		c-0.5,0.5-0.7,1-1.3,1.302v0.4c-0.2,0-0.5,0-0.7,0.3c-0.3,0.2-0.8,0.601-0.8,1c0,0.2,0.7,0,1,0v0.2c1.3-0.6,2.6-1.3,3.6-2.3
		c0.4-0.7,1-1,1.3-2h0.4c0,0.399,0.2,0.6,0.3,0.7c-0.6,0.3-1,0.699-1,1.398c-0.7,0.301,0.3,1-0.2,1v0.4h0.2c0.2,0,1.8-1.301,2-1.6
		c0-0.201,0-0.302,0.2-0.302c0.3,0,0.4-0.3,0.2-0.6h0.4l5-2.8l1.2-0.5c0.4-0.2,1-0.2,0.8-0.801l7-3c0.4,0.399,0.801,0,1,0
		l1.301-0.699c0.399,0,1-0.2,1-0.801c0.699-0.301,2.199-1.5,2.399-1.301c0,0.2,0.2,0,0.4,0c0.3,0,0.399-0.199,0.3-0.5
		c0.5-0.3,1-0.398,1.398-0.8c0.5-0.7,1.201-1,1.802-1.5l0.8-1c0.8-0.3,1-1.2,1.6-1.7c0.602-0.6,0.801-1.398,1.301-2
		c0-0.3,0.399-0.6,0.301-1c0.699-0.3,1.199-1.2,1-2c0.6-0.2,0.5-0.7,0.699-1c0.199-0.4-0.199-1,0.399-1.2l0.4-0.2
		c0.198,0.3,0,1.5-0.2,2l-0.7,1.8c-0.3,0.4-0.3,0.7,0,1c0,0.2-4.6,6-5.3,6.5c-0.602,0.5-1,1-1.7,1.4c-1.2,0.698-2.6,1.198-3.7,2
		c-1.398,1-2.8,1.698-4.199,2c-1.5,0.398-3,1-4.399,1.698c-0.8,0.399-1.7,0.5-2.301,1c-0.5,0.601-1,0.802-1.6,1l-2.8,1.399
		c-2,0.5-3,1.701-4,3c0,0.201-0.4,0.301-0.7,0.4c-0.4,0.301-2.8,1.301-3,1c0-0.301-0.2-0.199-0.4-0.199c-0.4-0.201-0.5,0-0.7,0
		l-1.6,0.699c-1,0.301-2,0-3-0.699c-0.3-0.201-0.3-0.4,0-0.701c0.2-0.399,0.6-0.699,1-1l0.3-0.5h0.5c0.2,0,0.5,0,0.4-0.399
		c-0.3,0-0.6-0.198-0.7,0c-0.2,0-0.4,0-0.5,0.2c-0.5,0-0.8,0-1,0.3l0.2,0.302L17.05,56.625z"/>
	<path fill="#FFFFFF" d="M56.05,33.125c-0.6,0.2,0,0.8-0.3,1.2c-0.2,0.3,0,0.8-0.602,1v-0.3c-1-0.2-1.698-0.6-2.398-1
		c-0.5-0.5-0.602-1-1-1.3c-0.8-0.6-1.4-1.5-2.2-2.2c-0.8-0.7-1.6-1.5-2.5-2c-0.6-0.3-1-1-1.7-0.8c-0.199-0.4,0.301-0.8,0-1.2
		l0.4-0.4c0,0,0.3,0,0.398-0.3l1-2.5c0.602-0.5,0-1.2,0.4-1.7c0-0.5,0.301-1,0-1.4c0.5-1,0.5-1.6,0.6-2.3c0-1,0.602-1.6,1-2.4
		l0.4-0.2c0.5,0,0.801-0.4,1.2-0.5h0.601c0,0,0.199,0.2,0.5,0c0.601-0.2,1.199,0,1.799,0c0.701,0,1,0.7,1.701,0.6v0.4
		c-0.201,0.2-0.801,0-0.601,0.7v0.5l-0.2,0.2c-0.6,0.2-0.199,0.6,0,1c-0.6,0-0.8,0.4-0.699,1c0,0.5,0.699,0.8,0.699,1.3
		c-0.4,0.8-0.3,1.6,0,2c0.4,1,0,2.3,0.801,3.2c-0.5,1,0.799,1.8,0.199,2.8c0.6,0.6,0,1.4,0.4,2v0.3c0,1,0,1.7,0.199,2.5
		L56.05,33.125z M52.55,16.125c0-0.3-0.2-0.5-0.5-0.3c-0.399,0-0.8,0.2-0.8,1c0,0.4,0,0.8,0.398,1c0.5,0.3,1.602,0,2-0.3
		c0-0.2-0.398-1.3-0.6-1.5h-0.5L52.55,16.125L52.55,16.125z M49.55,20.125c0.2,0.4,0.3,1,1.2,0.6h0.398c0.4,0.2,0.701,0,0.802,0
		c0.198-0.6,0.6-0.8,1-1c0.399,0,0.5-0.6,0.5-0.8c0-0.4-0.4,0-0.601,0h-0.201c-0.6-0.5-1.398-0.3-2-1H50.35c-0.801,0.4-1,1-0.5,2.3
		l-0.201-0.2L49.55,20.125z"/>
	<path d="M56.05,33.125c-0.3-0.8-0.2-1.6-0.2-2.5v-0.3c-0.398-0.6,0.2-1.4-0.398-2c0.6-1-0.7-1.8-0.2-2.7c-0.7-1-0.399-2.2-0.8-3.2
		c-0.301-0.3-0.4-1,0-2h0.6v0.3c0,0.2-0.3,0.5-0.199,0.8c0.5,1,0.299,2,0.699,3c-0.5,0.6,0,1,0.2,1.4c0.5,0.8,0.3,1.8,0.601,2.6
		c-0.601,0.2,0,0.5,0,1v0.3c-0.399,0.3,0,0.6,0,1c0.199,0.3,0,0.8,0.399,0.8c0.3,0.5-0.3,0.8,0,1c-0.3,0-0.3,0.4-0.3,0.7l-0.4,0.2
		v-0.2L56.05,33.125L56.05,33.125z"/>
	<path d="M55.05,20.325h-0.6c0-0.4-0.7-0.7-0.7-1.3c0-0.5,0-0.8,0.6-1h0.301c0.199,0,0.301,0,0.301,0.3c-0.602,0.4,0,0.4,0,0.4
		c0.6-0.2,1-0.2,1.5-0.2c0.3,0,1.199,0,1-0.8c0,0,0.199,0,0.3-0.2c0.2,0.2,0.601,0.3,0.7,0.6c0,0.4,0.3,0.8,0.398,1.2
		c-0.398-0.2-0.6-0.3-1,0h-0.6c-1,0-1.7,0.5-2.5,1H55.05z M55.35,19.625c0.2-0.2,0.602,0,0.5-0.5c0-0.3-0.398,0-0.6,0h-0.4
		c-0.3,0-0.3,0.2-0.3,0.4c0,0.2,0,0.3,0.4,0.3l0.198-0.2H55.35z"/>
	<path d="M47.35,20.325c0.301,0.3,0,0.8,0,1.3c-0.199,0.5,0.2,1.2-0.199,1.7l-1,2.5c0,0.2-0.199,0.3-0.301,0.3
		c0-0.8,0.4-1.5,0.801-2.2c0.399-0.8,0.399-1.5,0.399-2.2c0-0.6,0-1,0.3-1.5V20.325z"/>
	<path d="M47.35,20.325c-0.3-0.4-0.199-0.7-0.199-1c0.5-1,0.699-2,1-2.8l0.801-1c0,0,0,0.2,0.199,0.2c-0.399,0.8-1,1.5-1,2.4
		c-0.2,0.7-0.2,1.4-0.7,2v0.2H47.35z"/>
	<path d="M55.05,18.325c0-0.2-0.2-0.3-0.399-0.3c0-0.2-0.199-0.3,0-0.4c0.399,0,0.699,0.2,1,0c0,0,0.301,0,0.399-0.2
		c0,0,0.4,0,0.2-0.2c0-0.2-0.3,0-0.4,0c0,0,0-0.3-0.199-0.4c0.199,0,0.301,0,0.399-0.2h0.2c0.6,0.5,1.2,0.7,1.7,1.2
		c-0.302,0-0.4,0-0.601,0.2c-1-0.3-1.701,0.3-2.601,0.6l0.2-0.2L55.05,18.325z"/>
	<path d="M55.25,15.525c-0.7,0-1-0.6-1.7-0.5c-0.6,0-1.2-0.3-1.8,0c-0.3,0-0.4,0-0.5-0.2l0.5-0.3c0.8-0.2,1.6,0,2.3,0
		c0.5,0,1,0.3,1.2,0.7v0.2V15.525z M56.05,16.325c0,0.2-0.2,0.2-0.399,0.3c-0.199-0.7-0.699,0-1,0c-0.199-0.7,0.399-0.6,0.699-0.8
		h0.301c0.199,0,0.301,0.4,0.399,0.6V16.325z"/>
	<path d="M50.648,14.925c-0.398,0-0.698,0.6-1.198,0.6v-0.4l1-0.5L50.648,14.925z"/>
	<path d="M50.648,14.925v-0.3c0.302-0.2,0.602-0.6,1,0c0,0-0.299,0-0.398,0.2h-0.602V14.925z M49.35,15.125v0.4l-0.399,0.2h-0.4
		c0-0.3,0.3-0.5,0.601-0.6H49.35z M55.648,15.725H55.35v-0.2c-0.201,0-0.201-0.2,0-0.3c0,0,0.299,0,0.299,0.3V15.725z"/>
	<path fill="#FFFFFF" d="M31.85,40.825l1.3-2c1-0.7,1.4-1.6,2-2.4c0.8-0.6,1.498-1.5,1.998-2.399l2-2c0.802-0.5,1.602-0.8,2-1.5
		c1-0.4,1.602-1.2,2.5-1.6h0.201c1.199,0.3,2.399,0.7,3.199,1.6c0.7,0.7,1.6,1.4,2,2.4c0,0,0,0.2,0.301,0.3c0.799,0.6,1.299,1.4,2,2
		l2,1.4c0.299,0,0.799,0,1,0.601c0,0.5,0,0.8-0.201,1c-0.398,0.699-0.398,1.5-1,2c-0.5,0.5-1,1.301-1.5,1.699
		c-0.398,0.2-0.799,0.602-1,1c-0.5,0.5-1.198,0.801-1.698,1.4c-0.302,0.4-0.802,0.699-1.302,1l-3,1.699
		c-0.299,0.301-1.698,0.301-1.5,1l-2,0.801c-0.198-0.5-2,0.699-2.198,0.8c-2.7,1-6.8,3.3-10,5l-1.9,0.7c-0.4,0.199-3,2.8-3.2,3
		c-0.7,0.3-0.2-1.6-0.2-1.6c0.2-0.201,0.2-0.701,0.4-1c0-0.4,0.4-0.4,0.5-0.802c0-0.399-0.3,0-0.3-0.198c0-0.5,2-2.302,2-2.602
		s0-0.5-0.2-0.5l0.4-0.8c1.2-2.4,5.2-9.5,5.4-9.7V40.825L31.85,40.825z"/>
	<path fill="#FFFFFF" d="M43.05,33.925c0.601,0,1,0.5,1,1v2.4c0.5,2.3,0.601,4.399-0.5,6.3c-0.6,1-1.5,2-2.8,2.3c-0.4,0.2-1,0-1.3,0
		c-1.2,0-2.4-0.399-3.5-1c0,0-0.302,0-0.302-0.198c0-0.201-0.199-0.201-0.299-0.4c-0.4-0.5-1.201-0.7-1-1.5
		c0.199,0,0.301,0,0.399-0.2c0.198,0,0.3-0.2,0.198-0.5c0.802-0.7,1.602-1.399,1.802-2.5c0-0.3,0.2-0.3,0.3-0.399
		c0.5-0.399,1-0.301,1-1c0-0.601,0.301-1,1-1.399l1-0.5c0.5,0,0.6-0.2,0.4-0.5c0.398,0,0.398-0.6,0.5-0.8c0-0.4,0.5-0.5,1-0.7l1-0.4
		h0.101V33.925z M54.05,37.325c0-0.5-0.5-0.4-0.7-0.5c-0.8-0.3-1.3-1-2-1.4c-0.8-0.3-1.3-1.2-2-2h-0.3c-0.5-1-1.399-1.8-2.2-2.6
		c-0.8-0.8-2-1.3-3.199-1.7h-0.2c-0.2-0.2,0-0.4,0.3-0.5c0.5,0,1-0.3,1.5-0.6c0.7,0,1,0.5,1.6,0.8c1,0.5,1.7,1.3,2.5,2
		c0.801,0.7,1.4,1.6,2.2,2.2c0.4,0.3,0.5,0.8,1,1.2c0.7,0.5,1.5,1,2.4,1v0.4c0,0.8-0.4,1.7-1,2v-0.3H54.05z M18.55,57.525l1-1
		c0.6-0.2,0.8-0.801,1.3-1.2c0.5-0.4,1.3-0.8,1.6-1.5c0-0.2,0.4-0.601,0.6-0.7c0.2,0,1-0.6,1-0.8c0,0,3.2-4.3,1.7-1.8
		c0.3-0.2,0.8-0.2,0.5-1c0.3,0,2-0.801,2.3-1c0.2,0,2,1.5,2.2,1.3c0.3,0.5-0.8,3-1.6,3.2c-0.2,0-4.2,0.699-4,1v0.699
		c0,0-0.2,0-0.3-0.199c-0.2-0.4-0.4-0.5-0.5,0v0.3c-0.7,0.5-1,1.3-1.7,1.8c-0.8,0.8-1.5,1.7-2.7,2c-0.2,0-0.5,0.2-0.6,0
		c0-0.3-1-0.398-1-0.5c0.3,0,0-0.2,0.5-0.6h-0.2H18.55z"/>
	<path fill="#FFFFFF" d="M19.55,56.925c0.5,0.302,0,0.4-0.2,0.5c0,0.302-0.5,0.302-0.4,0.601c0,0.301,0.2,0,0.4,0
		c1.2-0.299,2-1.199,2.7-2c0.7-0.5,1-1.299,1.8-1.799v-0.201c0-0.5,0.3-0.5,0.5,0c0,0,0.2,0.201,0.4,0v0.301c-0.2,0,0,0.3,0,0.5
		c0,0.3,0,0.4-0.3,0.4l-0.3-0.602c0-0.2,0-0.3-0.2,0c-0.2,0.602-0.8,1-1.3,1.602c-1,1-2.2,1.698-3.6,2.198c-0.4-0.3-1,0-1-0.3
		c0-0.5,0.4-1,0.7-1c0.2-0.398,0.5-0.398,0.7-0.5L19.55,56.925z"/>
	<path d="M23.25,52.925l-0.4,0.2c-0.4,0.2-0.8,0.5-1.2,1c-0.6,0.5-1.6,0.7-2.5,1v-0.3l0.7-0.4c0.3,0,1,0,0.7-0.5l1-0.5
		c0.4-0.198,0.5-0.399,0.4-0.698c0.4-0.201,1-0.302,1.3-0.602c0.4-0.6,1-0.8,1.4-1c0,0,0.3,0,0.4,0.2c-0.3,0-0.2,0.2,0,0.399
		c-0.4,0-0.6,0.199-0.8,0.399c-0.4,0-1,0-0.8,0.601v0.2H23.25z"/>
	<path fill="#FFFFFF" d="M25.05,49.325c0.7-0.3,1-1,1.5-1.3c0.6-0.5,1-1.2,1.5-1.5l1.6-0.801c0,0,0,0.301,0.2,0.399
		c-0.4,0.2-0.3,0.399-0.2,0.7l-1.5,0.699c-0.2,0.5-0.7,1-1.3,1.201c-0.2,0-0.2,0.299-0.2,0.5h-0.8c-0.3,0-0.5,0.299-0.6,0
		L25.05,49.325z"/>
	<path fill="#FFFFFF" d="M25.05,49.325c0,0.399,0.3,0.3,0.6,0.2v0.399c-0.4,0.302-1,0.4-1.3,1c-0.5,0.302-1,0.5-1.3,1
		c-0.2,0.4-1,0.5-1.3,0.7l-0.2-0.398c1-0.602,1.5-1.302,2.2-2l1.3-1V49.325z"/>
	<path fill="#FFFFFF" d="M24.65,51.825c0-0.2-0.2-0.5,0-0.601c0.3-0.601,0.6-0.801,1-1c0.2,0,0.3-0.199,0-0.5l1.4-0.399v0.3
		c0,0.5-0.4,1-1,1c-0.2,0.3-0.7,0.3-0.5,1c-0.3,0-0.6,0-1,0.2H24.65z M23.85,56.525c0,0.3,0.3,0.3,0.6,0.199l1.2-0.5
		c0,0-1.7,1.5-2,1.5v-0.3c0.4-0.198-0.6-1,0.2-1V56.525z M29.85,44.325c0,0.5,0.4,0,0.6,0.3c0,0.5-0.7,0.602-0.8,1l-1.6,1v-0.3
		c0.7-0.601,1-1.5,1.7-2H29.85z M26.45,49.325c0-0.3,0-0.601,0.2-0.601c0.6-0.301,1-0.699,1.5-1.199c0,0.398,1,0.8,0,1.3
		c-0.4-0.4-0.7,0-1,0.399h-0.5L26.45,49.325z M21.45,52.325c0,0,0,0.2,0.3,0.3c0,0.3,0,0.5-0.3,0.602c-0.4,0-0.7,0-1,0.299
		c-0.3,0-0.5,0.201-0.6,0v-0.199c0.8,0,1.2-0.7,1.7-1L21.45,52.325L21.45,52.325z M19.65,54.325l-0.8,0.5c-0.3,0-0.6,0.5-0.8,0
		c-0.2-0.3,0.4-0.3,0.6-0.4c0.3,0,0.7-0.399,1,0V54.325z"/>
	<path fill="#FFFFFF" d="M24.65,55.125c0,0.7,0,1.2-0.8,1.4C23.85,55.825,24.15,55.525,24.65,55.125z M26.85,49.325
		c0.4-0.5,0.7-1,1.3-0.5c0,0.399-0.6,0.399-1,0.6h-0.2L26.85,49.325z M31.55,44.625c0-0.3-0.5-0.7,0-1l0.4,0.8v0.7
		c-0.5,0-0.5-0.2-0.6-0.3L31.55,44.625z"/>
	<path d="M43.05,47.727c-0.3-0.802,0.5-0.5,0.8-0.802c0,0.601-0.5,0.7-1,0.802H43.05z"/>
	<path d="M32.85,52.125v-0.398l0.8-0.4C33.65,51.925,33.25,51.925,32.85,52.125z"/>
	<path fill="#FFFFFF" d="M29.65,46.825c0-0.3-0.2-0.5,0.2-0.7l0.3,0.7v0.3c-0.2,0-0.2-0.2-0.3-0.3H29.65z"/>
	<path d="M46.55,45.125h0.5c0,0.3,0,0.5-0.3,0.602h-0.4C46.148,45.425,46.55,45.325,46.55,45.125z"/>
	<path d="M40.75,48.325c0.3,0,0.7-0.601,1,0C41.45,48.325,41.05,48.825,40.75,48.325z"/>
	<path d="M18.05,56.525c0,0,0-0.2-0.2-0.301l0.6-0.399v0.3h-0.4v0.2V56.525z"/>
	<path d="M26.05,56.025c-0.2-0.301,0-0.5,0.2-0.602c0.2,0.5,0,0.7-0.3,0.801L26.05,56.025z"/>
	<path fill="#FFFFFF" d="M49.55,20.325c-0.5-1.4-0.3-2,0.601-2.3h0.6c0.5,0.6,1.3,0.4,2,0.8c0.3,0,0.7-0.3,0.7,0c0,0.3,0,0.8-0.5,1
		c-0.4,0-0.802,0.3-1,0.8c0,0.2-0.4,0.3-0.601,0.2c0,0-0.301-0.2-0.301,0c-1,0.4-1-0.3-1.3-0.6h-0.2L49.55,20.325L49.55,20.325z
		 M52.55,16.025h0.5c0.2,0.2,0.601,1.3,0.5,1.5c-0.2,0.3-1.399,0.6-2,0.3c-0.399-0.2-0.399-0.6-0.3-1c0-0.8,0.398-1,0.8-1
		C52.35,15.625,52.45,15.825,52.55,16.025c-0.2,0.2-0.7,0-0.5,0.7H51.65c0,0.4-0.199,0.7,0.399,0.7c0.3,0.4,0.601,0.3,0.8,0
		c0.301-0.2,0-0.4,0-0.6l-0.3-0.6V16.025z"/>
	<path d="M55.55,17.625c-0.2,0.2-0.5,0-0.8,0l-0.3-0.5v-0.2c0.5,0,0.8,0,1.198-0.3c0,0,0,0.3,0.201,0.4
		C55.55,17.025,55.45,17.325,55.55,17.625z"/>
	<path d="M55.648,16.625l-1,0.3v-0.4c0.302,0,0.802-0.6,1,0V16.625z"/>
	<path d="M54.45,17.125c0,0.2,0.198,0.4,0.3,0.5c-0.3,0-0.2,0.2,0,0.4h-0.4c0-0.3-0.5-0.7,0-1L54.45,17.125z"/>
	<path d="M55.05,18.325c0.8-0.3,1.601-1,2.5-0.6c0.3,1-0.6,0.7-0.8,0.8c-0.602,0-1,0-1.5,0.2c-0.3,0-0.7,0-0.3-0.4H55.05z
		 M55.35,19.625c-0.199,0-0.3,0-0.398,0.2c-0.5,0-0.602,0-0.602-0.3c0-0.2,0-0.3,0.301-0.3h0.399c0.3-0.3,0.601-0.6,0.7-0.3
		c0,0.4-0.3,0.3-0.5,0.5L55.35,19.625z"/>
	<path d="M55.55,17.625c0-0.3,0-0.5,0.3-0.6c0,0,0.301-0.2,0.4,0c0,0.2,0,0.3-0.2,0.4c0,0.3-0.3,0.3-0.5,0.4V17.625z"/>
	<path d="M23.25,52.925c-0.2-0.6,0.4-0.5,0.7-0.698c0,0.398-0.6,0.299-1,0.5h0.2L23.25,52.925z M25.75,49.925
		c0.2,0.302,0,0.5-0.2,0.601c-0.3,0-0.6,0.301-0.8,0.701c0-0.302-0.2-0.302-0.4-0.4c0.2-0.7,1-0.801,1.4-1V49.925z"/>
	<path d="M26.85,49.325c-0.3,0.3-0.7,0.399-1,0.6l-0.2-0.399c0.3,0,0.5-0.2,0.8-0.301h0.4V49.325z"/>
	<path d="M52.05,16.725c-0.2-0.5,0.3-0.5,0.5-0.7l0.3,0.6c0,0.2,0.301,0.4,0,0.7c-0.199,0.2-0.5,0.3-0.8,0
		C52.05,17.125,53.05,16.925,52.05,16.725z"/>
	<path d="M52.05,16.725c1,0.3,0,0.4,0,0.7c-0.6,0-0.5,0-0.399-0.5h0.399V16.725z"/>
</g>
<g id="doveWingsA">
	<path fill="#FFFFFF" d="M31.55,39.325h0.3l1-0.5c0.6,0,1-0.3,1.2-0.8l0.399-0.2c0.201,0,0.4,0,0.601-0.2c0.2,0,0.399,0,0.601-0.2
		c0.601,0.5,1.199,0.4,1.699,0c0.5-0.5,1-0.8,1.602-1c0.199-0.2,0.5-0.2,0.8-0.3l1-0.4h0.399c0,0,0.301-0.2,0.199-0.4
		c0-0.3-0.199-0.3-0.3-0.2H40.65l-1,0.4c-0.301-0.4-0.601-0.4-1,0v0.4l-3,1H35.35c-0.3,0-0.5-0.3-0.8,0h-0.5
		c-0.3,0-0.4,0.5-0.6,0.801c-0.2,0-0.4,0-0.6,0.199l-1,0.4h-0.8c0-0.2-0.2-0.3-0.4-0.2c-0.3-0.6-0.6-0.2-1,0c-0.3,0-0.4,0.2-0.4,0.5
		h-0.2c-0.6,0.3-1.2,0.602-2,0.7l-0.2-0.7c0.2,0,0.3-0.2,0.3-0.398c0.2-0.201,0.3-0.4,0.5-0.4c0.3,0,0.4-0.3,0.3-0.6h0.4
		c0.3-0.2,0.3-0.4,0.3-0.7c0,0,0.3,0,0.3-0.2c0.6-0.5,1-1,1.2-1.8c0-0.2,0.2-0.3,0.4-0.2l0.3,0.2c0.8,0,1.7,0,2.5-0.4
		c0,0,0.4,0,0.3-0.3c0-0.3-0.3-0.2-0.5,0c-0.4,0-0.7,0-1,0.2c-0.4,0-1,0.4-1.3,0h-0.4c0,0,0-0.3-0.2-0.4c0-0.3-0.3-0.2-0.5,0h-0.2
		c0.2,0.3,0,0.5,0,0.8c0,0.2-0.2,0.4,0,0.6c-0.4,0-0.5,0.3-0.3,0.6c-0.2,0-0.3,0-0.4,0.2c-0.4,0-0.4,0.2-0.4,0.5
		c-0.2,0-0.3,0.2-0.2,0.5h-0.4c-0.4,0-0.4,0.5-0.4,0.7l-0.6,0.2c-0.4,0-0.5,0.299-0.5,0.6l-0.2,0.199c-0.3,0-0.4,0.201-0.4,0.5
		l-2.2,0.801c-0.2,0-0.2-0.2-0.3-0.4c0.2,0,0.4-0.199,0.4-0.5c0.5,0,0.6-0.3,0.5-0.6c0-0.2,0.2-0.2,0.3-0.301
		c0.3,0,0.4-0.199,0.4-0.5c0,0,0.2,0,0.3-0.2c0.4-0.2,0.5-0.7,1-1l0,0c0,0,0.2,0,0.3-0.2c0.2,0,0.4,0,0.4-0.3v-0.5
		c0.3,0,0.3-0.3,0.2-0.5h0.3c0.3-0.2,0.4-0.5,0.5-0.7c0-0.3,0.2-0.6,0.6-0.8h0.2c0-0.5-0.3-0.8-0.7-0.7c-0.3,0-0.4,0-0.6,0.2
		c-0.4,0-0.4,0.3,0,0.5c0,0.4-0.4,0.6-0.4,1c-0.2,0-0.2,0.3,0,0.5c-0.3,0-0.4,0-0.6,0.2c-0.3,0-0.3,0.2-0.2,0.5c0,0-0.3,0-0.4,0.2
		c-0.4,0-0.4,0.3-0.4,0.6h-0.3c-0.2,0-0.3,0.3-0.2,0.6l-0.4,0.199c-0.4,0-0.6,0.3-0.7,0.7c-0.2,0-0.5,0-0.7,0.2
		c-0.4,0-0.5,0.398-0.7,0.699c-0.7,0.301-1.4,0.601-2.2,0.699c0,0,0-0.199,0.2-0.3v-0.5h0.2l0.6-0.3c0.4,0,0.5-0.301,0.4-0.6
		c0.3-0.2,0.7-0.301,0.8-0.7c0.2-0.3,0.6-0.4,0.7-0.8v-0.2c0.3,0,0.4,0,0.6-0.2c0.3,0,0.3-0.2,0.3-0.5h0.3c0.3,0,0.4-0.3,0.2-0.6
		h0.4c0.3-0.2,0.3-0.4,0.2-0.7h0.4c0.4-0.2,0.4-0.4,0.3-0.7c0,0,0.3,0,0.2-0.4v-0.2c0.3,0,0.4,0,0.3-0.3h-0.2
		c-0.3,0-0.3,0.4-0.4,0.6c-0.2,0.2-0.2,0.3,0,0.5l-0.7,0.4c-0.4,0-0.2,0.3-0.3,0.5h-0.3c-0.3,0-0.4,0.2-0.4,0.5l-0.5,0.3
		c-0.4,0-0.6,0.2-0.6,0.6c-0.5,0-1,0.2-1,0.5l-0.7,0.5c-0.5,0-1,0.2-1,0.8c-0.3,0-0.4,0-0.6,0.2c-0.4,0-0.7,0.199-1,0.5
		c0,0.199-0.4,0.3-0.7,0.199c-0.3,0-0.6,0-1,0.201c-0.2,0-0.4,0-0.4-0.302h0.4c0.3,0,0.5-0.399,0.6-0.699c0.4,0,0.7-0.4,1-0.601
		c0-0.2,0.4-0.399,0.6-0.5c0.4,0,1,0,1.2-0.5c0-0.3,0.4-0.5,0.7-0.6c0.3,0,0.5,0,0.4-0.4l0.7-0.3c0.4,0,0.6-0.2,0.5-0.5l0.8-0.4
		l1.2-1.2c0-0.2,0.2-0.3,0.5-0.3c0-0.4-0.3-0.4-0.4-0.4h-1c0.2,0.3,0.4,0.3,0.4,0.5c0,0.3-0.3,0.3-0.5,0.4c-0.3,0-0.5,0.3-0.5,0.7
		l-0.8,0.402c-0.3,0-0.3,0.3-0.4,0.5c-0.2,0-0.4,0-0.6,0.2c-0.3,0-0.6,0-0.7,0.5c0,0.2-0.2,0.2-0.3,0.2c-1,0.2-1.7,0.7-2.4,1.2
		c-0.4,0-0.7,0.2-1,0.5c-0.3,0.3-0.8,0.5-1.3,0.601h-1.7c-0.3,0-0.5,0-0.8,0.199h-0.3c-0.2-0.199-0.2-0.5,0-0.8
		c0.2,0,0.5-0.3,0.4-0.7c1-0.2,1.8-0.8,2.6-1.3l0.7-0.3h0.2l0.7-0.2c0.6-0.2,1-0.4,1.4-1c0.2,0,0.4,0,0.6-0.2c0.4,0,0.7-0.3,1-0.4
		c0.4,0,0.5-0.3,0.7-0.6l1-0.4c0,0,0.2,0,0-0.3c0-0.2,0,0-0.3,0c-0.5,0-1,0.3-1.5,0.5c-0.5,0-0.8,0.2-1,0.6c0,0,0,0.2-0.2,0.2
		l-0.6,0.2h-0.4c-1,0.4-2,0.7-2.8,1.5c-0.2,0-0.3,0.2-0.5,0.3l-2.2,0.7c-0.2,0-0.4,0-0.5,0.2c-0.2,0-0.4,0-0.5,0.2h-1
		c-0.3,0-0.5,0-0.6-0.2c0-0.2,0-0.3,0.2-0.3c0.3,0,0.4-0.3,0.6-0.5c0.2-0.3,0.5-0.5,0.8-0.5c2-0.6,3.7-1.2,5.5-2
		c1.4-0.5,2.5-1.4,4-1.6c0.3-0.3,0.7-0.3,0.6-0.5c0-0.2-0.5,0-0.8,0l-7,2.3c-0.2,0-0.5,0.2-0.7,0.5l-1.4,0.7c-1,0.6-2.2,0.6-3.5,0.2
		c0.3,0,0.5-0.3,0.6-0.4c0.3-0.5,0.7-0.6,1-0.8h0.7c1-0.5,2.2-1,3.3-1l1-0.5h0.4c0.6,0,1-0.2,1.7-0.4l3-1l0.6-0.3
		c0.3,0,0.5-0.2,0.7-0.3c0.2,0,0.2-0.3,0-0.5c0,0,0-0.2-0.2-0.2c-0.2,0-0.2,0.2-0.2,0.3c0,0.3-0.3,0.3-0.4,0.4c-1.4,0.4-2.8,1-4.4,1
		c-0.2,0-0.5,0-0.6,0.2l-2,0.7h-0.6c-0.5-0.2-1,0-1.4,0c-0.3,0-0.5,0.4-1,0.2c-0.2-0.2-0.4,0.3-0.7,0.3c-1,0-1.7,0.2-2.6,0h-0.2
		c-0.4-0.3-0.3-0.6,0.3-1c1.2-0.2,2.2-0.5,3.3-1h0.5c0-0.2,0.2-0.2,0.3-0.3h0.3c0.5,0.2,1,0,1.4,0l1.5-0.6c1-0.5,2.3-0.6,3.2-1.4
		c-0.5,0.2-1,0-1.4,0.2c-0.3,0.2-0.7,0.2-1,0.3c-0.7-0.3-1.2,0-1.8,0.3c-0.3,0-0.5,0-0.7,0.3l-1,0.2c-0.6,0-1.2,0-1.8,0.3h-0.3
		c0,0-0.2-0.4-0.5-0.3l-1.4,0.5h-0.3c-0.5,0-1-0.2-1.4,0.2c0,0-0.4,0.2-0.5,0c0-0.4,0.2-0.5,0.3-0.7h0.1c1.2-0.8,2.6-1.2,4-1.6h0.8
		c0.6,0,1-0.3,1.7-0.5h0.4c0.5,0,1,0,1.6-0.2c0.5-0.2,1-0.4,1.5-0.3h1c-0.4-0.2-0.6-0.2-0.6-0.6c0-0.2-0.2-0.2-0.3,0
		c-0.4,0-0.8,0-1.3,0.3c-0.3-0.4-0.7-0.3-1,0h-0.8c0,0,0,0.2-0.2,0.2h-0.4h-0.4h-0.4c-0.4,0-0.7,0-1,0.2c-0.7,0-1.4,0.3-2,0
		c-0.4-0.3-0.7,0-1,0.2h-2c-0.6,0-1,0.2-1.5-0.3l0,0c0.8-0.4,1.7-0.5,2.6-0.6c1.2-0.3,2.5-0.7,3.8-0.8c0.6,0,1.2,0,1.7-0.3
		c0.5,0.2,0.8,0,1.2,0c1-0.4,2-0.5,3-0.6c1,0,2.3-0.2,3.4,0c0.4,0,0.7-0.2,1-0.5c0-0.4,0.3-0.3,0.5,0c0.6,0.2,0.6,0.2,1-0.2
		c0.4-0.3,0.7-0.2,1,0c0,0.3,0.4,0.3,0.6,0c0.2-0.3,0.5-0.2,0.8,0c0,0,0.3,0.2,0.4,0c0.6-0.3,1,0,1.6,0c0.5,0,1.2,0.3,1.8,0
		c0.4,0.4,0.8,0,1,0c0.3,0.4,0.5,0,0.7,0h1.7c0.4,0,1,0.4,1.3,0c0.2,0.5,0.5,0,0.8,0.2h0.7c0,0.3,0.3,0,0.4,0
		c0.299,0,0.699-0.4,0.998-0.2h0.701c0,0.3,0.299,0.4,0.601,0.3c0,0.5,0.3,0.5,0.6,0.4c0,0.3,0,0.3,0.4,0.3v0.3
		c0.198,0.3,0.399,0.4,0.698,0.4c0.201,0,0.201,0.3,0.4,0.3c0.301,0.4,0.4,1,0.5,1.4c0,0.6,0,1,0.5,1.5v0.6c0,0.5,0.2,0.8,0.6,1
		h0.201c0,0.4,0.199,0.5,0.601,0.4c0,0.2,0,0.3,0.198,0.4c0,0.4,0.201,0.4,0.5,0.3c0,0.4,0.201,0.5,0.5,0.4c0.201,0,0.602,0,0.4-0.4
		c0-0.3-0.3,0-0.5,0c-0.199-0.4-0.4-0.4-0.699-0.4c0-0.2,0-0.4,0.299-0.4l0.4-0.2l1.301-0.4c0,0.4,0.601,0.3,1,0.6v-0.4
		c-0.399,0-0.601-0.4-1-0.3c0-0.2-0.201-0.3-0.399-0.2h-0.2c0.398-0.8,1-1,2-1c-0.5-0.3-0.5-0.3,0-0.6c0.2-0.2,0.3-0.3,0.3-0.6
		c0.2,0-4.7,1.8-3.399,5.5c0.399,0.8,1.399,0.5,1.399,0.8c-0.3,0,1.3,1.6,1,1.8c0,0.2,1-2-2.2,0.8c-0.199,0.3-2.398,3-2.699,3.2
		c-0.301,0.4-1.699,0-2.199,0.5l-0.5,0.4l-0.7,0.6l-0.601,0.8c0,0.2-0.801,0.2-1,0.302c-2,1.698-3.5-2.4-3.5-2.4L31.55,39.325
		L31.55,39.325z M42.55,35.125l0.4-0.2v-0.3c0,0,0-0.2-0.302,0c-0.299,0-0.6,0-1,0.2v0.3c0,0.2,0.201,0,0.302,0h0.399H42.55z"/>
	<path d="M30.45,39.125l-0.5,0.2c-1,0.399-2,1-3,1c0,0-0.2-0.3-0.5-0.3c0,0-0.2,0,0,0.3h-0.4c-0.4-0.3-0.8,0-1.2,0
		c-0.6,0.399-1.2,0.5-2,0.5l-1-0.4h-1.2c-0.7,0.2-1.2,0-1.5-0.6c0-0.4-0.4-0.5-0.7-0.3c-0.6,0.3-1,0.5-1.7,0.6c-0.8,0-1.2-0.2-1.5-1
		c0-0.2,0-0.2-0.3,0c-0.8,0-1.6,0-2.4-0.3c-1-0.4-0.8-0.4-0.7-1.4c0-0.399-0.2-0.399-0.3-0.3c-0.6,0.2-1.2,0-1.7,0s-1-0.6-1-1
		s0-0.5,0.2-0.6l0,0c0-0.3-0.2-0.3-0.3-0.2c-0.6,0-1.5-0.4-1.6-1.2c0-0.2,0.2-0.3,0.3-0.5c0.2,0,0.3,0,0.2-0.2h-0.3
		c-0.8-0.2-1.5-0.5-2-1.3c0-0.3,0-0.6,0.3-0.8c0.2,0,0.3-0.2,0.2-0.5c0-0.2-0.2,0-0.4,0c-0.5,0-1-0.4-1-1c-0.2-0.4,0-0.6,0.3-1
		l1-0.5c0,0,0.3,0,0.3-0.2l-0.4-0.2h-1c-0.4,0-1.4-0.5-1.6-1c-0.2-0.6,0.4-1.5,1-1.5c0.8,0,1.5,0,2.2-0.4c0.8-0.2,1.7-0.5,2.6-0.4
		c0.5,0,1-0.3,1.3-0.4c0.6-0.2,1-0.3,1.4-0.2h0.2c1.6-0.7,3.3-0.7,5-1l2.8-0.2c0.3,0,0.4-0.2,0.3-0.5v-0.4c0-0.3-0.2-0.4-0.4-0.5
		c-0.6-0.2-0.7-0.7-0.8-1.3c0,0,0-0.2,0.2-0.3c0.5-0.4,1-0.6,1.5-0.6h4.6c1,0,2,0,3,0.2h0.8c0.6,0,1.3,0.2,2,0
		c0.3,0,0.5,0.2,0.7,0.3c0.4,0.3,0.8,0.3,1.2,0.3c0.6,0,1,0.4,1.7,0.2h0.301c0.398,0.4,0.699,0.5,1.199,0.4h0.699
		c0.4,0.3,1,0.3,1.4,0.5c0.5,0.3,1,0.4,1.6,0.5c0.2,0,0.301,0,0.4,0.2c0.398,0.2,0.6,0.3,1,0.2h0.4l1.2,0.6c0.601,0,1,0.5,1.4,1
		c0.5,0.7,0.8,1.5,0.8,2.4c0,0.3,0,0.6-0.2,0.8c0,0.2-0.2,0.4,0,0.6h0.4c0.3,0,0.5,0,0.6-0.4c0-0.2,0.4-0.4,0.7-0.4
		c0,0.4,0,0.5-0.2,0.7c-0.5,0.3-0.5,0.3,0,0.6c-1,0-1.6,0.2-2,1c-0.2,0-0.399,0-0.5,0.2c-0.3,0-0.399,0.2-0.3,0.5
		c-0.2,0-0.3,0-0.4,0.2c-0.3,0-0.398,0.2-0.3,0.4l-0.399,0.2l-0.2-0.4c0-0.4-0.2-0.4-0.601-0.3l-0.201-0.6l0.201-0.2
		c0.199,0.4,0.5,0.4,0.799,0.2c0.302-0.2,0.602-0.3,0.802-0.6c0.198-0.2,0.6-0.3,0.5-0.6c0-0.5-0.2-1,0.198-1.4
		c0.5-0.6,0-1.3-0.198-2c0-0.2-0.2-0.4-0.5-0.3c-0.2,0-0.302,0-0.4-0.3c0-0.2,0-0.4-0.3-0.3l-0.7-0.4c0-0.3-0.3-0.3-0.5-0.2h-0.6
		l-3-1h-0.5c0-0.4-0.302-0.3-0.5-0.3c0-0.2-0.302-0.2-0.601,0c-0.201,0-0.301,0-0.5-0.2c-0.199,0-0.601-0.3-1-0.3h-0.801
		c-0.5-0.5-1-0.4-1.7-0.5l-2.5-0.3h-2.3c-0.6-0.2-1.2-0.2-1.8-0.2h-4.2h-0.2c0-0.2-0.4-0.2-0.6-0.2s-0.4,0-0.5,0.2v0.6
		c0.2,0.3,0.4,0.2,0.6,0c0.3,0.2,0.4,0,0.6,0.2c0.3,0.2,0.6,0.5,1,0.4c0.2,0,0.3,0.2,0.2,0.4c0,0.2-0.3,0.3-0.5,0.3
		c-0.2,0-0.2,0.3-0.2,0.5c0.2,0.2,0.3,0.3,0.5,0.2c0.7-0.2,1.4,0,2.2,0c1-0.2,1.8,0,2.8-0.2h5.1c1,0,1.8,0.3,2.7,0h0.198
		c0.5,0.2,1.002,0.2,1.602,0.3c0.6,0,1.2,0.2,1.801,0.5c0.299,0,0.699,0,0.699,0.5c0,0.4,0.2,0.5,0.5,0.4c0,0,0,0.2,0.2,0.3
		c0,0.4,0.3,0.7,0,1c-0.2,0-0.2-0.2-0.3-0.3c0-0.4,0-0.5-0.5-0.4v-0.3c0-0.4-0.301-0.5-0.602-0.3c-0.199-0.3-0.398-0.4-0.699-0.3
		c0-0.3-0.301-0.3-0.601,0c-0.2,0-0.399,0-0.601-0.2c-0.301-0.2-0.699,0-1,0c0,0,0-0.2-0.399-0.2c0,0-0.2,0,0,0.3H34.25
		c-0.3-0.4-0.6-0.5-0.8,0c-0.5,0.2-1,0-1.3,0h-2.1c0-0.3-0.2-0.4-0.4-0.4c-0.3-0.2-0.3,0-0.3,0.2c-0.3,0-0.7,0.4-1,0
		c-0.7,0.3-1.4,0-2,0c-0.5,0-1-0.3-1.5,0c0,0.2-0.3,0-0.4,0c-0.3-0.3-0.6-0.3-0.8,0c-0.2,0.3-0.5,0.3-0.7,0c-0.3-0.3-0.6-0.3-1,0
		c-0.4,0.4-0.4,0.4-1,0c0,0-0.3-0.2-0.5,0c-0.2,0.4-0.5,0.5-1,0.5h-3.4c-1,0.2-2,0.3-2.8,0.6c-0.4-0.5-1-0.4-1,0
		c-0.6,0.4-1.3,0.3-1.8,0.4c-1.3,0-2.6,0.5-4,0.8c-0.7,0-1.6,0.2-2.4,0.5c0,0-0.4,0-0.3,0.3c0,0.3,0.2,0,0.4,0
		c0.5,0.5,1,0.3,1.5,0.3h1.2c0.3,0.2,0.6,0.2,0.8,0l0.6,0.3c0.3,0,0.5,0,0.5-0.3c0.7,0.2,1.4,0,2,0c0.2,0,0.5-0.2,0.5,0
		s-0.2,0.3-0.3,0.4l-0.9-0.2c-1.4,0.3-2.8,0.7-4,1.4h-0.2c0,0.3-0.4,0.4-0.3,0.7c0,0.4,0.4,0.2,0.6,0.2c0.2,0.2,0.3,0.3,0.5,0.2
		c0.4,0,0.7,0,1-0.2c0,0,0.2,0,0.3-0.2c0.7,0.3,1.3,0,2-0.2h0.1c0.2,0.5-0.3,0.5-0.6,0.6h-0.2c-0.8,0.3-1.7,0.5-2,1.2
		c-0.7,0.3-0.8,0.6-0.4,1h2.7c0.3,0,0.5-0.6,0.8-0.4c0.4,0.2,0.6,0,1,0c0,0.2,0,0.3-0.3,0.4l-1,0.3c-0.2,0.2-0.3,0.3-0.3,0.5
		c-0.4,0.2-0.8,0.3-1,0.8c-0.2,0-0.4,0.2-0.6,0.4c1.4,0.4,2.5,0.4,3.6-0.2c0,0,0,0.2,0.2,0.3c0,0,0,0.3-0.2,0.4
		c-0.3,0-0.6,0.2-0.8,0.5c-0.2,0.2-0.3,0.4-0.6,0.5c-0.2,0-0.3,0-0.2,0.3c0,0.2,0.2,0.3,0.4,0.3h1c0.3,0,0.5,0,0.6-0.3l0.5-0.2
		l0.2,0.2c0.3,0,0.4,0.3,0.3,0.6c-0.4,0-0.2,0.4-0.4,0.601c0,0-0.2,0-0.3,0.2c-0.2,0.199,0,0.5,0,0.799h0.7
		c0.3,0.301,0.4,0.301,0.8-0.199h1.7l1.4-0.7c0-0.3,0.4-0.399,0.8-0.5l1.2-0.3c0-0.2,0.2-0.3,0.4-0.2l-0.2,0.399
		c-0.2,0-0.5,0.3-0.6,0.5c-0.3,0.2-0.6,0.5-1,0.6c-0.3,0-0.5,0-0.8,0.2c-0.3,0-0.4,0.3-0.2,0.6c-0.2,0.2-0.6,0.2-0.3,0.5
		c0.2,0.2,0.6,0.4,1,0.2l2.4-0.8c0.3,0,0.6-0.4,0.7,0v0.2c-0.6,0-0.5,0.3-0.6,0.6c0,0-0.2,0.2,0,0.3c0,0.2,0.2,0,0.3,0
		c1,0,1.6-0.3,2.3-0.6c0.2,0,0.4,0,0.7-0.2c0.2,0.3-0.3,0.3-0.2,0.5c-0.3,0-0.4,0.2-0.3,0.5c0,0.3,0.3,0.5,0.6,0.3h0.2
		c0.5,0.4,1.7,0,2-0.698h0.2l0.6-0.201v0.301c0,0.3,0.3,0.4,0.7,0.199h0.5c0.6,0.301,1.6,0,2-0.799h0.2l0.6-0.302
		c0.2,0,0.5,0,0.8-0.198h0.5c0,0.198,0.2,0.198,0.4,0.198c0.2,0.2,0.5,0.302,1,0c0,0.4,0,0.4-0.3,0.5c-0.2,0-0.5,0-0.6,0.4
		c0,0-1.2,0-1.4-0.2H30.45z"/>
	<path d="M26.45,40.325v-0.3c0.4,0,0.5,0.199,0.6,0.3C26.85,40.325,26.65,40.727,26.45,40.325z"/>
	<path d="M46.45,25.825c0,0.2,0,0.4-0.302,0.6c0-0.2,0-0.4,0.4-0.5L46.45,25.825z M11.65,34.525c0,0,0-0.3,0.2-0.4
		c0.4-0.3,1-0.4,1.6-0.6l1-0.6h-0.8c0,0.2-0.3,0.3-0.5,0.2c0.3-0.3,0.6-0.4,1-0.5l6.8-2.3c0.3,0,0.7-0.2,0.8,0
		c0,0.3-0.3,0.3-0.5,0.5c-1.5,0.3-2.6,1.2-4,1.7c-1.7,0.8-3.5,1.4-5.4,2H11.65z"/>
	<path d="M9.75,32.825c0-0.2,0-0.3,0.3-0.4c0.3,0,0.6-0.2,1-0.4c0.2,0,0.3-0.2,0.2-0.5c0.4,0,1-0.2,1.4,0h0.5l2.2-0.8
		c0.2,0.3,0,0.4-0.2,0.6c0,0-0.3,0-0.4,0.2l-1,0.4c-1,0-2.2,0.6-3.3,1h-0.6L9.75,32.825z M12.15,31.825h0.2l2-0.7l-2,0.6
		L12.15,31.825z M20.45,38.325c0-0.4-0.4,0-0.7,0v-0.5l0.5-0.2c0.2,0,0.3,0,0.5-0.2c0.2,0,0.6,0,0.6-0.5c0.3-0.199,0.5-0.3,0.6-0.6
		c0-0.4,0.5-0.5,1-0.6h0.4l0.2,0.2l-0.5,0.2c-0.2,0.5-0.6,0.601-0.8,1c0,0.3-0.5,0.4-0.8,0.601c-0.3,0-0.4,0.199-0.4,0.5h-0.6
		V38.325z"/>
	<path d="M19.25,36.525c0-0.2,0.3-0.2,0.2-0.4h-0.4c-0.5,0.2-0.8,0.5-1.2,0.4c0.7-0.5,1.5-1,2.4-1.3c0,0,0.2,0,0.3-0.3
		c0-0.4,0.4-0.4,0.7-0.5c0,0,0,0.3,0.2,0.4c0,0.3,0,0.5-0.3,0.5c-0.2,0.2-0.5,0.4-0.6,0.7c-0.3,0.4-0.8,0.4-1.2,0.5H19.25z"/>
	<path d="M35.75,36.925l2.8-1h0.3v0.3c-0.398,0.2-1,0.5-1.5,1c-0.5,0.399-1,0.5-1.699,0c0.301,0,0.399-0.2,0-0.4L35.75,36.925z"/>
	<path d="M13.05,26.125h0.7c0,0,0.2,0.2,0.5,0h0.5c0.5-0.3,1-0.4,1.4-0.5h0.4c0,0.5,0.2,0.5,0.6,0.6h-1c-0.4,0-1,0-1.4,0.3
		c-0.5,0.2-1,0.3-1.7,0c0,0,0.2-0.2,0-0.5V26.125z"/>
	<path d="M14.65,31.325c0-0.2,0.3-0.2,0.4-0.2c0.3-0.2,0.4-0.3,0.2-0.6l0.6-0.2c1.6,0,3-0.6,4.4-1v0.3l-0.6,0.2c0-0.2,0-0.2-0.3,0
		l-2.5,0.7c0,0-0.2,0.2,0,0.4l-1.8,0.4H14.65z M18.65,33.525c-0.3,0.6-0.8,0.8-1.4,1c-0.2,0-0.5,0-0.7,0.2c0-0.2,0.2-0.2,0-0.3h-0.3
		c0,0-0.3,0-0.4,0.3h-0.6c0.8-0.8,1.8-1,2.8-1.4l0.4-0.2c0,0.3-0.4,0-0.5,0.5c0,0,0.4-0.2,0.6,0L18.65,33.525z"/>
	<path d="M13.55,28.325c0.6-0.2,1-0.6,1.8-0.3c0,0.3-0.4,0.3-0.6,0.4c-0.2,0.2-0.6,0.2-0.8,0.5h0.5l-1.5,0.6c-0.5,0.3-1,0.4-1.4,0.2
		c0.2-0.2,0.5,0,0.7-0.4c0.2,0,0.4,0,0.6-0.2c0,0,0.3,0,0.5-0.2c0.3,0,0.2-0.2,0-0.4L13.55,28.325z"/>
	<path d="M39.45,25.025c0.3-0.3,0-0.6,0-1c0.198,0,0.399,0.2,0.5,0.4c0.198,0.7,0.6,1.3,0.399,2v1c0,0.2,0.199,0.4,0,0.5
		c-0.301-0.4-0.5-1-0.5-1.4c-0.201-0.4-0.301-1-0.601-1.3L39.45,25.025z"/>
	<path d="M13.05,36.325c0-0.2,0-0.4-0.3-0.5l-0.2-0.2l2.2-0.7c0,0.4-0.5,0.2-0.7,0.5l1.2-0.3c0,0,0.3-0.2,0.4,0
		c-0.8,0.5-1.6,1-2.5,1.3L13.05,36.325z"/>
	<path d="M29.45,34.325v-0.7c-0.2,0,0,0,0,0c0.3-0.2,0.6-0.3,0.7,0c0.2,0,0.3,0.3,0.3,0.5v0.2c0,0-0.2,0-0.3,0.2
		c0,0.8-0.6,1.3-1.2,2v-0.4c0.2,0,0.3-0.3,0.2-0.6c0.3,0,0.4-0.3,0.2-0.6c0.5,0,0.5,0,0.2-0.5L29.45,34.325z"/>
	<path d="M14.55,28.925c-0.2-0.2-0.4,0-0.6,0c0-0.4,0.5-0.4,0.7-0.5c0.2,0,0.5,0,0.6-0.3c0.3,0,0.7,0,1-0.3c0.4-0.2,1,0,1.4-0.2
		c-1,0.8-2.2,1-3.2,1.4L14.55,28.925z"/>
	<path d="M25.05,32.325c-0.3,0-0.4,0-0.5,0.2l-1.2,1.2c0,0,0-0.3-0.3-0.3c0-0.3,0.2-0.5,0.5-0.6c0.2,0,0.4,0,0.5-0.3
		c0,0-0.2,0-0.4-0.3h1c0,0,0.3,0,0.4,0.2V32.325z"/>
	<path d="M10.05,27.325l0.7-0.3l0.3-0.3c0-0.2-0.3,0-0.4-0.2c0.3,0,0.6-0.3,1-0.3h0.4c0,0.4-0.3,0.3-0.2,0.6c0.2,0,0.4-0.3,0.7,0
		c-0.6,0-1,0.4-1.7,0.5H10.05z"/>
	<path d="M7.05,30.925c0.5-0.7,1.4-1,2.2-1l0.2-0.2c0.3,0.3,0.6,0,1,0c-1.4,0.6-2.4,1.1-3.4,1.3V30.925z"/>
	<path d="M19.75,37.825v0.399l-2.4,0.7c-0.4,0.2-0.8,0-1-0.198c-0.3-0.302,0-0.302,0.3-0.4c0,0.4,0.2,0.5,0.5,0.4
		c0.4-0.201,0.7-0.201,1-0.201c0.3,0,0.6,0,0.8-0.199c0.2-0.301,0.5-0.4,1-0.5L19.75,37.825L19.75,37.825z"/>
	<path d="M26.75,39.525c-0.4,0.199-0.6,0-0.6-0.301v-0.5c0,0,0-0.199-0.2-0.301c0,0,0.2,0,0.3-0.199c0.5,0,0.6-0.199,0.6-0.601
		c0.2,0,0.4,0,0.5-0.2c0.4,0,0.4,0.2,0.5,0.4c-0.2,0-0.3,0-0.4,0.3c0,0,0,0.2-0.2,0.3c-0.4,0-0.5,0.301-0.3,0.7l0.2,0.2
		L26.75,39.525z M10.35,29.825c-0.3,0-0.6,0.2-1,0c0.4-0.2,1-0.2,0.7-0.7c0.6-0.3,1.2-0.4,2-0.3c-0.3,0.4-0.7,0.3-1,0.5
		c-0.2,0-0.2,0.2,0,0.4h-0.7V29.825z"/>
	<path d="M30.45,34.325v-0.2h0.3c0.4,0.3,1,0,1.3,0l1-0.4c0.2,0,0.4-0.2,0.5,0c0,0.3-0.2,0.3-0.4,0.4c-0.6,0.4-1.5,0.4-2.3,0.4
		c-0.2,0-0.3,0-0.3-0.2H30.45z"/>
	<path d="M31.85,39.325c0-0.5,0.4-0.4,0.6-0.5c0.2,0,0.4,0,0.2-0.4l0.2-0.399c0.2,0,0.4,0,0.6-0.199c0.3,0,0.6-0.2,0.8-0.3
		c0,0.2,0,0.399,0.199,0.5c-0.199,0-0.299,0-0.399,0.201c-0.5,0-1,0.299-1,0.799c-0.5,0-0.8,0.201-1.2,0.399V39.325z"/>
	<path d="M28.45,33.325c-0.4,0.2-0.5,0.5-0.6,0.8c0,0.2-0.2,0.5-0.5,0.6c0-0.2,0-0.3-0.2-0.4c0-0.4,0.4-0.6,0.3-1
		C27.85,33.325,28.25,32.925,28.45,33.325z"/>
	<path d="M13.05,33.125h0.6l0.7-0.2c-0.3,0.3-0.6,0.4-1,0.6l-1.5,0.6c0,0,0-0.2-0.2-0.3l1.5-0.7H13.05z"/>
	<path d="M16.75,30.925v-0.4l2.6-0.8h0.3c-1,0.5-2,1-3,1.2H16.75z"/>
	<path d="M20.25,32.125l1.5-0.6h0.4c0.2,0.3,0,0.4,0,0.4c-0.5,0-0.8,0.3-1,0.4c-0.4,0-0.8,0.4-0.8-0.2H20.25z"/>
	<path d="M22.85,39.025c0-0.2,0.4-0.2,0.2-0.5v-0.5c0.2,0,0.5,0,0.7-0.2c0.2,0,0.5-0.2,0.6,0.2c0,0-0.3,0-0.4,0.199
		c-0.4,0-0.5,0.199-0.5,0.399l-0.7,0.3L22.85,39.025z"/>
	<path d="M28.45,33.325c-0.3-0.4-0.7,0-1,0c-0.4-0.2-0.4-0.4,0-0.5l0.6-0.2c0.3,0,0.7,0.2,0.6,0.6h-0.2V33.325z"/>
	<path d="M25.55,33.325v-0.4c0.2-0.2,0.2-0.5,0.6-0.6h0.5c0,0.4,0,0.4-0.2,0.4v0.2c0,0.3-0.2,0.4-0.4,0.4c-0.2,0-0.4,0-0.5,0.2
		V33.325z M9.75,29.125c-0.6,0.3-1.2,0.5-2,0.2l1.5-0.5C9.55,28.825,9.65,29.025,9.75,29.125z"/>
	<path d="M25.35,39.125c-0.4,0.7-1.6,1-2,0.7L25.35,39.125z"/>
	<path d="M26.05,36.125v0.3c-0.5,0.301-0.6,0.801-1,1c0,0,0-0.3-0.2-0.399c0-0.3,0-0.5,0.3-0.5h0.4l0.6-0.2L26.05,36.125z"/>
	<path d="M29.05,38.727c-0.2,0.698-1.2,1-1.8,0.698c0.6,0,1.2-0.399,2-0.6L29.05,38.727z"/>
	<path fill="#CBFEFE" d="M40.55,27.825v-0.5c0-0.3-0.2-0.6,0-1c0.2,0.8,0.3,1.6,0.7,2.2l-0.2,0.2l-0.399-0.3v-0.5L40.55,27.825z"/>
	<path d="M20.25,32.125c0,0.6,0.4,0.2,0.7,0.2c-0.3,0.3-0.4,0.6-0.8,0.6c0-0.3-0.2-0.3-0.5-0.3h-0.5c0.2-0.3,0.5-0.5,1-0.5H20.25z"
		/>
	<path d="M23.45,35.625h-0.4c0-0.3,0-0.4,0.5-0.5c0.2,0,0.4-0.2,0.5-0.3l0.3,0.5h-0.3L23.45,35.625z"/>
	<path d="M42.45,35.125h-0.4c0,0-0.3,0.2-0.3,0v-0.3c0.398,0,0.7-0.2,1-0.3h0.398v0.4h-0.6v0.2H42.45z"/>
	<path fill="#5F5857" d="M11.05,29.725c-0.2-0.2-0.2-0.3,0-0.4c0.3-0.2,0.7,0,1-0.5c0.2,0,0.5,0,0.8-0.2v0.3l-0.5,0.2
		c-0.4,0-0.8,0-1,0.4c0,0-0.3,0-0.4,0.2H11.05z"/>
	<path d="M43.05,29.325c0-0.3,0-0.5,0.3-0.5c0.2,0,0.301-0.2,0.5-0.3c0.301,0,0.4,0,0.5,0.3L43.05,29.325z M24.35,38.025
		c0-0.4-0.4-0.3-0.6-0.2c0-0.4,0.3-0.7,0.7-0.7l0.3,0.4C24.75,37.825,24.75,38.025,24.35,38.025z"/>
	<path d="M20.35,29.625v-0.3c0,0,0.3,0,0.3-0.4c0,0,0-0.3,0.2-0.3c0.2,0,0.3,0,0.3,0.2c0.2,0.2,0.2,0.4,0,0.5
		c-0.2,0-0.4,0.3-0.7,0.3H20.35z M27.05,34.825c0,0.2,0,0.4-0.2,0.5v0.3c0,0.2-0.3,0.3-0.5,0.3v-0.4c-0.2-0.3-0.2-0.4,0-0.5
		c0.3,0,0.4,0,0.6-0.2H27.05z"/>
	<path fill="#5F5857" d="M15.65,35.025c0-0.2-0.3,0-0.4,0c-0.4,0-0.8,0.2-1.2,0.4c0.2-0.2,0.7,0,0.7-0.4c0.2,0,0.3-0.2,0.5-0.3h0.6
		c0,0,0.4-0.2,0.5,0l-0.7,0.4V35.025z"/>
	<path d="M19.25,32.725h0.5c0.3,0,0.5,0,0.5,0.2c-0.3,0-0.6,0.3-1,0.4c0-0.2,0-0.3-0.2-0.4C19.05,32.925,19.25,32.925,19.25,32.725z
		"/>
	<path d="M7.55,29.325c-0.3,0.3-0.6,0.4-1,0.4c-0.2,0-0.3,0-0.4-0.2c0.6-0.4,1-0.2,1.5,0L7.55,29.325z"/>
	<path d="M39.648,35.525c0.4,0,0.701-0.2,1-0.3c0,0,0,0.2,0.201,0.3l-1,0.4C39.85,35.725,39.85,35.625,39.648,35.525z"/>
	<path fill="#5F5857" d="M12.55,26.825c-0.3-0.2-0.5,0-0.7,0c0-0.2,0.3,0,0.2-0.4h0.4c0.2,0,0.4,0.2,0.4,0l0.3-0.2
		c0.2,0.3,0,0.4,0,0.6h-0.5H12.55z"/>
	<path d="M34.449,37.825c0,0,0-0.3-0.199-0.4c0.4,0,0.5,0,0.3-0.399c0.3-0.3,0.5,0,0.8,0c-0.3,0.3-0.8,0.3-0.3,0.7
		c-0.2,0-0.399,0-0.601,0.199V37.825z"/>
	<path d="M38.85,35.925h-0.3c0,0,0-0.3,0.2-0.4c0.3-0.4,0.6-0.4,1,0l-1,0.4H38.85z"/>
	<path d="M35.05,37.625c-0.5-0.399,0-0.399,0.3-0.6h0.4c0.3,0,0.2,0.3,0,0.399l-0.7,0.301V37.625z"/>
	<path fill="#5F5857" d="M19.05,32.925l0.2,0.4c-0.2,0-0.4,0-0.6,0.2h-0.6c0-0.3,0.3,0,0.4-0.4
		C18.65,33.125,18.85,33.125,19.05,32.925z"/>
	<path d="M27.05,39.325h0.2l-0.5,0.2l-0.2-0.2c-0.2-0.4,0-0.601,0.3-0.7c0,0.3,0.2,0.5,0.3,0.7H27.05z"/>
	<path d="M24.35,35.325c0-0.2-0.2-0.4-0.3-0.5c0-0.3,0-0.5,0.4-0.5v0.4c0.3,0.3,0.2,0.5,0,0.6H24.35z"/>
	<path d="M23.05,33.325c0.2,0,0.2,0.3,0.3,0.4l-0.8,0.4c-0.2,0-0.2-0.3-0.3-0.4c0.3,0,0.6-0.2,0.8-0.3V33.325z"/>
	<path d="M44.35,28.925c0.4-0.2,0.602,0.2,1,0.2v0.5c-0.398-0.3-1-0.2-1-0.6V28.925z"/>
	<path d="M22.25,33.725c0,0,0,0.3,0.3,0.4c0,0.3,0,0.5-0.4,0.5c0,0,0-0.3-0.2-0.4c0-0.3,0-0.6,0.4-0.6L22.25,33.725z"/>
	<path d="M27.55,37.925c0-0.199,0-0.399-0.4-0.399c0.2-0.2,0.2-0.5,0.6-0.601c0,0.2,0,0.301,0.2,0.4c0,0.3,0,0.5-0.3,0.6H27.55z"/>
	<path d="M20.05,39.325c0,0,0,0.2-0.3,0l0,0c0.2-0.3,0-0.7,0.6-0.601v0.5c-0.3,0-0.2,0.301-0.2,0.399L20.05,39.325z"/>
	<path d="M21.35,36.825c0,0.4-0.4,0.5-0.6,0.6l-0.5,0.301c0-0.601,0.6-0.7,1-0.801L21.35,36.825z"/>
	<path d="M33.05,38.825c0-0.5,0.5-0.7,1-0.8C33.85,38.525,33.45,38.727,33.05,38.825z"/>
	<path d="M30.85,38.125c-0.3,0-0.6,0.2-0.8,0.3c0,0,0-0.198-0.2-0.3C30.25,38.125,30.55,37.625,30.85,38.125z"/>
	<path d="M28.75,36.125v0.3c0,0.301,0,0.2-0.2,0.301c-0.2,0-0.3,0-0.5,0.199c0-0.3,0-0.5,0.2-0.6L28.75,36.125z"/>
	<path d="M21.85,34.325c0.2,0,0.2,0.2,0.3,0.3l-0.6,0.3c-0.2,0-0.2-0.3-0.2-0.4l0.6-0.3L21.85,34.325z"/>
	<path d="M38.85,35.925l0.801-0.3l0.199,0.4l-1,0.2v-0.4V35.925z"/>
	<path d="M8.55,26.625c0,0.3-0.2,0.3-0.4,0.3c0,0-0.3,0-0.5-0.2c0.4-0.2,0.7-0.5,1,0L8.55,26.625z"/>
	<path d="M12.75,37.825c0,0-0.3,0.2-0.4,0c0-0.2-0.2-0.5,0-0.7l0.3-0.2v1L12.75,37.825z"/>
	<path d="M14.75,26.025c-0.2,0-0.4,0-0.5,0.2c-0.3,0-0.4,0-0.5-0.3c0.3-0.3,0.7-0.4,1,0V26.025z"/>
	<path d="M32.85,37.925l-0.2,0.5c-0.4,0.302-0.7,0.2-1,0c0.4,0,0.8-0.198,1.2-0.399V37.925z"/>
	<path d="M23.05,39.825c-0.2,0.2-0.4,0-0.5-0.3c0-0.301,0-0.4,0.3-0.5v0.399l0.3,0.5L23.05,39.825z"/>
	<path d="M40.85,35.625c0,0,0-0.3-0.199-0.4l0.5-0.2h0.399c0,0.3,0,0.4-0.2,0.4H40.95L40.85,35.625z"/>
	<path d="M13.05,28.925c0,0,0-0.2-0.2-0.3c0.2-0.2,0.4-0.2,0.7-0.3c0.2,0.2,0.3,0.3,0,0.4c-0.2,0-0.4,0.3-0.6,0.2H13.05z"/>
	<path d="M12.05,24.325c0.3-0.4,0.8-0.5,1.2,0c-0.4,0-0.7,0.2-1,0H12.05z"/>
	<path d="M25.25,34.025c0,0.3,0,0.5-0.3,0.5c0,0,0-0.3-0.3-0.3c0-0.3,0-0.6,0.2-0.6c0,0,0,0.3,0.2,0.3L25.25,34.025z"/>
	<path d="M40.648,28.325c0,0.2,0.201,0.3,0.4,0.4v0.5c-0.3-0.2-0.6-0.5-0.6-1h0.199V28.325L40.648,28.325z"/>
	<path d="M34.25,37.325l-0.8,0.4c0.2-0.301,0.3-0.7,0.7-0.7c0.2,0,0.2,0.3,0.2,0.399L34.25,37.325z M25.25,34.025
		c-0.2,0-0.2-0.2-0.3-0.3l0.5-0.3v0.6h-0.3H25.25z"/>
	<path d="M16.85,37.825c0.3,0,0.5,0,0.8-0.2c0,0.3-0.3,0.602-0.6,0.602c0-0.201,0-0.302-0.2-0.5V37.825z"/>
	<path d="M23.05,38.025v0.5c-0.3,0-0.5,0-0.7,0.199C22.55,38.425,22.65,38.125,23.05,38.025z"/>
	<path d="M33.05,23.325c0.2-0.5,0.5-0.4,0.8,0C33.55,23.325,33.25,23.625,33.05,23.325z"/>
	<path d="M29.35,23.125c0-0.2,0-0.4,0.3-0.2c0.2,0,0.3,0,0.3,0.3c-0.3-0.2-0.5,0.2-0.7-0.2L29.35,23.125z"/>
	<path d="M43.05,30.325c0,0,0.3-0.3,0.4,0c0.198,0.3-0.2,0.3-0.4,0.4V30.325z"/>
	<path d="M41.25,29.325c0.398,0,0.6,0,0.6,0.4c-0.398,0-0.5,0-0.6-0.3V29.325z"/>
	<path d="M42.35,30.025c0.301,0,0.5,0,0.602,0.2h-0.5c0,0,0-0.2-0.2-0.3L42.35,30.025z"/>
	<path d="M13.85,37.726c-0.4,0.5-0.5,0.5-0.8,0C13.35,37.525,13.55,37.726,13.85,37.726z"/>
	<path d="M23.05,39.325c0,0-0.2,0-0.2-0.3c0.2,0,0.4,0,0.6-0.2c0,0.3-0.2,0.5-0.5,0.6L23.05,39.325z"/>
	<path d="M29.85,38.025c0,0,0,0.3,0.2,0.398l-0.6,0.301c0-0.301,0-0.601,0.4-0.601V38.025z M25.85,38.525c0,0,0,0.199,0.2,0.3
		l-0.6,0.2C25.45,38.727,25.45,38.525,25.85,38.525z"/>
	<path d="M16.35,34.725c0-0.3-0.4,0-0.5,0c0-0.3,0.3-0.3,0.4-0.4h0.4c0,0.2-0.2,0.2,0,0.4H16.35z"/>
	<path d="M26.65,37.726c0,0.399,0,0.6-0.5,0.6c0-0.301,0.2-0.6,0.6-0.6H26.65z M26.05,36.125c-0.2,0-0.4,0-0.6,0.2
		c0-0.3,0-0.6,0.4-0.6v0.4H26.05z"/>
	<path d="M27.85,37.325l-0.2-0.4h0.4l0.2,0.301h-0.4V37.325z"/>
	<path d="M24.75,34.325c0.2,0,0.2,0,0.2,0.3h-0.5v-0.3h0.2H24.75z"/>
	<path d="M34.55,23.325c0-0.3,0-0.3,0.2-0.4c0.199,0,0.199,0.2,0.199,0.3c-0.199,0-0.399,0.3-0.5,0L34.55,23.325z"/>
	<path d="M26.05,36.125l-0.2-0.4c0,0,0.3,0,0.4-0.2v0.4l-0.3,0.2H26.05z"/>
	<path d="M34.25,37.325v-0.3h0.3c0.2,0.2,0,0.3-0.3,0.399V37.325z"/>
	<path d="M27.05,34.325c0.2,0,0.2,0.2,0.3,0.4h-0.3C26.85,34.725,26.85,34.425,27.05,34.325z"/>
	<path d="M12.65,37.025c0.2-0.3,0-0.601,0.4-0.601c0.2,0.4,0,0.601-0.4,0.7V37.025z"/>
	<path d="M37.35,23.325c0.301,0,0.5,0,0.602,0.4c-0.4,0-0.602,0-0.7-0.3L37.35,23.325z"/>
	<path d="M11.35,29.525c0.2-0.3,0.6-0.4,1-0.4c-0.2,0.3-0.5,0.2-0.7,0.3c0,0.2-0.2,0.2-0.3,0.2V29.525z"/>
	<path d="M24.75,37.525l-0.3-0.4l0.4-0.2c0,0,0,0.301,0.2,0.4C25.05,37.325,24.85,37.325,24.75,37.525z"/>
	<path d="M16.85,37.825c0,0.2,0,0.3,0.2,0.399h-0.4c-0.2-0.199,0-0.399,0.2-0.5V37.825z"/>
	<path d="M28.75,36.125h-0.5c0-0.2,0-0.4,0.4-0.4v0.4H28.75z"/>
	<path d="M21.05,38.325c0-0.4,0-0.6,0.4-0.6c0,0.3,0,0.5-0.4,0.5V38.325z"/>
	<path d="M38.55,24.325c0.4,0,0.601,0,0.601,0.4c-0.199,0-0.399,0-0.5-0.4H38.55z"/>
	<path d="M23.55,38.727c0-0.201,0-0.5,0.4-0.5c0,0.198,0,0.398-0.5,0.398L23.55,38.727z"/>
	<path d="M28.05,37.325v-0.5c0.2,0,0.3,0,0.5-0.2c0,0.3,0,0.5-0.4,0.601L28.05,37.325z"/>
	<path d="M28.75,36.125v-0.4l0.3-0.2C29.05,35.825,29.05,36.025,28.75,36.125z"/>
	<path d="M42.55,30.325h0.4v0.4c-0.302,0-0.4,0-0.5-0.3L42.55,30.325z"/>
	<path d="M36.75,23.325c0.3-0.3,0.5-0.3,0.6,0C37.05,23.525,36.85,23.325,36.75,23.325z"/>
	<path d="M38.05,23.725c0.2-0.2,0.4,0,0.4,0.3c-0.302,0-0.5,0-0.5-0.3H38.05z"/>
	<path d="M29.45,34.325c0.3,0.5,0.3,0.5-0.2,0.6c0-0.2,0-0.4,0.2-0.5V34.325z"/>
	<path d="M25.65,33.925v-0.4c0,0,0.2,0,0.3-0.2c0,0.3,0,0.5-0.4,0.6H25.65z M42.35,30.025c0,0,0,0.3,0.2,0.4
		c-0.3,0.2-0.5,0.2-0.5-0.2h0.3V30.025z"/>
	<path d="M23.45,35.625c0.2,0,0.3,0,0.5-0.2c0,0.4,0,0.6-0.4,0.6c0,0,0-0.2-0.2-0.3L23.45,35.625z"/>
	<path d="M29.25,34.925c0.2,0.3,0,0.5-0.2,0.6C28.85,35.225,29.05,35.025,29.25,34.925z"/>
	<path d="M4.05,26.325c0,0-0.3,0.3-0.3,0c0-0.2,0.2-0.2,0.3-0.2v0.3V26.325z"/>
	<path d="M12.85,26.325c0,0.2-0.2,0-0.4,0H12.85z"/>
	<path d="M12.05,35.825c0,0.3-0.3,0.4-0.5,0.2L12.05,35.825z M44.05,28.625h-0.2H44.05z"/>
	<path d="M25.05,32.325"/>
	<path fill="#FFFFFF" d="M41.05,28.725l-0.399-0.5v-1c-0.199-0.2,0-0.7-0.199-1c0.199-0.7-0.2-1.3-0.5-2l-0.602-0.3
		c0,0,0-0.2-0.199-0.3c0-0.4-0.199-0.5-0.5-0.4c0-0.4-0.399-0.4-0.699-0.5c-0.602-0.3-1.2-0.4-1.801-0.4h-1.5
		c0-0.2-0.201-0.2-0.301-0.2c-1,0.3-1.801,0-2.701,0h-8.1c-0.8,0.2-1.5,0-2.2,0.2c-0.2,0-0.3,0-0.4-0.2c0-0.2,0-0.4,0.4-0.5
		c0,0,0.3,0,0.4-0.3c0-0.2,0-0.4-0.2-0.4c-0.4,0-0.7-0.2-1-0.4h-0.5c0-0.6,0.4-0.5,0.6-0.7h6.2c0.6,0,1,0.3,1.7,0l0.6,0.2l2.5,0.3
		c0.6,0,1.2,0,1.7,0.4h0.8c0.4,0,0.798,0.3,1,0.4h0.601c0,0.4,0.3,0.5,0.601,0.3c0.199,0,0.399,0,0.5,0.3c0,0.2,0.199,0,0.399,0.2
		c1,0.3,2.2,0.5,3.2,1c0.199,0,0.398-0.2,0.6,0c0,0.2,0.2,0.3,0.5,0c0.301,0.2,0.5,0.4,0.801,0.4c0.299-0.2,0.399,0,0.399,0.2
		c0,0.2,0.2,0.3,0.399,0.3c0.301,0,0.399,0,0.5,0.3c0.301,0.7,0.699,1.4,0.199,2c-0.398,0.5-0.3,1-0.199,1.4
		c0,0.3-0.301,0.4-0.5,0.6c-0.199,0.3-0.5,0.4-0.801,0.6c-0.3,0.2-0.8,0.4-1,0H41.05z"/>
	<path d="M20.65,19.825c-0.2,0.2-0.6,0-0.5,0.6c0,0.2-0.2,0.3-0.4,0v-0.5c0-0.2,0.2-0.2,0.4-0.2c0.2,0,0.5,0,0.6,0.2L20.65,19.825z"
		/>
	<path d="M38.75,23.325c0.3,0,0.5,0,0.5,0.4C38.95,23.725,38.75,23.725,38.75,23.325z M41.35,22.925c-0.3,0.2-0.5,0-0.5-0.2
		C41.05,22.725,41.25,22.725,41.35,22.925z"/>
	<path d="M36.25,21.325c-0.3,0.3-0.5,0.2-0.602,0C35.95,21.125,36.148,21.125,36.25,21.325z"/>
	<path d="M31.55,39.325"/>
	<path fill="#5F5857" d="M12.05,31.725l2.2-0.7l-2,0.8L12.05,31.725z"/>
</g>
</svg>
