<svg xmlns="http://www.w3.org/2000/svg" xmlns:xlink="http://www.w3.org/1999/xlink" width="100" height="100" viewBox="0 0 100 100">
  <defs>
    <path id="a" d="M0 0h100v100H0z"/>
  </defs>
  <clipPath id="b">
    <use xlink:href="#a" overflow="visible"/>
  </clipPath>
  <path clip-path="url(#b)" fill="#4D4D4D" d="M29.4 32.5V32l-3 1.6c-6.5 4-12 9-17 15L7.8 50c-2.7 2.4-5.6.6-6.6-1.4-.2-.4 0-.7.4-1 3.5-1.8 6.3-4.3 9-7.2 2.5-2.7 5.5-5 8.3-7.4l1-.7c-4.4 1.5-8.4 3.5-12.2 5.8L9.2 37c.5-.5 1-1 1.5-1.3 6-4.8 12.5-8.6 19.6-11.3 6-2.2 12.3-3.6 18.8-4 12.5-.4 24 3 34.7 9 2.2 1.2 4.3 2.6 6.4 4 .4 0 .6.3.7.6l-13-3 2.3 1.6c5.8 3.8 11 8.3 15.8 13.2l1.8 1.8c.6.7.6 1.3-.2 1.8-1 .5-2 1-3 1.2l-5.2 1c-.2 0-.5.2-.6.4-4 7-9.2 12.7-15.5 17.5-5 3.8-10.6 6.6-17 7.5-3 .4-5.8.4-8.7 0-11.5-1.5-22-5.8-32-11.7-.2 0-.3 0-.4-.3l.8.4c6 2.7 12.2 5.3 18.5 7.2 4.6 1.4 9.3 2.4 14.2 2.6 4.3.2 8.3-.7 12.2-2.5 10.5-5 18.2-13 23.7-23v-.8c-3.8-4.5-8-8.6-13-12v.3c-1.5-2-3.6-2.6-5.4-3.7 4 5 6.2 10.6 5.7 17-.5 6.5-3.5 11.7-8.6 15.7-9 7-22.3 5.7-30-2.8-4.7-5.2-6.7-11-6-18 1-6.7 4.5-12 10-16-2.6 1-5.5 1.4-7.6 3.5M60.7 48c0-3-2.6-5.4-5.6-5.4-2.8 0-5 2.3-5 5 0 3 2.5 5.5 5.5 5.4 3 0 5.2-2.3 5.2-5"/>
  <path clip-path="url(#b)" fill="#FFF" d="M60.7 48c0 2.7-2.2 5-5.2 5S50 50.7 50 47.7c0-2.8 2.2-5 5-5 3 0 5.6 2.2 5.7 5.2"/>
  <circle clip-path="url(#b)" fill="none" stroke="#4D4D4D" stroke-width=".3" stroke-miterlimit="10" cx="49.7" cy="47.8" r="24.2"/>
</svg>
