<?xml version="1.0" encoding="utf-8"?>
<!-- Generator: Adobe Illustrator 16.0.0, SVG Export Plug-In . SVG Version: 6.00 Build 0)  -->
<!DOCTYPE svg PUBLIC "-//W3C//DTD SVG 1.1//EN" "http://www.w3.org/Graphics/SVG/1.1/DTD/svg11.dtd">
<svg version="1.1" id="Layer_1" xmlns="http://www.w3.org/2000/svg" xmlns:xlink="http://www.w3.org/1999/xlink" x="0px" y="0px"
	 width="60px" height="50px" viewBox="20 25 60 50" enable-background="new 20 25 60 50" xml:space="preserve">
<g>
	<defs>
		<rect id="SVGID_1_" x="20.18" y="23.98" width="60" height="60"/>
	</defs>
	<clipPath id="SVGID_2_">
		<use xlink:href="#SVGID_1_"  overflow="visible"/>
	</clipPath>
	<g clip-path="url(#SVGID_2_)">
		<path fill="#FFFFFF" stroke="#4D4D4D" stroke-width="2" stroke-miterlimit="10" d="M52.939,60.82c-0.239,0-1.02-0.6-2.4-1.439
			C47.9,57.7,44.3,54.7,41.959,49.96c-1.38-2.7-1.92-5.22-2.22-7.2l2.58-0.9c-0.6-1.2-1.2-3.18-1.44-5.58
			c-0.18-1.8,0-3.36,0.18-4.56c-1.2-0.3-3.12-0.84-5.4-0.12c-2.1,0.6-3.48,1.56-3.78,1.62l-0.12,0.6v0.24
			c-1.98,18.359,12.18,35.16,29.82,37.32c0.599-0.601,1.8-1.8,2.519-3.601c0.901-2.52,0.601-4.68,0.361-5.64
			c-0.96,0-2.281,0-3.84-0.36c-1.801-0.479-3.12-1.199-4.021-1.8l-1.799,1.98L53,61l-0.24-0.18H52.939z"/>
	</g>
</g>
</svg>
