<?xml version="1.0" encoding="utf-8"?>
<!-- Generator: Adobe Illustrator 16.0.0, SVG Export Plug-In . SVG Version: 6.00 Build 0)  -->
<!DOCTYPE svg PUBLIC "-//W3C//DTD SVG 1.1//EN" "http://www.w3.org/Graphics/SVG/1.1/DTD/svg11.dtd">
<svg version="1.1" id="Layer_1" xmlns="http://www.w3.org/2000/svg" xmlns:xlink="http://www.w3.org/1999/xlink" x="0px" y="0px"
	 width="60px" height="50px" viewBox="-2.375 -3.313 60 50" enable-background="new -2.375 -3.313 60 50" xml:space="preserve">
<g>
	<g>
		<g>
			<g>
				<defs>
					<rect id="SVGID_1_" x="-2.375" y="9.687" width="60" height="37"/>
				</defs>
				<clipPath id="SVGID_2_">
					<use xlink:href="#SVGID_1_"  overflow="visible"/>
				</clipPath>
				<g clip-path="url(#SVGID_2_)">
					<path fill="#FFFFFF" d="M31.876,15.355v0.333l13.334,6.417v-1.667c0.416-2-0.418-3.333-2.002-4.583
						c-0.248-0.167-0.582-0.333-0.832-0.333H31.79L31.876,15.355z M26.458,10.855v1.333c0,0.333,0.167,0.833,0.333,0.833
						c1.417,0.834,2.917,1.667,4.5,2.334v-4.5h-5H26.458z"/>
					<path d="M45.124,42.271H31.79V18.355c1.418,0.833,2.668,1.417,3.919,2l8.831,4.5c0.252,0.168,0.584,0.584,0.584,0.833V42.271
						L45.124,42.271z M39.708,35.605v-5.832h-4.834v9.999h4.834v-3.917h-4.583v-0.25H39.708z M34.959,25.272v4.167h4.749v-4.167
						H34.959z M19.708,42.271h-8.583V29.188h8.583V42.271z M16.791,41.854v-8.667h-4.166v8.667H16.791z M29.79,42.354h-8.333V29.02
						h8.333V42.354z M28.959,38.189v-5.002h-6.667v5.002H28.959z M20.125,29.188h1v13h-1V29.188z M30.29,29.188h0.836v13.083H30.29
						V29.188z M31.79,15.438h10.418c0.333,0,0.666,0.25,0.832,0.417c1.668,1.167,2.502,2.5,2.168,4.583v1.667l-13.334-6.417v-0.25
						L31.79,15.438L31.79,15.438z M26.375,10.855h5v4.5l-4.667-2.25c-0.25-0.167-0.334-0.585-0.334-0.834v-1.417H26.375z"/>
					<path fill="#FFFFFF" d="M39.708,35.605h-4.583v0.25h4.583v3.998h-4.749v-9.999h4.749v5.833V35.605z M34.959,25.272h4.749v4.167
						h-4.749V25.272z M16.791,41.854h-4.166v-8.667h4.166V41.854z M28.959,38.354h-6.667v-5.166h6.667v5.002V38.354z"/>
				</g>
			</g>
		</g>
	</g>
</g>
<path d="M56.124,30.854v11.918h1.335v1.081H-2.209V42.52h2v-0.166V29.02c-0.5-0.166-1.083-0.166-1.833-0.247
	c1.083-0.835,2.166-1.417,3-2.25c1.833-1.833,3.916-2.501,6.417-2.251H9.54v-0.583v-2.5v-0.25c0-1,0.333-1.666,1.167-2.25
	c2.917-1.917,5.666-3.917,8.499-6c0.417-0.333,0.833-0.333,1.25,0c3.333,1.667,6.667,3.333,10.001,4.833
	c0.581,0.333,0.831,0.833,0.831,1.666v8.833H10.458v14.166H9.625V28.854H0.791v13.669h54.167v-0.335v-2.834v-8.499l0.333-1
	l-6.082-3.083L20.625,12.604c-0.665-0.333-1.082-0.333-1.666,0c-3.666,2.75-7.333,5.333-11,7.917l-0.417,0.334H7.375
	c-0.5-1.5-0.334-2.083,0.833-2.916l11.333-8.083h0.167l5.833,3l32,15.999v1.918l-1.666-0.834l0.167,0.834L56.124,30.854z"/>
<g>
	<path d="M12.625,19.188v5.5h16.083v-5.5H12.625z"/>
</g>
<path fill="#FFFFFF" d="M12.625,19.188h16.083v5.5H12.625V19.188z M23.209,24.355h0.166v-5h-0.25v5H23.209z M17.958,19.355h-0.166v5
	h0.166V19.355z"/>
<path d="M23.209,24.355v-5h0.166v5h-0.25H23.209z M17.958,19.438v4.834h-0.166v-4.75h0.166V19.438z"/>
</svg>
