<?xml version="1.0" encoding="utf-8"?>
<!-- Generator: Adobe Illustrator 16.0.0, SVG Export Plug-In . SVG Version: 6.00 Build 0)  -->
<!DOCTYPE svg PUBLIC "-//W3C//DTD SVG 1.1//EN" "http://www.w3.org/Graphics/SVG/1.1/DTD/svg11.dtd">
<svg version="1.1" id="Layer_1" xmlns="http://www.w3.org/2000/svg" xmlns:xlink="http://www.w3.org/1999/xlink" x="0px" y="0px"
	 width="60px" height="50px" viewBox="20 25 60 50" enable-background="new 20 25 60 50" xml:space="preserve">
<g>
	<g>
		<defs>
			<rect id="SVGID_1_" x="24.059" y="29.949" width="51.925" height="51.926"/>
		</defs>
		<clipPath id="SVGID_2_">
			<use xlink:href="#SVGID_1_"  overflow="visible"/>
		</clipPath>
		<path clip-path="url(#SVGID_2_)" fill="#4D4D4D" d="M76.295,71.697c0.104,0.103,0.312,0.207,0.415,0.415l-1.194-0.521
			c-2.076-1.036-4.153-2.231-6.231-3.373c-1.661-0.936-3.427-1.767-5.088-2.805L61.652,63.7c0,0,0.155,0,0.208,0.104l3.115,1.767
			l3.998,2.18l0.728,0.312l-0.313-0.312l-1.143-0.934l1.038,0.519c2.597,1.038,4.882,2.492,6.958,4.362"/>
	</g>
	<g>
		<defs>
			<rect id="SVGID_3_" x="24.059" y="29.949" width="51.925" height="51.926"/>
		</defs>
		<clipPath id="SVGID_4_">
			<use xlink:href="#SVGID_3_"  overflow="visible"/>
		</clipPath>
		<path clip-path="url(#SVGID_4_)" fill="#FFFFFF" d="M74.01,59.131l1.039,0.675l-1.766-0.778l-0.52-0.312H72.66l-1.039-0.519
			c-1.558-0.779-3.114-1.039-4.673-1.403l-0.935-0.259c-1.246-0.313-2.597-0.728-3.738-1.144l-0.26-0.103l-1.454-0.521
			c-0.156,0-0.312-0.104-0.415-0.155l3.945,1.194l3.013,0.728c1.558,0.415,3.219,0.675,4.673,1.35l2.285,1.246"/>
	</g>
	<g>
		<defs>
			<rect id="SVGID_5_" x="24.059" y="29.949" width="51.925" height="51.926"/>
		</defs>
		<clipPath id="SVGID_6_">
			<use xlink:href="#SVGID_5_"  overflow="visible"/>
		</clipPath>
		<path clip-path="url(#SVGID_6_)" fill="#FFFFFF" d="M73.906,59.339l1.038,0.675l-1.816-0.831
			c-1.558-0.829-3.271-1.402-4.984-1.869c-2.077-0.52-4.154-1.038-6.076-1.766c-0.104,0-0.155,0-0.26-0.104l-2.076-0.935
			l0.674,0.208h0.104l3.375,1.246l2.077,0.52l2.337,0.623c1.558,0.362,2.959,0.883,4.361,1.558l1.194,0.623"/>
	</g>
	<g>
		<defs>
			<rect id="SVGID_7_" x="24.059" y="29.949" width="51.925" height="51.926"/>
		</defs>
		<clipPath id="SVGID_8_">
			<use xlink:href="#SVGID_7_"  overflow="visible"/>
		</clipPath>
		<path clip-path="url(#SVGID_8_)" fill="#FFFFFF" d="M71.57,58.145l1.038,0.52c-1.351-0.624-2.804-1.144-4.31-1.558l-2.285-0.52
			c0.312,0,0.623,0.104,0.883,0.207C68.454,57.158,70.116,57.418,71.57,58.145"/>
	</g>
	<g>
		<defs>
			<rect id="SVGID_9_" x="24.059" y="29.949" width="51.925" height="51.926"/>
		</defs>
		<clipPath id="SVGID_10_">
			<use xlink:href="#SVGID_9_"  overflow="visible"/>
		</clipPath>
		<path clip-path="url(#SVGID_10_)" fill="#4D4D4D" d="M69.441,67.75c0.104,0.104,0.207,0.156,0.26,0.312l-0.779-0.363l-3.946-2.077
			l-3.22-1.817L61.549,63.7c0-0.104-0.155-0.156-0.26-0.207l-1.194-0.936c1.245,0.779,2.96,1.817,3.946,2.286
			c1.35,0.727,2.7,1.401,4.154,1.973l1.038,0.934"/>
	</g>
	<g>
		<defs>
			<rect id="SVGID_11_" x="24.059" y="29.949" width="51.925" height="51.926"/>
		</defs>
		<clipPath id="SVGID_12_">
			<use xlink:href="#SVGID_11_"  overflow="visible"/>
		</clipPath>
		<path clip-path="url(#SVGID_12_)" fill="#FFFFFF" d="M65.079,64.998c1.194,0.519,2.233,1.039,3.22,1.818
			c-1.351-0.521-2.752-1.246-4.154-1.973l-3.895-2.286l-0.675-0.519v-0.104l2.285,1.559l3.271,1.559"/>
	</g>
	<g>
		<defs>
			<rect id="SVGID_13_" x="24.059" y="29.949" width="51.925" height="51.926"/>
		</defs>
		<clipPath id="SVGID_14_">
			<use xlink:href="#SVGID_13_"  overflow="visible"/>
		</clipPath>
		<path clip-path="url(#SVGID_14_)" fill="#4D4D4D" d="M61.444,63.493c-0.363-0.261-0.623-0.521-0.935-0.675l-1.142-0.779
			c0,0,0.103,0,0.155,0.103l0.727,0.416l1.144,0.936"/>
	</g>
	<g>
		<defs>
			<rect id="SVGID_15_" x="24.059" y="29.949" width="51.925" height="51.926"/>
		</defs>
		<clipPath id="SVGID_16_">
			<use xlink:href="#SVGID_15_"  overflow="visible"/>
		</clipPath>
		<path clip-path="url(#SVGID_16_)" fill="#FFFFFF" d="M60.095,54.613l0.363,0.155l-0.521-0.207h0.209 M60.146,53.938
			c0,0.207,0,0.313-0.155,0.416v-0.156v-0.104v-0.156l-0.521-1.765c-0.103-0.261-0.207-0.416-0.363-0.52
			c-0.259-0.313-0.519-0.416-1.193-0.363c-0.364,0.104-0.779,0-1.194,0c-0.364,0-0.728-0.209-1.039-0.209l-1.35-0.104l-0.364-0.26
			c0.623,0,1.247,0,1.817,0.104c0.363,0,0.728,0.155,1.039,0.208c0.415,0,0.83,0.104,1.194,0c1.039,0,1.298,0.363,1.558,1.038
			s0.362,1.246,0.52,1.869"/>
	</g>
	<g>
		<defs>
			<rect id="SVGID_17_" x="24.059" y="29.949" width="51.925" height="51.926"/>
		</defs>
		<clipPath id="SVGID_18_">
			<use xlink:href="#SVGID_17_"  overflow="visible"/>
		</clipPath>
		<path clip-path="url(#SVGID_18_)" fill="#FFFFFF" d="M59.991,54.198v0.156h-0.26v-0.104c0.104,0,0.155-0.105,0.155-0.156
			C59.991,54.095,59.991,54.095,59.991,54.198"/>
	</g>
	<g>
		<defs>
			<rect id="SVGID_19_" x="24.059" y="29.949" width="51.925" height="51.926"/>
		</defs>
		<clipPath id="SVGID_20_">
			<use xlink:href="#SVGID_19_"  overflow="visible"/>
		</clipPath>
		<path clip-path="url(#SVGID_20_)" fill="#FFFFFF" d="M59.887,54.354h0.104c0,0,0,0.155-0.156,0.207c-0.104,0-0.208,0-0.26-0.104
			c0,0,0.104,0,0.156-0.104H59.887z M60.095,54.613h-0.208H60.095"/>
	</g>
	<g>
		<defs>
			<rect id="SVGID_21_" x="24.059" y="29.949" width="51.925" height="51.926"/>
		</defs>
		<clipPath id="SVGID_22_">
			<use xlink:href="#SVGID_21_"  overflow="visible"/>
		</clipPath>
		<path clip-path="url(#SVGID_22_)" fill="#FFFFFF" d="M59.887,54.562h-0.104l-0.155-0.104
			C59.627,54.458,59.782,54.458,59.887,54.562 M59.887,54.251c-0.208-0.676-0.416-1.247-0.519-1.87
			c-0.312-0.675-0.779-0.883-1.454-0.779c-0.623,0-1.247,0-1.87-0.155c-0.727-0.155-1.558-0.155-2.232-0.208
			c-1.038-0.156-2.077-0.207-2.959-0.415c-0.364-0.104-0.729-0.416-1.039-0.675L48.1,48.59c0-0.156-0.104-0.312-0.208-0.52
			c0.312,0.416,0.676,0.779,0.884,0.935l1.557,1.247c0.104,0,0.209,0.104,0.26,0.156h0.156c0,0.104,0.104,0.104,0.207,0.104
			l0.52,0.104l2.389,0.26c0.727,0.104,1.558,0.104,2.233,0.26c0.519,0.156,1.194,0.207,1.817,0.156c0.415,0,0.779,0,1.038,0.207
			l0.416,0.779c0.207,0.52,0.311,1.142,0.414,1.714v0.154 M59.887,54.562h-0.104"/>
	</g>
	<g>
		<defs>
			<rect id="SVGID_23_" x="24.059" y="29.949" width="51.925" height="51.926"/>
		</defs>
		<clipPath id="SVGID_24_">
			<use xlink:href="#SVGID_23_"  overflow="visible"/>
		</clipPath>
		<path clip-path="url(#SVGID_24_)" fill="#FFFFFF" d="M59.782,54.251v0.104c-0.519,0-1.038,0-1.401-0.313c0,0,0-0.156-0.155-0.26
			c0.519,0.416,1.038,0.416,1.557,0.416"/>
	</g>
	<g>
		<defs>
			<rect id="SVGID_25_" x="24.059" y="29.949" width="51.925" height="51.926"/>
		</defs>
		<clipPath id="SVGID_26_">
			<use xlink:href="#SVGID_25_"  overflow="visible"/>
		</clipPath>
		<path clip-path="url(#SVGID_26_)" fill="#FFFFFF" d="M59.887,54.562h-0.208c-0.519,0-1.039,0-1.453-0.311
			c-0.104,0-0.104-0.156-0.208-0.26c0.52,0.519,1.039,0.519,1.558,0.519h0.26 M59.575,62.039v0.103
			C58.797,61.416,59.057,61.623,59.575,62.039 M58.744,61.364c0.156,0.311,0,0.519-0.155,0.728c0.104-0.209,0.104-0.363,0-0.52
			l-0.26-0.623l-0.883-2.077v-0.104l-0.364-1.35l-0.83-1.714l-0.364-0.623c0.104,0,0.156,0,0.209,0.104
			c0.363,0.674,0.778,1.402,1.038,2.076c0.26,0.417,0.312,0.937,0.519,1.351l0.831,2.078l0.26,0.623"/>
	</g>
	<g>
		<defs>
			<rect id="SVGID_27_" x="24.059" y="29.949" width="51.925" height="51.926"/>
		</defs>
		<clipPath id="SVGID_28_">
			<use xlink:href="#SVGID_27_"  overflow="visible"/>
		</clipPath>
		<path clip-path="url(#SVGID_28_)" fill="#FFFFFF" d="M58.589,61.623c0.104,0.155,0.104,0.312,0,0.519
			c-0.52,0.416-1.402,0.521-1.922,0.261c-0.155,0-0.312-0.155-0.52-0.311c0.624,0.258,1.247,0.362,1.817,0.104
			c0.208-0.104,0.364-0.208,0.364-0.364c0.155-0.103,0.208-0.208,0-0.519c-0.156-0.623-0.52-1.246-0.676-1.871l-0.207-0.726
			l0.883,2.388L58.589,61.623"/>
	</g>
	<g>
		<defs>
			<rect id="SVGID_29_" x="24.059" y="29.949" width="51.925" height="51.926"/>
		</defs>
		<clipPath id="SVGID_30_">
			<use xlink:href="#SVGID_29_"  overflow="visible"/>
		</clipPath>
		<path clip-path="url(#SVGID_30_)" fill="#FFFFFF" d="M58.537,62.142c0,0,0,0.156-0.156,0.261c-0.363,0.362-1.299,0.519-1.766,0.26
			c-0.778-0.364-1.401-1.195-1.558-1.973l0.519,0.831c0.156,0.258,0.416,0.519,0.676,0.519c0.104,0.208,0.26,0.311,0.52,0.363
			c0.415,0.26,1.35,0.155,1.766-0.207 M59.107,51.602c-0.259-0.207-0.623-0.26-1.038-0.207c-0.623,0-1.246,0-1.869-0.156
			c-0.779-0.156-1.558-0.156-2.285-0.26l-2.336-0.26h0.519l2.233,0.208c0.519,0,0.934,0,1.35,0.104c0.312,0,0.675,0.207,1.039,0.207
			c0.362,0,0.778,0.104,1.142,0c0.623,0,0.936,0.156,1.195,0.363 M58.329,61.364c0.208,0.311,0.155,0.414,0,0.519l-0.104-0.311
			l-0.728-1.921c-0.26-0.624-0.363-1.352-0.623-1.974c-0.208-0.624-0.52-1.143-0.778-1.714l-0.364-0.572h0.208
			c0.363,0.779,0.779,1.455,1.039,2.183c0.259,0.362,0.312,0.83,0.519,1.244c0,0.209,0,0.521,0.155,0.677l0.728,1.817"/>
	</g>
	<g>
		<defs>
			<rect id="SVGID_31_" x="24.059" y="29.949" width="51.925" height="51.926"/>
		</defs>
		<clipPath id="SVGID_32_">
			<use xlink:href="#SVGID_31_"  overflow="visible"/>
		</clipPath>
		<path clip-path="url(#SVGID_32_)" fill="#FFFFFF" d="M58.121,61.987c0.104,0,0.155,0,0.208-0.104c0,0.156-0.156,0.259-0.364,0.364
			c-0.519,0.207-1.193,0.155-1.765-0.155c-0.52-0.52-0.936-1.04-1.038-1.715c0.103,0.313,0.259,0.623,0.519,0.883
			c0.416,0.675,1.558,1.038,2.389,0.675 M58.226,53.835V53.73 M57.135,53.835c0.312-0.104,0.624-0.26,1.038,0H57.135 M56.979,54.095
			c0.312-0.156,0.623-0.26,1.038-0.104c-0.52,0.154-1.558,0.519-1.351,0.363L56.979,54.095 M56.771,54.146l-0.26,0.156
			c-0.104,0-0.208,0.105-0.312,0.208c-0.104,0-0.208,0.104-0.26,0.155C56.097,54.407,56.355,54.146,56.771,54.146"/>
	</g>
	<g>
		<defs>
			<rect id="SVGID_33_" x="24.059" y="29.949" width="51.925" height="51.926"/>
		</defs>
		<clipPath id="SVGID_34_">
			<use xlink:href="#SVGID_33_"  overflow="visible"/>
		</clipPath>
		<path clip-path="url(#SVGID_34_)" fill="#FFFFFF" d="M56.667,54.354l-0.312,0.155l-0.312,0.312c0-0.156,0.104-0.26,0.156-0.312
			l0.415-0.208"/>
	</g>
	<g>
		<defs>
			<rect id="SVGID_35_" x="24.059" y="29.949" width="51.925" height="51.926"/>
		</defs>
		<clipPath id="SVGID_36_">
			<use xlink:href="#SVGID_35_"  overflow="visible"/>
		</clipPath>
		<path clip-path="url(#SVGID_36_)" fill="#FFFFFF" d="M55.992,54.718l0.208-0.156c-0.104,0-0.156,0.156-0.208,0.26h-0.104v-0.156"
			/>
	</g>
	<g>
		<defs>
			<rect id="SVGID_37_" x="24.059" y="29.949" width="51.925" height="51.926"/>
		</defs>
		<clipPath id="SVGID_38_">
			<use xlink:href="#SVGID_37_"  overflow="visible"/>
		</clipPath>
		<path clip-path="url(#SVGID_38_)" fill="#FFFFFF" d="M55.992,54.718v0.207l-0.26,0.52c0-0.26,0.104-0.52,0.26-0.676"/>
	</g>
	<g>
		<defs>
			<rect id="SVGID_39_" x="24.059" y="29.949" width="51.925" height="51.926"/>
		</defs>
		<clipPath id="SVGID_40_">
			<use xlink:href="#SVGID_39_"  overflow="visible"/>
		</clipPath>
		<path clip-path="url(#SVGID_40_)" fill="#FFFFFF" d="M55.94,54.874h0.104c-0.104,0-0.104,0.154-0.156,0.259v-0.259 M54.798,60.793
			H52.98c-0.519-0.156-0.935,0-1.351,0.103c-0.259,0-0.519,0.104-0.777-0.103c-0.312-0.208-0.521-0.416-0.935-0.416
			c0.259,0,0.518,0,0.83,0.104h0.207v0.104c0.313,0.156,0.52,0.156,0.884,0.104c0.414-0.104,0.882-0.259,1.349-0.156l1.039,0.104
			c0,0-0.155,0-0.26-0.104c0.364,0,0.728,0.104,0.883,0.208 M54.383,50.927c-0.156,0-0.364-0.155-0.52-0.312h0.155L54.383,50.927"/>
	</g>
	<g>
		<defs>
			<rect id="SVGID_41_" x="24.059" y="29.949" width="51.925" height="51.926"/>
		</defs>
		<clipPath id="SVGID_42_">
			<use xlink:href="#SVGID_41_"  overflow="visible"/>
		</clipPath>
		<path clip-path="url(#SVGID_42_)" fill="#FFFFFF" d="M54.175,60.689l-1.038-0.156c-0.52-0.156-0.935,0-1.351,0.104
			c-0.312,0-0.519,0-0.831-0.104c0.313,0,0.624,0,1.039-0.103c0.313-0.105,1.193,0,1.921,0.103c0.104,0,0.26,0,0.312,0.104
			 M54.019,50.719c-0.104,0-0.155,0-0.207-0.104c-1.246-0.727-3.479-2.44-4.258-3.323l0.208,0.104c0,0.104,0.104,0.156,0.104,0.156
			v-0.104l4.153,3.115"/>
	</g>
	<g>
		<defs>
			<rect id="SVGID_43_" x="24.059" y="29.949" width="51.925" height="51.926"/>
		</defs>
		<clipPath id="SVGID_44_">
			<use xlink:href="#SVGID_43_"  overflow="visible"/>
		</clipPath>
		<path clip-path="url(#SVGID_44_)" fill="#FFFFFF" d="M53.967,50.2l-0.207-0.155c-1.039-0.416-2.907-1.766-3.791-2.7
			c1.351,1.039,2.7,1.921,3.946,2.804 M53.812,50.615l0.52,0.312c-0.727,0-1.454-0.104-2.181-0.208H51.63l-0.519-0.104
			c-0.104,0-0.208,0-0.259-0.104h-0.156l-0.675-0.52l-1.766-1.558c0,0,0-0.104,0.103-0.104c0.209,0.155,0.521,0.363,0.624,0.519
			l1.559,1.194c0.519,0.415,1.142,0.415,1.766,0.519h1.557"/>
	</g>
	<g>
		<defs>
			<rect id="SVGID_45_" x="24.059" y="29.949" width="51.925" height="51.926"/>
		</defs>
		<clipPath id="SVGID_46_">
			<use xlink:href="#SVGID_45_"  overflow="visible"/>
		</clipPath>
		<path clip-path="url(#SVGID_46_)" fill="#FFFFFF" d="M53.812,50.615c-0.52,0-1.038,0-1.559-0.104c-0.519,0-1.193,0-1.712-0.52
			c-0.52-0.311-1.04-0.727-1.559-1.142l-0.675-0.519l-0.519-0.416h-0.104c-0.104-0.26-0.26-0.416-0.363-0.52h-0.053l-0.519,0.156
			c-0.52-0.104-1.038-0.312-1.402-0.623l0.676,0.363c0.519,0.156,1.037,0.26,1.557-0.208c-0.312,0.155-0.52,0.26-0.726,0.208
			c-0.831,0-1.455-0.415-1.871-1.038l-0.155-0.416l0.364-0.156l1.558-0.416c0.519-0.104,0.882,0,1.194,0.363l1.766,1.766
			c0,0-0.104,0-0.156-0.104c0.831,0.883,3.115,2.596,4.31,3.323 M53.915,60.585c-0.728-0.154-1.558-0.208-1.921-0.104
			c-0.415,0.156-0.727,0.156-1.039,0c-0.311-0.104-0.52-0.311-0.831-0.311c0.261,0,0.521,0,0.729,0.103
			c0.415,0.104,0.83,0.158,1.245,0C52.514,60.116,53.345,60.377,53.915,60.585 M50.8,50.512h0.208h-0.26 M50.645,50.459
			L50.645,50.459 M50.124,60.066h-0.103H50.124 M50.021,60.066c-0.104,0-0.156,0-0.26,0.104h-0.104h0.312L50.021,60.066z"/>
	</g>
	<g>
		<defs>
			<rect id="SVGID_47_" x="24.059" y="29.949" width="51.925" height="51.926"/>
		</defs>
		<clipPath id="SVGID_48_">
			<use xlink:href="#SVGID_47_"  overflow="visible"/>
		</clipPath>
		<path clip-path="url(#SVGID_48_)" fill="#FFFFFF" d="M49.762,47.5v-0.104c-0.52-0.416-1.559-1.558-1.817-1.766
			c-0.313-0.363-0.676-0.519-1.194-0.363l-1.558,0.416l-0.312,0.156c0-0.208,0.208-0.312,0.519-0.364l1.559-0.519h0.519
			c0.208,0,0.363,0.208,0.52,0.363c0.26,0.364,1.558,1.558,1.817,2.077 M49.865,60.325h-0.26h-0.104H49.865 M49.657,60.066
			c-0.312,0.206-0.52,0-0.778-0.104c-0.104,0-0.156-0.156-0.26-0.208l-1.039-1.35l-1.401-1.974l-0.52-1.142l0.52,0.778l1.558,2.077
			c0.312,0.52,0.727,1.038,1.143,1.558c0.208,0.208,0.415,0.364,0.778,0.414"/>
	</g>
	<g>
		<defs>
			<rect id="SVGID_49_" x="24.059" y="29.949" width="51.925" height="51.926"/>
		</defs>
		<clipPath id="SVGID_50_">
			<use xlink:href="#SVGID_49_"  overflow="visible"/>
		</clipPath>
		<path clip-path="url(#SVGID_50_)" fill="#FFFFFF" d="M49.501,60.325c-0.312,0.155-0.519,0-0.778-0.155
			c-1.194-0.935-2.077-2.077-2.699-3.428c0-0.155-0.104-0.259-0.156-0.415l-0.364-0.83l0.521,0.778l0.155,0.155v0.104
			c0.519,1.245,1.401,2.337,2.44,3.219l0.104,0.104c0.208,0.258,0.415,0.519,0.778,0.519 M48.826,46.306
			c-0.259-0.312-0.519-0.52-0.727-0.883c-0.208-0.26-0.415-0.363-0.675-0.416h-0.52l-1.973,0.416c0,0,0-0.104-0.104-0.104
			l0.261-0.104l2.076-0.52c0.363,0,0.675,0.156,0.935,0.52l0.727,1.039 M48.358,48.278l-0.622-0.363
			C47.892,47.916,48.048,48.123,48.358,48.278"/>
	</g>
	<g>
		<defs>
			<rect id="SVGID_51_" x="24.059" y="29.949" width="51.925" height="51.926"/>
		</defs>
		<clipPath id="SVGID_52_">
			<use xlink:href="#SVGID_51_"  overflow="visible"/>
		</clipPath>
		<path clip-path="url(#SVGID_52_)" fill="#FFFFFF" d="M47.528,58.404l1.039,1.35c-1.039-0.882-1.817-1.974-2.389-3.219v-0.104
			L47.528,58.404 M47.685,47.863l0.207,0.312l-0.727-0.623h0.104c0.104,0,0.26,0.156,0.363,0.364 M47.425,45.007h-0.52l-1.558,0.52
			c-0.312,0-0.52,0.104-0.52,0.312c-0.156,0.104-0.156,0.312,0,0.623l0.52,0.52c-0.259-0.156-0.52-0.415-0.676-0.675
			c-0.155-0.26-0.155-0.52-0.104-0.675l0.364-0.208l2.077-0.416H47.425 M47.425,47.396h-0.104H47.425 M47.269,47.396L47.269,47.396"
			/>
	</g>
	<g>
		<defs>
			<rect id="SVGID_53_" x="24.059" y="29.949" width="51.925" height="51.926"/>
		</defs>
		<clipPath id="SVGID_54_">
			<use xlink:href="#SVGID_53_"  overflow="visible"/>
		</clipPath>
		<path clip-path="url(#SVGID_54_)" fill="#FFFFFF" d="M47.217,47.396V47.5c-0.416,0.311-0.883,0.208-1.35,0
			c-0.52-0.156-1.039-0.52-1.351-1.039c-0.207-0.311-0.207-0.623,0-0.882c0,0.26,0,0.52,0.155,0.779
			c0.209,0.26,0.417,0.52,0.676,0.675c0.364,0.312,0.831,0.519,1.35,0.519h0.52"/>
	</g>
	<g>
		<defs>
			<rect id="SVGID_55_" x="24.059" y="29.949" width="51.925" height="51.926"/>
		</defs>
		<clipPath id="SVGID_56_">
			<use xlink:href="#SVGID_55_"  overflow="visible"/>
		</clipPath>
		<path clip-path="url(#SVGID_56_)" fill="#FFFFFF" d="M46.905,47.292l0.52-0.208c-0.52,0.52-1.038,0.416-1.558,0.26l-0.623-0.364
			l-0.52-0.52c-0.156-0.311-0.208-0.519,0-0.623l0.208,0.416c0.415,0.623,1.038,1.038,1.817,1.038 M45.089,52.9
			c0.259,0.415,0.259,0.882-0.105,1.298c0.209-0.363,0.156-0.727,0-1.039c-0.103,0-0.103,0-0.103-0.104v-0.104
			c-0.104-0.155-0.209-0.155-0.364-0.155c-0.104,0-0.26,0-0.363,0.104l-0.156,0.155c0-0.155,0.209-0.259,0.313-0.363
			C44.568,52.484,44.828,52.537,45.089,52.9 M45.036,56.017l0.831,0.311c-0.884-0.104-2.233-0.415-2.804-1.038
			c-0.364-0.521-0.312-1.247,0-1.559c-0.156,0.364-0.156,0.935,0.156,1.298c0.415,0.52,1.038,0.83,1.764,1.039"/>
	</g>
	<g>
		<defs>
			<rect id="SVGID_57_" x="24.059" y="29.949" width="51.925" height="51.926"/>
		</defs>
		<clipPath id="SVGID_58_">
			<use xlink:href="#SVGID_57_"  overflow="visible"/>
		</clipPath>
		<path clip-path="url(#SVGID_58_)" fill="#FFFFFF" d="M45.348,56.067h-0.312l-1.194-0.52c-0.778-0.52-0.935-1.038-0.623-1.869
			h-0.104l0.26-0.207c-0.312,0.883-0.104,1.402,0.675,1.92l1.401,0.676 M44.933,53.108c0.207,0.363,0.26,0.727,0,1.037
			c0,0.105-0.156,0.209-0.261,0.313c0-0.104,0.104-0.156,0.156-0.207c0.312-0.365,0.208-0.832,0-1.195h0.104"/>
	</g>
	<g>
		<defs>
			<rect id="SVGID_59_" x="24.059" y="29.949" width="51.925" height="51.926"/>
		</defs>
		<clipPath id="SVGID_60_">
			<use xlink:href="#SVGID_59_"  overflow="visible"/>
		</clipPath>
		<path clip-path="url(#SVGID_60_)" fill="#FFFFFF" d="M43.79,55.548l1.246,0.52c-0.727-0.209-1.35-0.52-1.817-1.039
			c-0.364-0.363-0.364-0.934-0.208-1.298h0.104C42.803,54.51,42.959,55.028,43.79,55.548 M44.828,45.319c0,0,0.104,0,0.104,0.104
			C44.933,45.423,44.933,45.319,44.828,45.319z"/>
	</g>
	<g>
		<defs>
			<rect id="SVGID_61_" x="24.059" y="29.949" width="51.925" height="51.926"/>
		</defs>
		<clipPath id="SVGID_62_">
			<use xlink:href="#SVGID_61_"  overflow="visible"/>
		</clipPath>
		<path clip-path="url(#SVGID_62_)" fill="#FFFFFF" d="M44.828,45.319c0,0,0.104,0,0.104,0.104c-0.156,0-0.261,0.104-0.364,0.156
			l0.26-0.208 M44.828,53.056c0.208,0.363,0.312,0.83,0,1.143c0.155-0.313,0-0.727-0.207-1.039c-0.104-0.155-0.26-0.155-0.415-0.104
			l-0.416,0.26c0-0.156,0-0.207,0.104-0.26c0.156,0,0.312-0.104,0.519-0.208c0.208,0,0.312,0.104,0.52,0.261"/>
	</g>
	<g>
		<defs>
			<rect id="SVGID_63_" x="24.059" y="29.949" width="51.925" height="51.926"/>
		</defs>
		<clipPath id="SVGID_64_">
			<use xlink:href="#SVGID_63_"  overflow="visible"/>
		</clipPath>
		<path clip-path="url(#SVGID_64_)" fill="#FFFF00" d="M44.828,45.319c-3.427-3.427-13.241-12.773-16.771-15.889
			c2.752,1.87,8.463,7.27,12.617,11.528l0.415,0.415l2.597,2.752c0.104,0,0.156,0.104,0.208,0.156L44.828,45.319"/>
	</g>
	<g>
		<defs>
			<rect id="SVGID_65_" x="24.059" y="29.949" width="51.925" height="51.926"/>
		</defs>
		<clipPath id="SVGID_66_">
			<use xlink:href="#SVGID_65_"  overflow="visible"/>
		</clipPath>
		<path clip-path="url(#SVGID_66_)" fill="#FFFFFF" d="M44.828,54.251l-0.156,0.207c0-0.104,0-0.156,0.104-0.207"/>
	</g>
	<g>
		<defs>
			<rect id="SVGID_67_" x="24.059" y="29.949" width="51.925" height="51.926"/>
		</defs>
		<clipPath id="SVGID_68_">
			<use xlink:href="#SVGID_67_"  overflow="visible"/>
		</clipPath>
		<path clip-path="url(#SVGID_68_)" fill="#FFFFFF" d="M44.672,54.354c0.104,0,0.261-0.104,0.312-0.209
			c0,0.209-0.259,0.364-0.518,0.52l0.155-0.207 M43.945,50.927c0.416,0.104,0.676,0.364,0.676,0.779
			c0,0.104-0.155,0.363-0.312,0.519l0.156-0.363v-0.104c0-0.26-0.156-0.52-0.364-0.727C44.102,51.031,43.997,51.031,43.945,50.927
			 M44.102,52.9l0.364-0.104H44.31l-0.364,0.312C43.945,53.004,44.05,52.952,44.102,52.9"/>
	</g>
	<g>
		<defs>
			<rect id="SVGID_69_" x="24.059" y="29.949" width="51.925" height="51.926"/>
		</defs>
		<clipPath id="SVGID_70_">
			<use xlink:href="#SVGID_69_"  overflow="visible"/>
		</clipPath>
		<path clip-path="url(#SVGID_70_)" fill="#FFFFFF" d="M44.413,51.758v0.155c0,0.104,0,0.208-0.104,0.364L43.53,52.9h-0.104
			c0.104,0,0.208-0.156,0.312-0.26l0.104-0.104c0.155-0.156,0.26-0.26,0.312-0.416c0.156-0.156,0.208-0.26,0.208-0.415"/>
	</g>
	<g>
		<defs>
			<rect id="SVGID_71_" x="24.059" y="29.949" width="51.925" height="51.926"/>
		</defs>
		<clipPath id="SVGID_72_">
			<use xlink:href="#SVGID_71_"  overflow="visible"/>
		</clipPath>
		<path clip-path="url(#SVGID_72_)" fill="#FFFFFF" d="M44.31,52.277c0,0.104-0.156,0.207-0.26,0.311L43.53,52.9
			c0.312-0.208,0.52-0.52,0.727-0.52 M44.413,51.758c0,0.104,0,0.207-0.207,0.363c0.155-0.26,0-0.52-0.261-0.883l-1.038-0.207
			l0.883,0.104c0.312,0.104,0.52,0.312,0.623,0.52"/>
	</g>
	<g>
		<defs>
			<rect id="SVGID_73_" x="24.059" y="29.949" width="51.925" height="51.926"/>
		</defs>
		<clipPath id="SVGID_74_">
			<use xlink:href="#SVGID_73_"  overflow="visible"/>
		</clipPath>
		<path clip-path="url(#SVGID_74_)" fill="#FFFFFF" d="M43.945,51.238c0.261,0.363,0.416,0.623,0.312,0.883
			c-0.155,0-0.207,0.104-0.26,0.207l-0.311,0.364l-0.675,0.416c0.104,0,0.208,0,0.312-0.104c-0.259,0.259-0.52,0.52-0.727,0.52
			c-0.104,0-0.156,0.104-0.156,0.104v0.104c-0.416,0.104-0.831,0-1.194-0.312c-0.415-0.311-0.519-0.622-0.415-1.038h0.156
			c0.519-0.52,1.038-0.883,1.558-1.299h0.104c0,0,0.363,0.156,1.039,0.26"/>
	</g>
	<g>
		<defs>
			<rect id="SVGID_75_" x="24.059" y="29.949" width="51.925" height="51.926"/>
		</defs>
		<clipPath id="SVGID_76_">
			<use xlink:href="#SVGID_75_"  overflow="visible"/>
		</clipPath>
		<path clip-path="url(#SVGID_76_)" fill="#FFFFFF" d="M44.05,52.277l0.207-0.156l-0.415,0.416c0,0-0.104,0-0.156,0.104
			c0-0.104,0.104-0.26,0.259-0.313 M44.725,45.111l-0.831-0.831l-0.156-0.156l-2.7-2.752l-0.416-0.415
			c-2.752-2.908-5.971-6.127-8.256-8.153C36.313,35.401,41.505,41.632,44.725,45.111 M43.53,52.9l-0.155,0.104
			C43.479,53.004,43.479,53.004,43.53,52.9"/>
	</g>
	<g>
		<defs>
			<rect id="SVGID_77_" x="24.059" y="29.949" width="51.925" height="51.926"/>
		</defs>
		<clipPath id="SVGID_78_">
			<use xlink:href="#SVGID_77_"  overflow="visible"/>
		</clipPath>
		<path clip-path="url(#SVGID_78_)" fill="#FFFFFF" d="M43.79,52.641l-0.364,0.312l-0.311,0.156l0.623-0.521 M42.907,50.719
			l-0.519,0.363l-1.35,0.831c-0.104,0-0.156,0.156-0.26,0.208l0.416-0.52l1.298-0.675l0,0
			C42.647,50.927,42.751,50.823,42.907,50.719 M42.751,53.523l0.624-0.52c0,0.155-0.52,0.364-0.676,0.52 M42.751,50.979
			l-1.558,1.299h-0.156l0.26-0.313l1.142-0.83L42.751,50.979 M42.647,53.679c-0.415,0.313-1.142,0.104-1.558-0.26
			c-0.363-0.363-0.415-0.727,0-1.038c-0.259,0.312-0.103,0.623,0.312,1.038C41.765,53.627,42.18,53.782,42.647,53.679
			 M42.751,53.523h-0.156h0.104 M42.544,49.577c0.259,0.26,0.311,0.52,0.104,0.883V50.2c0-0.259-0.155-0.415-0.52-0.674
			c-0.415-0.312-0.779-0.104-1.142,0c0.727-0.416,1.038-0.416,1.558,0 M42.596,50.2L42.596,50.2"/>
	</g>
	<g>
		<defs>
			<rect id="SVGID_79_" x="24.059" y="29.949" width="51.925" height="51.926"/>
		</defs>
		<clipPath id="SVGID_80_">
			<use xlink:href="#SVGID_79_"  overflow="visible"/>
		</clipPath>
		<path clip-path="url(#SVGID_80_)" fill="#FFFFFF" d="M42.596,50.563v-0.104c0,0.156,0,0.312-0.104,0.519L42.596,50.563"/>
	</g>
	<g>
		<defs>
			<rect id="SVGID_81_" x="24.059" y="29.949" width="51.925" height="51.926"/>
		</defs>
		<clipPath id="SVGID_82_">
			<use xlink:href="#SVGID_81_"  overflow="visible"/>
		</clipPath>
		<path clip-path="url(#SVGID_82_)" fill="#FFFFFF" d="M42.596,50.2v0.312c0-0.312-0.312-0.52-0.624-0.779
			c-0.311-0.156-0.519-0.104-0.83,0c-0.156,0-0.26,0-0.364,0.104c0.727-0.52,1.039-0.52,1.558,0c0.104,0.156,0.208,0.26,0.208,0.416
			"/>
	</g>
	<g>
		<defs>
			<rect id="SVGID_83_" x="24.059" y="29.949" width="51.925" height="51.926"/>
		</defs>
		<clipPath id="SVGID_84_">
			<use xlink:href="#SVGID_83_"  overflow="visible"/>
		</clipPath>
		<path clip-path="url(#SVGID_84_)" fill="#FFFFFF" d="M42.596,50.563c0,0.104,0,0.26-0.104,0.363l-1.298,0.831l-0.416,0.52
			l-0.104,0.104c0,0-0.208-0.104-0.519-0.104l-0.363-0.364c-0.26-0.312-0.26-0.675,0-1.038v-0.104c0,0,0-0.104,0.104-0.156
			l1.298-0.934c0.208-0.104,0.519-0.156,0.778,0c0.312,0.259,0.52,0.519,0.624,0.831 M42.492,50.927L42.492,50.927"/>
	</g>
	<g>
		<defs>
			<rect id="SVGID_85_" x="24.059" y="29.949" width="51.925" height="51.926"/>
		</defs>
		<clipPath id="SVGID_86_">
			<use xlink:href="#SVGID_85_"  overflow="visible"/>
		</clipPath>
		<path clip-path="url(#SVGID_86_)" fill="#FFFFFF" d="M41.194,53.575c0.416,0.311,0.831,0.52,1.35,0.311
			c-0.727,0.521-1.974-0.155-2.077-0.882c0-0.26,0.104-0.52,0.208-0.676c0,0,0-0.104,0.104-0.154
			c-0.104,0.207-0.156,0.363-0.104,0.623c0,0.207,0.156,0.415,0.364,0.622c0.104,0,0.156,0.104,0.208,0.156"/>
	</g>
	<g>
		<defs>
			<rect id="SVGID_87_" x="24.059" y="29.949" width="51.925" height="51.926"/>
		</defs>
		<clipPath id="SVGID_88_">
			<use xlink:href="#SVGID_87_"  overflow="visible"/>
		</clipPath>
		<path clip-path="url(#SVGID_88_)" fill="#FFFFFF" d="M42.44,51.135l-1.142,0.83l-0.312,0.363c-0.312,0.416-0.26,0.78,0,1.144
			c-0.156-0.209-0.312-0.52-0.312-0.675c0-0.313,0-0.52,0.104-0.676c0.104,0,0.155-0.156,0.311-0.208
			C41.505,51.602,41.972,51.395,42.44,51.135 M41.089,41.373l2.597,2.752L41.089,41.373 M41.194,49.681l-1.298,0.778l0.675-0.519
			c0.104,0,0.156-0.104,0.26-0.156l0.312-0.104"/>
	</g>
	<g>
		<defs>
			<rect id="SVGID_89_" x="24.059" y="29.949" width="51.925" height="51.926"/>
		</defs>
		<clipPath id="SVGID_90_">
			<use xlink:href="#SVGID_89_"  overflow="visible"/>
		</clipPath>
		<path clip-path="url(#SVGID_90_)" fill="#4D4D4D" d="M40.831,49.785h-0.156v-0.104C40.778,49.681,40.831,49.785,40.831,49.785"/>
	</g>
	<g>
		<defs>
			<rect id="SVGID_91_" x="24.059" y="29.949" width="51.925" height="51.926"/>
		</defs>
		<clipPath id="SVGID_92_">
			<use xlink:href="#SVGID_91_"  overflow="visible"/>
		</clipPath>
		<path clip-path="url(#SVGID_92_)" fill="#FFFFFF" d="M40.674,49.681l-0.727,0.727l-0.156,0.156l-0.52,0.415
			C39.532,50.304,40.155,49.681,40.674,49.681z M40.155,52.174h0.519l-0.104,0.104c-0.259,0-0.52-0.104-0.778-0.208h0.104
			l0.364,0.104"/>
	</g>
	<g>
		<defs>
			<rect id="SVGID_93_" x="24.059" y="29.949" width="51.925" height="51.926"/>
		</defs>
		<clipPath id="SVGID_94_">
			<use xlink:href="#SVGID_93_"  overflow="visible"/>
		</clipPath>
		<path clip-path="url(#SVGID_94_)" fill="#4D4D4D" d="M40.674,49.681H40.57H40.674"/>
	</g>
	<g>
		<defs>
			<rect id="SVGID_95_" x="24.059" y="29.949" width="51.925" height="51.926"/>
		</defs>
		<clipPath id="SVGID_96_">
			<use xlink:href="#SVGID_95_"  overflow="visible"/>
		</clipPath>
		<path clip-path="url(#SVGID_96_)" fill="#FFFFFF" d="M40.155,49.005l0.208,0.312l-1.558-0.779l-1.765-0.831l-3.479-2.233
			c-0.623-0.519-1.194-0.882-1.817-1.298c0.675,0.312,1.35,0.623,1.973,1.039l4.518,2.804l0.883,0.519l1.039,0.364 M40.155,52.174
			h0.104h-0.364h0.312 M40.155,52.174h-0.26l-0.312-0.261c-0.312-0.415-0.26-0.831,0.104-1.245c-0.208,0.363-0.208,0.727,0,1.038
			l0.519,0.415 M39.896,50.459c0,0,0,0.104-0.104,0.156C39.792,50.512,39.896,50.512,39.896,50.459"/>
	</g>
	<g>
		<defs>
			<rect id="SVGID_97_" x="24.059" y="29.949" width="51.925" height="51.926"/>
		</defs>
		<clipPath id="SVGID_98_">
			<use xlink:href="#SVGID_97_"  overflow="visible"/>
		</clipPath>
		<path clip-path="url(#SVGID_98_)" fill="#4D4D4D" d="M39.324,49.161c0.26,0,0.52,0.156,0.779,0.26l-0.831-0.312"/>
	</g>
	<g>
		<defs>
			<rect id="SVGID_99_" x="24.059" y="29.949" width="51.925" height="51.926"/>
		</defs>
		<clipPath id="SVGID_100_">
			<use xlink:href="#SVGID_99_"  overflow="visible"/>
		</clipPath>
		<path clip-path="url(#SVGID_100_)" fill="#FFFFFF" d="M39.792,50.563v0.104c-0.416,0.363-0.52,0.778-0.208,1.193
			c-0.312-0.207-0.416-0.52-0.312-0.935c0.104-0.155,0.312-0.259,0.52-0.415 M39.636,52.018L39.636,52.018"/>
	</g>
	<g>
		<defs>
			<rect id="SVGID_101_" x="24.059" y="29.949" width="51.925" height="51.926"/>
		</defs>
		<clipPath id="SVGID_102_">
			<use xlink:href="#SVGID_101_"  overflow="visible"/>
		</clipPath>
		<path clip-path="url(#SVGID_102_)" fill="#FFFFFF" d="M39.636,51.913v0.104c-0.363-0.208-0.519-0.52-0.519-0.831l0.208-0.26
			c-0.104,0.364,0,0.728,0.26,0.935"/>
	</g>
	<g>
		<defs>
			<rect id="SVGID_103_" x="24.059" y="29.949" width="51.925" height="51.926"/>
		</defs>
		<clipPath id="SVGID_104_">
			<use xlink:href="#SVGID_103_"  overflow="visible"/>
		</clipPath>
		<path clip-path="url(#SVGID_104_)" fill="#4D4D4D" d="M39.324,49.161l-0.727-0.363c-2.077-1.039-4.154-2.181-6.127-3.427
			c-0.779-0.52-1.558-0.883-2.336-1.35c-1.039-0.675-5.971-4.57-6.75-5.608l4.154,3.116c0.675,0.883,1.713,1.61,2.751,2.285
			c0.779,0.52,1.559,0.831,2.337,1.298c1.454,0.935,2.908,1.766,4.414,2.596l1.038,0.52c0.26,0.259,0.519,0.519,0.883,0.623
			l0.363,0.259"/>
	</g>
	<g>
		<defs>
			<rect id="SVGID_105_" x="24.059" y="29.949" width="51.925" height="51.926"/>
		</defs>
		<clipPath id="SVGID_106_">
			<use xlink:href="#SVGID_105_"  overflow="visible"/>
		</clipPath>
		<path clip-path="url(#SVGID_106_)" fill="#FFFFFF" d="M38.234,49.161c0,0.935,0.52,1.247,1.039,1.247
			c-0.26,0.156-0.519,0.26-0.675,0C38.286,50.148,37.974,49.681,38.234,49.161"/>
	</g>
	<g>
		<defs>
			<rect id="SVGID_107_" x="24.059" y="29.949" width="51.925" height="51.926"/>
		</defs>
		<clipPath id="SVGID_108_">
			<use xlink:href="#SVGID_107_"  overflow="visible"/>
		</clipPath>
		<path clip-path="url(#SVGID_108_)" fill="#FFFFFF" d="M38.078,49.058c0,0.935,0.416,1.661,0.935,1.558
			c-0.259,0.26-0.363,0.26-0.519,0c-0.363-0.208-0.779-1.039-0.52-1.558"/>
	</g>
	<g>
		<defs>
			<rect id="SVGID_109_" x="24.059" y="29.949" width="51.925" height="51.926"/>
		</defs>
		<clipPath id="SVGID_110_">
			<use xlink:href="#SVGID_109_"  overflow="visible"/>
		</clipPath>
		<path clip-path="url(#SVGID_110_)" fill="#4D4D4D" d="M33.561,45.527c1.143,0.727,2.336,1.402,3.479,2.181
			c-1.558-0.831-2.96-1.662-4.414-2.596c-0.727-0.519-1.558-0.831-2.337-1.298c-1.038-0.675-2.077-1.402-2.803-2.336l0.311,0.26
			c0.208,0.208,0.364,0.519,0.623,0.519c0.935,1.039,2.077,1.558,3.323,1.973l1.817,1.246"/>
	</g>
	<g>
		<defs>
			<rect id="SVGID_111_" x="24.059" y="29.949" width="51.925" height="51.926"/>
		</defs>
		<clipPath id="SVGID_112_">
			<use xlink:href="#SVGID_111_"  overflow="visible"/>
		</clipPath>
		<path clip-path="url(#SVGID_112_)" fill="#4D4D4D" d="M31.743,44.28c-1.194-0.519-2.388-1.038-3.323-1.973
			c-0.259-0.104-0.415-0.363-0.623-0.52l0.623,0.416C29.563,42.826,30.653,43.554,31.743,44.28"/>
	</g>
	<g>
		<defs>
			<rect id="SVGID_113_" x="24.059" y="29.949" width="51.925" height="51.926"/>
		</defs>
		<clipPath id="SVGID_114_">
			<use xlink:href="#SVGID_113_"  overflow="visible"/>
		</clipPath>
		<path clip-path="url(#SVGID_114_)" fill="#FFFFFF" d="M27.797,41.736c-0.104,0-0.208-0.156-0.311-0.26
			c-0.104,0-0.156-0.104-0.208-0.208c0.208,0.104,0.364,0.312,0.519,0.519"/>
	</g>
	<g>
		<defs>
			<rect id="SVGID_115_" x="24.059" y="29.949" width="51.925" height="51.926"/>
		</defs>
		<clipPath id="SVGID_116_">
			<use xlink:href="#SVGID_115_"  overflow="visible"/>
		</clipPath>
		<path clip-path="url(#SVGID_116_)" fill="none" stroke="#4D4D4D" stroke-miterlimit="10" d="M50.124,60.066h-0.519 M53.915,60.585
			c-0.519-0.208-1.401-0.519-1.765-0.313c-0.416,0.158-0.831,0.104-1.247,0c-0.207-0.103-0.519-0.103-0.675-0.103 M50.177,60.066
			c0.259,0.104,0.52,0.311,0.727,0.519 M49.657,60.066l0.104,0.104h0.26 M48.619,59.754c0.104,0,0.156,0.156,0.26,0.208
			c0.208,0.154,0.519,0.311,0.778,0.154"/>
	</g>
	<g>
		<defs>
			<rect id="SVGID_117_" x="24.059" y="29.949" width="51.925" height="51.926"/>
		</defs>
		<clipPath id="SVGID_118_">
			<use xlink:href="#SVGID_117_"  overflow="visible"/>
		</clipPath>
		<path clip-path="url(#SVGID_118_)" fill="none" stroke="#4D4D4D" stroke-miterlimit="10" d="M49.657,60.066
			c-0.363,0-0.52-0.156-0.778-0.415l-1.194-1.559c-0.52-0.624-1.039-1.351-1.454-2.076l-0.519-0.728
			c0.103,0.415,0.312,0.778,0.519,1.142 M58.589,62.142c0.208-0.259,0.312-0.519,0.155-0.777l-0.26-0.521
			c-0.259-0.777-0.52-1.454-0.882-2.18c-0.156-0.416-0.208-0.884-0.416-1.298l-1.039-2.077l-0.26-0.156c0-0.104,0-0.208,0.156-0.312
			 M58.329,61.883l-0.208,0.104c-0.83,0.415-1.974,0-2.44-0.675c-0.26-0.261-0.416-0.52-0.519-0.882
			c0,0.621,0.519,1.244,1.038,1.661"/>
	</g>
	<g>
		<defs>
			<rect id="SVGID_119_" x="24.059" y="29.949" width="51.925" height="51.926"/>
		</defs>
		<clipPath id="SVGID_120_">
			<use xlink:href="#SVGID_119_"  overflow="visible"/>
		</clipPath>
		<path clip-path="url(#SVGID_120_)" fill="none" stroke="#4D4D4D" stroke-miterlimit="10" d="M55.94,54.874v0.259l0.312,0.623
			c0.312,0.52,0.52,1.144,0.83,1.713l0.364,1.35 M56.252,54.562c0-0.104,0.155-0.207,0.312-0.26c0-0.104,0.156-0.156,0.26-0.207
			c-0.363,0.104-0.623,0.313-0.779,0.519 M59.887,54.251h-0.104c-0.519,0-1.143,0-1.557-0.521 M59.107,51.602l0.363,0.52
			l0.521,1.817v0.156 M51.06,50.615h0.52 M47.736,47.916c0.155,0,0.363,0.207,0.622,0.363c0,0,0,0.104-0.103,0.104l1.713,1.558
			l0.623,0.519"/>
	</g>
	<g>
		<defs>
			<rect id="SVGID_121_" x="24.059" y="29.949" width="51.925" height="51.926"/>
		</defs>
		<clipPath id="SVGID_122_">
			<use xlink:href="#SVGID_121_"  overflow="visible"/>
		</clipPath>
		<path clip-path="url(#SVGID_122_)" fill="none" stroke="#4D4D4D" stroke-miterlimit="10" d="M53.812,50.615
			c-0.52,0-1.038,0-1.559-0.104c-0.519,0-1.193,0-1.712-0.52c-0.52-0.311-1.04-0.727-1.559-1.142l-0.675-0.519l-0.519-0.416
			 M59.991,54.354c0.155,0,0.155-0.209,0.155-0.416c-0.155-0.52-0.26-1.194-0.52-1.817c-0.259-0.727-0.52-1.143-1.558-1.039h-1.194
			c-0.312-0.104-0.675-0.259-1.038-0.259l-1.818-0.155 M58.173,53.835c0.104,0,0.156,0.156,0.208,0.207
			c0.52,0.26,0.935,0.313,1.454,0.313 M58.173,53.835c-0.414-0.26-0.727-0.104-1.038,0H58.173z M27.797,41.736l-0.519-0.52
			c0,0.156,0.104,0.208,0.208,0.26 M37.04,47.708l1.713,0.831c0.208,0.104,1.402,0.676,1.558,0.831c0.104,0-0.208-0.312-0.208-0.364
			l-1.038-0.363l-0.935-0.52c-1.455-1.038-3.012-1.921-4.466-2.855c-0.623-0.416-1.298-0.727-1.973-1.039 M59.523,62.142
			c-0.727-0.726-0.52-0.519,0-0.103l0.727,0.519"/>
	</g>
	<g>
		<defs>
			<rect id="SVGID_123_" x="24.059" y="29.949" width="51.925" height="51.926"/>
		</defs>
		<clipPath id="SVGID_124_">
			<use xlink:href="#SVGID_123_"  overflow="visible"/>
		</clipPath>
		<path clip-path="url(#SVGID_124_)" fill="none" stroke="#4D4D4D" stroke-miterlimit="10" d="M68.299,66.816
			c-1.039-0.728-2.077-1.3-3.115-1.818l-3.323-1.559c-0.779-0.413-1.455-1.037-2.233-1.557v0.156l-0.104,0.103 M72.712,58.716
			l0.52,0.312l1.817,0.778c-0.312-0.26-0.675-0.519-1.039-0.675l-2.284-1.246c-1.453-0.675-3.115-0.935-4.673-1.35l-3.012-0.728
			l-3.946-1.194"/>
	</g>
	<g>
		<defs>
			<rect id="SVGID_125_" x="24.059" y="29.949" width="51.925" height="51.926"/>
		</defs>
		<clipPath id="SVGID_126_">
			<use xlink:href="#SVGID_125_"  overflow="visible"/>
		</clipPath>
		<path clip-path="url(#SVGID_126_)" fill="none" stroke="#4D4D4D" stroke-miterlimit="10" d="M60.51,54.769l1.558,0.521
			l0.208,0.103c1.194,0.416,2.492,0.831,3.738,1.144 M43.894,44.28l0.831,0.831c-3.219-3.479-8.412-9.658-12.462-12.358
			c2.389,2.077,5.608,5.297,8.412,8.205 M44.828,45.319c-0.104,0-0.207,0.156-0.26,0.26 M47.425,45.007
			c0.26,0,0.52,0.156,0.675,0.416c0.208,0.312,0.52,0.519,0.727,0.883L48.1,45.163c-0.26-0.312-0.52-0.519-1.039-0.416
			c-0.623,0.156-1.298,0.26-1.972,0.52h-0.261 M45.348,46.98l0.676,0.364c0.519,0.156,1.037,0.26,1.557-0.208
			c-0.312,0.103-0.52,0.259-0.726,0.208c-0.831,0-1.455-0.416-1.871-1.039l-0.155-0.416 M41.089,53.419
			c0.416,0.363,1.143,0.52,1.558,0.26c-0.52,0.104-0.883,0-1.246-0.311c-0.415-0.313-0.519-0.624-0.415-1.04 M42.492,50.979
			c-0.52,0.208-0.883,0.416-1.298,0.676l-0.416,0.52"/>
	</g>
	<g>
		<defs>
			<rect id="SVGID_127_" x="24.059" y="29.949" width="51.925" height="51.926"/>
		</defs>
		<clipPath id="SVGID_128_">
			<use xlink:href="#SVGID_127_"  overflow="visible"/>
		</clipPath>
		<path clip-path="url(#SVGID_128_)" fill="none" stroke="#4D4D4D" stroke-miterlimit="10" d="M42.44,51.082l0.519-0.311
			l-0.519,0.207 M45.036,56.017h0.363l-1.35-0.625c-0.831-0.518-1.039-1.037-0.675-1.92l-0.208,0.259 M50.021,47.344
			c0.831,0.934,2.699,2.285,3.738,2.7l0.207,0.104l-3.998-2.856L50.021,47.344z M39.636,51.913c0,0.104,0.156,0.156,0.26,0.208
			 M40.674,49.681c-0.519,0-1.194,0.674-1.35,1.246 M39.792,50.563l0.156-0.156l0.727-0.727 M40.155,52.174l-0.363-0.364
			c-0.26-0.312-0.26-0.675,0-1.038 M44.828,54.251c-0.104,0-0.104,0.104-0.156,0.207 M44.466,52.797c0.155,0,0.259,0,0.362,0.155
			v0.104"/>
	</g>
	<g>
		<defs>
			<rect id="SVGID_129_" x="24.059" y="29.949" width="51.925" height="51.926"/>
		</defs>
		<clipPath id="SVGID_130_">
			<use xlink:href="#SVGID_129_"  overflow="visible"/>
		</clipPath>
		<path clip-path="url(#SVGID_130_)" fill="none" stroke="#4D4D4D" stroke-miterlimit="10" d="M44.983,54.146
			c0.364-0.363,0.364-0.83,0.105-1.245c-0.261-0.363-0.521-0.416-0.832-0.208l-0.415,0.312 M44.31,52.121
			c-0.156,0-0.208,0.104-0.26,0.207l-0.312,0.364"/>
	</g>
	<g>
		<defs>
			<rect id="SVGID_131_" x="24.059" y="29.949" width="51.925" height="51.926"/>
		</defs>
		<clipPath id="SVGID_132_">
			<use xlink:href="#SVGID_131_"  overflow="visible"/>
		</clipPath>
		<path clip-path="url(#SVGID_132_)" fill="none" stroke="#4D4D4D" stroke-miterlimit="10" d="M44.31,52.277
			c0.156-0.156,0.259-0.416,0.312-0.52c0-0.52-0.26-0.727-0.676-0.831c0,0,0.104,0,0.156,0.104c0.208,0.26,0.312,0.519,0.312,0.675
			 M43.426,52.952c0,0.207-0.519,0.416-0.727,0.52c-0.104,0-0.155,0.104-0.155,0.104h0.104c0.104-0.156,0.363-0.363,0.624-0.52
			l0.155-0.155 M42.647,50.459c0.208-0.363,0.156-0.623-0.104-0.883c-0.52-0.519-0.831-0.519-1.558,0
			c0.363-0.156,0.727-0.363,1.142,0c0.364,0.208,0.52,0.364,0.52,0.623 M38.234,49.161c-0.26,0.52,0,1.039,0.363,1.298
			c0.208,0.208,0.416,0.104,0.675,0C38.753,50.459,38.234,50.096,38.234,49.161z M40.674,49.681c0.104,0,0.156,0.104,0.156,0.104
			h-0.156V49.681 M40.57,49.681h0.104 M39.324,49.161l0.779,0.26 M39.324,49.161l-0.727-0.363c-2.077-1.039-4.154-2.181-6.127-3.427
			c-0.779-0.52-1.558-0.883-2.336-1.35c-1.039-0.675-5.971-4.57-6.75-5.608l4.154,3.116c0,0.104,0.156,0.208,0.259,0.259l0.623,0.52
			c1.143,0.519,2.233,1.298,3.323,1.973l1.817,1.247c1.143,0.727,2.336,1.402,3.479,2.181l1.038,0.52
			c0.26,0.259,0.519,0.519,0.883,0.623l0.363,0.208 M40.155,49.421l-0.779-0.312 M40.155,49.421l0.104,0.104h0.104l0.208,0.104
			 M40.674,49.681H40.57 M59.368,62.039c0,0,0.103,0,0.155,0.103l0.727,0.416c1.246,0.779,2.961,1.817,3.946,2.286
			c1.351,0.727,2.7,1.401,4.154,1.973l1.038,0.519c2.597,1.038,4.829,2.492,6.906,4.362c0.104,0.103,0.312,0.207,0.415,0.415
			l-1.194-0.521c-2.076-1.036-4.153-2.231-6.231-3.373c-1.661-0.936-3.427-1.767-5.088-2.805L61.652,63.7
			c0-0.104-0.156-0.156-0.259-0.207c-0.364-0.261-0.624-0.521-0.936-0.675L59.368,62.039 M59.887,54.562h-0.208
			c-0.519,0-1.039,0-1.453-0.311c-0.104,0-0.104-0.156-0.208-0.26"/>
	</g>
	<g>
		<defs>
			<rect id="SVGID_133_" x="24.059" y="29.949" width="51.925" height="51.926"/>
		</defs>
		<clipPath id="SVGID_134_">
			<use xlink:href="#SVGID_133_"  overflow="visible"/>
		</clipPath>
		<path clip-path="url(#SVGID_134_)" fill="none" stroke="#4D4D4D" stroke-miterlimit="10" d="M54.383,50.927
			c0.415,0,0.882,0,1.298,0.104c0.312,0,0.675,0.207,1.039,0.26c0.362,0.104,0.778,0.104,1.142,0.104
			c0.623-0.104,0.936,0,1.195,0.26l0.414,0.778c0.208,0.52,0.312,1.143,0.416,1.713c0.104,0,0.104,0,0.104,0.105v0.156
			c0,0,0,0.154-0.156,0.206 M47.944,48.123c0.312,0.416,0.675,0.779,0.882,0.935l1.559,1.246c0.104,0,0.207,0.104,0.26,0.156H50.8
			c0,0.104,0.155,0.104,0.208,0.104l0.52,0.104h0.519l2.232,0.207 M47.217,47.5l0.728,0.623 M47.944,48.123
			c-0.104,0-0.155-0.155-0.26-0.259c-0.104-0.208-0.26-0.363-0.363-0.415"/>
	</g>
	<g>
		<defs>
			<rect id="SVGID_135_" x="24.059" y="29.949" width="51.925" height="51.926"/>
		</defs>
		<clipPath id="SVGID_136_">
			<use xlink:href="#SVGID_135_"  overflow="visible"/>
		</clipPath>
		<path clip-path="url(#SVGID_136_)" fill="none" stroke="#4D4D4D" stroke-miterlimit="10" d="M59.627,54.458
			c0,0,0.104,0,0.155-0.104v-0.104c0,0,0.104,0,0,0c-0.104-0.676-0.312-1.247-0.519-1.87c-0.207-0.675-0.675-0.883-1.35-0.779
			c-0.623,0-1.247,0-1.87-0.155c-0.727-0.155-1.558-0.155-2.232-0.208c-1.038-0.156-2.077-0.207-2.959-0.415
			c-0.364-0.104-0.729-0.416-1.039-0.675L48.1,48.59c0-0.156-0.104-0.312-0.208-0.52 M58.069,53.991
			c0.415,0.519,1.038,0.519,1.558,0.519"/>
	</g>
	<g>
		<defs>
			<rect id="SVGID_137_" x="24.059" y="29.949" width="51.925" height="51.926"/>
		</defs>
		<clipPath id="SVGID_138_">
			<use xlink:href="#SVGID_137_"  overflow="visible"/>
		</clipPath>
		<path clip-path="url(#SVGID_138_)" fill="none" stroke="#4D4D4D" stroke-miterlimit="10" d="M59.627,54.458
			c0,0,0.155,0,0.26,0.104h0.208l0.363,0.207h0.104l3.428,1.248l2.077,0.519l0.882,0.259c1.559,0.364,3.22,0.624,4.673,1.351
			l1.039,0.52h0.104c0.364,0.259,0.728,0.519,1.143,0.675l1.038,0.675l-1.816-0.831c-1.558-0.829-3.271-1.402-4.984-1.869
			c-2.077-0.52-4.154-1.038-6.076-1.766c-0.104,0-0.155,0-0.26-0.104l-2.076-0.935l-0.156-0.103L59.627,54.458z M44.828,45.319
			c-3.427-3.427-13.241-12.773-16.771-15.889c2.752,1.87,8.463,7.27,12.617,11.528l0.415,0.415l2.597,2.752
			c0.104,0,0.156,0.104,0.208,0.156L44.828,45.319c0,0,0.104,0,0.104,0.104C44.933,45.423,44.933,45.319,44.828,45.319z
			 M55.006,60.585v0.104l0.52,0.831c0.155,0.258,0.415,0.519,0.675,0.519c0.52,0.363,1.194,0.519,1.714,0.208
			c0.207-0.105,0.362-0.208,0.362-0.364l-0.104-0.311l-0.727-1.921c-0.26-0.624-0.364-1.352-0.623-1.974
			c-0.208-0.624-0.52-1.143-0.779-1.714l-0.312-0.572"/>
	</g>
	<g>
		<defs>
			<rect id="SVGID_139_" x="24.059" y="29.949" width="51.925" height="51.926"/>
		</defs>
		<clipPath id="SVGID_140_">
			<use xlink:href="#SVGID_139_"  overflow="visible"/>
		</clipPath>
		<path clip-path="url(#SVGID_140_)" fill="none" stroke="#4D4D4D" stroke-miterlimit="10" d="M55.732,55.392h0.208
			c0.363,0.779,0.779,1.455,1.039,2.183c0.259,0.362,0.312,0.83,0.519,1.244c0.208,0.779,0.52,1.454,0.831,2.182l0.26,0.521
			c0.104,0.258,0.104,0.414,0,0.519c0,0.156-0.104,0.259-0.208,0.363c-0.363,0.362-1.299,0.519-1.766,0.26
			c-0.778-0.364-1.401-1.195-1.558-1.973 M49.71,47.396c-0.521-0.416-1.558-1.558-1.766-1.766c-0.313-0.363-0.676-0.519-1.194-0.363
			l-1.558,0.416l-0.312,0.156c-0.156,0.104-0.156,0.312,0,0.623l0.519,0.52c0.363,0.312,0.831,0.52,1.351,0.52h0.519v-0.104h0.053
			c0,0,0,0.104-0.104,0.104c-0.52,0.311-0.935,0.208-1.35,0c-0.52-0.156-1.039-0.52-1.351-1.039c-0.207-0.311-0.207-0.623,0-0.882
			c0.155,0,0.26,0,0.416-0.104l2.077-0.415h0.415c0.207,0,0.364,0.208,0.52,0.363c0.259,0.363,1.557,1.558,1.817,2.077
			 M45.867,56.327l-0.364-0.83l0.521,0.778l0.155,0.155l1.35,1.923l1.039,1.4c0,0,0.103,0,0.155,0.104
			c0.208,0.258,0.415,0.519,0.778,0.519 M42.751,50.979l-1.558,1.299h-0.208c-0.312,0.415-0.26,0.778,0,1.142h0.103l0.156,0.156
			c0.416,0.311,0.832,0.52,1.35,0.311c-0.727,0.521-1.973-0.155-2.077-0.882c0-0.26,0.104-0.52,0.208-0.676c0,0,0-0.104,0.104-0.154
			c0.103,0,0.156-0.156,0.312-0.209c0.415-0.311,0.882-0.519,1.35-0.778l0.311-0.155L42.751,50.979z M49.501,60.325h0.364
			c0.259,0,0.52,0,0.831,0.155h0.207c0.364,0.156,0.676,0.156,1.039,0c0.311-0.104,1.245,0,1.973,0.104
			c0.363,0,0.728,0.104,0.883,0.156H52.98c-0.519-0.104-0.935,0-1.351,0.154c-0.259,0-0.519,0.104-0.777-0.103
			c-0.312-0.208-0.521-0.521-0.935-0.521l-0.261,0.104h-0.156"/>
	</g>
	<g>
		<defs>
			<rect id="SVGID_141_" x="24.059" y="29.949" width="51.925" height="51.926"/>
		</defs>
		<clipPath id="SVGID_142_">
			<use xlink:href="#SVGID_141_"  overflow="visible"/>
		</clipPath>
		<path clip-path="url(#SVGID_142_)" fill="none" stroke="#4D4D4D" stroke-miterlimit="10" d="M49.501,60.325
			c-0.312,0.155-0.519,0-0.778-0.155c-1.194-0.935-2.077-2.077-2.699-3.428c0-0.155-0.104-0.259-0.156-0.415
			c-0.884-0.104-2.233-0.415-2.804-1.038c-0.364-0.521-0.312-1.247,0-1.559h0.103c-0.312,0.779-0.156,1.298,0.675,1.817l1.247,0.52
			c0.311,0,0.623,0.155,0.83,0.26 M53.812,50.615c-1.194-0.675-3.479-2.493-4.311-3.323l0.209,0.104V47.5l4.309,3.115l0.364,0.312
			c-0.156,0-0.364-0.155-0.52-0.312H53.812z M39.636,52.018h0.156c0,0.104,0.104,0.104,0.104,0.104h0.312c0.312,0,0.52,0,0.52,0.104
			h-0.104c-0.26,0-0.52-0.104-0.779-0.207H39.636 M39.896,50.459c0,0,0,0.104-0.104,0.156c-0.416,0.52-0.52,0.883-0.208,1.298v0.104
			 M40.831,49.785c0,0-0.156,0-0.26,0.156c-0.208,0.156-0.52,0.312-0.675,0.519 M39.896,50.459l1.298-0.778"/>
	</g>
	<g>
		<defs>
			<rect id="SVGID_143_" x="24.059" y="29.949" width="51.925" height="51.926"/>
		</defs>
		<clipPath id="SVGID_144_">
			<use xlink:href="#SVGID_143_"  overflow="visible"/>
		</clipPath>
		<path clip-path="url(#SVGID_144_)" fill="none" stroke="#4D4D4D" stroke-miterlimit="10" d="M39.636,52.018
			c-0.363-0.208-0.519-0.52-0.519-0.831l0.208-0.26c0.104-0.155,0.312-0.259,0.52-0.415v-0.104 M44.828,54.251
			c0.155-0.365,0-0.779-0.207-1.039c-0.104-0.208-0.26-0.208-0.415-0.104c-0.156,0-0.312,0.104-0.416,0.207
			c0-0.156,0-0.207,0.104-0.26c0.103,0,0.156-0.104,0.208-0.155l0.364-0.104c0.155,0,0.259,0.104,0.415,0.259h0.103
			c0.209,0.416,0.261,0.779,0,1.143c0,0.156-0.207,0.312-0.415,0.52c0-0.156,0-0.208,0.104-0.26l0.209-0.26L44.828,54.251z
			 M43.426,52.952l-0.311,0.156l0.623-0.521h0.104c0.155-0.207,0.26-0.311,0.312-0.519c0.156-0.208,0-0.52-0.259-0.831l-1.039-0.207
			l0.883,0.104c0.312,0.104,0.519,0.312,0.624,0.52v0.259c0,0.104,0,0.208-0.104,0.364c0,0.104-0.155,0.207-0.26,0.311L43.479,52.9
			h-0.104L43.426,52.952z M40.831,49.785c0.727-0.519,1.038-0.519,1.558,0c0.104,0.156,0.208,0.26,0.208,0.519v0.156
			c0,0.156,0,0.312-0.104,0.519l0,0l0.104-0.415c0-0.364-0.312-0.623-0.624-0.831c-0.311-0.156-0.519-0.104-0.83,0
			c-0.156,0-0.26,0-0.364,0.104 M38.078,49.058c0,0.935,0.416,1.661,0.935,1.558c-0.259,0.26-0.363,0.26-0.519,0
			c-0.363-0.208-0.779-1.039-0.52-1.558H38.078z M56.667,54.354c-0.104,0-0.207,0.104-0.26,0.155l-0.363,0.312H55.94l-0.208,0.52
			c0-0.313,0.104-0.52,0.26-0.676L56.2,54.51l0.415-0.208"/>
	</g>
	<g>
		<defs>
			<rect id="SVGID_145_" x="24.059" y="29.949" width="51.925" height="51.926"/>
		</defs>
		<clipPath id="SVGID_146_">
			<use xlink:href="#SVGID_145_"  overflow="visible"/>
		</clipPath>
		<path clip-path="url(#SVGID_146_)" fill="none" stroke="#4D4D4D" stroke-miterlimit="10" d="M58.018,53.991
			c-0.52,0.154-1.558,0.519-1.351,0.363l0.313-0.26C57.291,53.938,57.603,53.835,58.018,53.991"/>
	</g>
</g>
</svg>
