<?xml version="1.0" encoding="utf-8"?>
<!-- Generator: Adobe Illustrator 16.0.0, SVG Export Plug-In . SVG Version: 6.00 Build 0)  -->
<!DOCTYPE svg PUBLIC "-//W3C//DTD SVG 1.1//EN" "http://www.w3.org/Graphics/SVG/1.1/DTD/svg11.dtd">
<svg version="1.1" id="Layer_1" xmlns="http://www.w3.org/2000/svg" xmlns:xlink="http://www.w3.org/1999/xlink" x="0px" y="0px"
	 width="60px" height="50px" viewBox="20 25 60 50" enable-background="new 20 25 60 50" xml:space="preserve">
<g>
	<g>
		<defs>
			<rect id="SVGID_1_" x="11.158" y="24" width="78.842" height="75.75"/>
		</defs>
		<clipPath id="SVGID_2_">
			<use xlink:href="#SVGID_1_"  overflow="visible"/>
		</clipPath>
		<path clip-path="url(#SVGID_2_)" fill="#999999" d="M21.013,71.344c0-4.696,7.096-8.559,16.084-8.559
			c8.988,0,16.005,3.786,16.005,8.559"/>
	</g>
	<g>
		<defs>
			<rect id="SVGID_3_" x="11.158" y="24" width="78.842" height="75.75"/>
		</defs>
		<clipPath id="SVGID_4_">
			<use xlink:href="#SVGID_3_"  overflow="visible"/>
		</clipPath>
		<path clip-path="url(#SVGID_4_)" fill="none" stroke="#B3B3B3" stroke-miterlimit="10" d="M21.013,71.344
			c0-4.696,7.096-8.559,16.084-8.559c8.988,0,16.005,3.786,16.005,8.559"/>
	</g>
	<g>
		<defs>
			<rect id="SVGID_5_" x="11.158" y="24" width="78.842" height="75.75"/>
		</defs>
		<clipPath id="SVGID_6_">
			<use xlink:href="#SVGID_5_"  overflow="visible"/>
		</clipPath>
		<path clip-path="url(#SVGID_6_)" fill="#999999" d="M45.455,54.451c0,5.074-3.785,9.092-8.358,9.092
			c-4.73,0-8.436-4.018-8.436-9.092s3.706-9.089,8.357-9.089c4.494,0,8.278,4.089,8.278,9.089"/>
	</g>
	<g>
		<defs>
			<rect id="SVGID_7_" x="11.158" y="24" width="78.842" height="75.75"/>
		</defs>
		<clipPath id="SVGID_8_">
			<use xlink:href="#SVGID_7_"  overflow="visible"/>
		</clipPath>
		
			<ellipse clip-path="url(#SVGID_8_)" fill="none" stroke="#B3B3B3" stroke-miterlimit="10" cx="37.097" cy="54.452" rx="8.358" ry="9.091"/>
	</g>
	<g>
		<defs>
			<rect id="SVGID_9_" x="11.158" y="24" width="78.842" height="75.75"/>
		</defs>
		<clipPath id="SVGID_10_">
			<use xlink:href="#SVGID_9_"  overflow="visible"/>
		</clipPath>
		<path clip-path="url(#SVGID_10_)" fill="#FFFFFF" d="M71.473,46.877c0,5.074-3.785,9.09-8.357,9.09
			c-4.729,0-8.436-4.016-8.436-9.09c0-5.076,3.706-9.09,8.356-9.09c4.495,0,8.278,4.09,8.278,9.09"/>
	</g>
	<g>
		<defs>
			<rect id="SVGID_11_" x="11.158" y="24" width="78.842" height="75.75"/>
		</defs>
		<clipPath id="SVGID_12_">
			<use xlink:href="#SVGID_11_"  overflow="visible"/>
		</clipPath>
		
			<ellipse clip-path="url(#SVGID_12_)" fill="none" stroke="#999999" stroke-miterlimit="10" cx="63.115" cy="46.877" rx="8.357" ry="9.09"/>
	</g>
	<g>
		<defs>
			<rect id="SVGID_13_" x="11.158" y="24" width="78.842" height="75.75"/>
		</defs>
		<clipPath id="SVGID_14_">
			<use xlink:href="#SVGID_13_"  overflow="visible"/>
		</clipPath>
		<path clip-path="url(#SVGID_14_)" fill="#999999" d="M45.455,54.451c0,5.074-3.785,9.092-8.358,9.092
			c-4.73,0-8.436-4.018-8.436-9.092s3.706-9.089,8.357-9.089c4.494,0,8.278,4.089,8.278,9.089"/>
	</g>
	<g>
		<defs>
			<rect id="SVGID_15_" x="11.158" y="24" width="78.842" height="75.75"/>
		</defs>
		<clipPath id="SVGID_16_">
			<use xlink:href="#SVGID_15_"  overflow="visible"/>
		</clipPath>
		
			<ellipse clip-path="url(#SVGID_16_)" fill="none" stroke="#B3B3B3" stroke-miterlimit="10" cx="37.097" cy="54.452" rx="8.358" ry="9.091"/>
	</g>
	<g>
		<defs>
			<rect id="SVGID_17_" x="11.158" y="24" width="78.842" height="75.75"/>
		</defs>
		<clipPath id="SVGID_18_">
			<use xlink:href="#SVGID_17_"  overflow="visible"/>
		</clipPath>
		<path clip-path="url(#SVGID_18_)" fill="#999999" d="M21.013,71.344c0-4.696,7.096-8.559,16.084-8.559
			c8.988,0,16.005,3.786,16.005,8.559"/>
	</g>
	<g>
		<defs>
			<rect id="SVGID_19_" x="11.158" y="24" width="78.842" height="75.75"/>
		</defs>
		<clipPath id="SVGID_20_">
			<use xlink:href="#SVGID_19_"  overflow="visible"/>
		</clipPath>
		<path clip-path="url(#SVGID_20_)" fill="none" stroke="#B3B3B3" stroke-miterlimit="10" d="M21.013,71.344
			c0-4.696,7.096-8.559,16.084-8.559c8.988,0,16.005,3.786,16.005,8.559"/>
	</g>
	<g>
		<defs>
			<rect id="SVGID_21_" x="11.158" y="24" width="78.842" height="75.75"/>
		</defs>
		<clipPath id="SVGID_22_">
			<use xlink:href="#SVGID_21_"  overflow="visible"/>
		</clipPath>
		<path clip-path="url(#SVGID_22_)" fill="#FFFFFF" d="M47.031,63.77c0-4.697,7.095-8.561,16.084-8.561
			c8.829,0,16.005,3.787,16.005,8.561"/>
	</g>
	<g>
		<defs>
			<rect id="SVGID_23_" x="11.158" y="24" width="78.842" height="75.75"/>
		</defs>
		<clipPath id="SVGID_24_">
			<use xlink:href="#SVGID_23_"  overflow="visible"/>
		</clipPath>
		<path clip-path="url(#SVGID_24_)" fill="none" stroke="#999999" stroke-miterlimit="10" d="M47.031,63.77
			c0-4.697,7.095-8.561,16.084-8.561c8.829,0,16.005,3.787,16.005,8.561"/>
	</g>
</g>
</svg>
